<?xml version="1.0" standalone="no"?>
<!DOCTYPE svg PUBLIC "-//W3C//DTD SVG 1.1//EN" "http://www.w3.org/Graphics/SVG/1.1/DTD/svg11.dtd" >
<svg xmlns="http://www.w3.org/2000/svg" xmlns:xlink="http://www.w3.org/1999/xlink" version="1.1">
<metadata>
Created by FontForge 20150715 at Sun Nov 22 05:07:27 2015
 By Jimmy Wärting
</metadata>
<defs>
<font id="NSansJapaneseRegular" horiz-adv-x="1000" >
  <font-face 
    font-family="(null)"
    font-weight="400"
    font-stretch="normal"
    units-per-em="1000"
    panose-1="2 0 5 3 0 0 0 0 0 0"
    ascent="800"
    descent="-200"
    x-height="543"
    cap-height="733"
    bbox="-44 -279 1001 959"
    underline-thickness="50"
    underline-position="-100"
    unicode-range="U+0020-FFE5"
  />
<missing-glyph 
 />
    <glyph glyph-name=".notdef" 
 />
    <glyph glyph-name="Identity.1" unicode=" " horiz-adv-x="224" 
 />
    <glyph glyph-name="Identity.2" unicode="!" horiz-adv-x="323" 
d="M130 221l-12 424l-3 104h93l-3 -104l-12 -424h-63zM161 -13c-36 0 -66 28 -66 69s30 71 66 71c37 0 66 -30 66 -71s-29 -69 -66 -69z" />
    <glyph glyph-name="Identity.3" unicode="&#x22;" horiz-adv-x="475" 
d="M110 483l-18 185l-2 103h96l-2 -103l-18 -185h-56zM307 483l-18 185l-3 103h97l-2 -103l-19 -185h-55z" />
    <glyph glyph-name="Identity.4" unicode="#" horiz-adv-x="555" 
d="M101 0l27 228h-88v64h96l21 166h-95v63h102l26 205h59l-25 -205h148l27 205h58l-25 -205h89v-63h-96l-21 -166h95v-64h-103l-27 -228h-60l27 228h-148l-28 -228h-59zM196 292h148l21 166h-149z" />
    <glyph glyph-name="Identity.5" unicode="$" horiz-adv-x="555" 
d="M473 641l-49 -54c-41 40 -75 63 -136 63c-69 0 -113 -43 -113 -108c0 -163 313 -118 313 -358c0 -106 -67 -179 -173 -194v-113h-66v111c-71 7 -143 42 -191 86l43 62c47 -40 104 -73 172 -73c83 0 126 45 126 115c0 182 -313 142 -313 360c0 100 66 171 163 185v113h66
v-111c72 -8 118 -42 158 -84z" />
    <glyph glyph-name="Identity.6" unicode="%" horiz-adv-x="921" 
d="M205 284c-100 0 -166 85 -166 233c0 147 66 230 166 230c101 0 167 -83 167 -230c0 -148 -66 -233 -167 -233zM205 341c58 0 98 59 98 176s-40 174 -98 174c-57 0 -97 -57 -97 -174s40 -176 97 -176zM227 -13l404 760h62l-405 -760h-61zM716 -13c-100 0 -167 84 -167 232
c0 147 67 230 167 230s166 -83 166 -230c0 -148 -66 -232 -166 -232zM716 43c57 0 97 59 97 176s-40 174 -97 174c-58 0 -98 -57 -98 -174s40 -176 98 -176z" />
    <glyph glyph-name="Identity.7" unicode="&#x26;" horiz-adv-x="680" 
d="M125 195c0 -81 63 -135 145 -135c50 0 98 23 140 59c-72 63 -141 140 -193 219c-52 -42 -92 -86 -92 -143zM211 575c0 -40 13 -85 35 -130c67 45 125 90 125 155c0 43 -20 81 -70 81c-55 0 -90 -45 -90 -106zM663 63l-25 -76c-51 14 -108 42 -167 84
c-56 -51 -125 -84 -212 -84c-133 0 -223 85 -223 203c0 98 69 160 144 212c-30 59 -48 118 -48 171c0 98 68 174 169 174c91 0 144 -60 144 -145c0 -96 -84 -158 -165 -217c48 -76 116 -150 186 -207c46 60 81 133 104 217h84c-28 -97 -70 -186 -128 -262
c49 -35 96 -59 137 -70z" />
    <glyph glyph-name="Identity.8" unicode="'" horiz-adv-x="278" 
d="M110 483l-18 185l-2 103h96l-2 -103l-18 -185h-56z" />
    <glyph glyph-name="Identity.9" unicode="(" horiz-adv-x="338" 
d="M239 -197c-92 150 -147 311 -147 508c0 196 55 358 147 507l57 -26c-87 -143 -128 -311 -128 -481s41 -339 128 -481z" />
    <glyph glyph-name="Identity.10" unicode=")" horiz-adv-x="338" 
d="M99 -197l-56 27c86 142 128 311 128 481s-42 338 -128 481l56 26c93 -149 148 -311 148 -507c0 -197 -55 -358 -148 -508z" />
    <glyph glyph-name="Identity.11" unicode="*" horiz-adv-x="467" 
d="M154 471l-44 32l63 104l-109 45l18 51l114 -28l10 121h54l10 -120l114 27l17 -51l-109 -45l64 -104l-44 -32l-79 95z" />
    <glyph glyph-name="Identity.12" unicode="+" horiz-adv-x="555" 
d="M241 116v219h-203v68h203v218h73v-218h203v-68h-203v-219h-73z" />
    <glyph glyph-name="Identity.13" unicode="," horiz-adv-x="278" 
d="M75 -190l-22 54c62 27 99 75 100 136c-4 -1 -7 -1 -11 -1c-35 0 -67 22 -67 64c0 39 32 64 69 64c48 0 77 -41 77 -108c0 -96 -56 -171 -146 -209z" />
    <glyph glyph-name="Identity.14" unicode="-" horiz-adv-x="347" 
d="M46 245v70h256v-70h-256z" />
    <glyph glyph-name="Identity.15" unicode="." horiz-adv-x="278" 
d="M139 -13c-36 0 -66 28 -66 69s30 71 66 71s66 -30 66 -71s-30 -69 -66 -69z" />
    <glyph glyph-name="Identity.16" unicode="/" horiz-adv-x="392" 
d="M11 -179l300 972h66l-299 -972h-67z" />
    <glyph glyph-name="Identity.17" unicode="0" horiz-adv-x="555" 
d="M278 -13c-140 0 -229 127 -229 382s89 378 229 378c139 0 228 -124 228 -378c0 -255 -89 -382 -228 -382zM278 60c83 0 139 93 139 309c0 214 -56 304 -139 304c-84 0 -140 -90 -140 -304c0 -216 56 -309 140 -309z" />
    <glyph glyph-name="Identity.18" unicode="1" horiz-adv-x="555" 
d="M88 0v76h163v547h-130v58c65 12 112 29 152 52h70v-657h147v-76h-402z" />
    <glyph glyph-name="Identity.19" unicode="2" horiz-adv-x="555" 
d="M44 0v54c230 201 336 347 336 473c0 84 -44 145 -135 145c-60 0 -112 -37 -152 -85l-53 52c60 65 123 108 216 108c131 0 213 -86 213 -217c0 -146 -115 -295 -287 -458c38 3 83 7 120 7h203v-79h-461z" />
    <glyph glyph-name="Identity.20" unicode="3" horiz-adv-x="555" 
d="M264 -13c-115 0 -187 48 -235 100l46 60c43 -45 99 -84 182 -84c87 0 149 52 149 136c0 88 -59 147 -228 147v70c151 0 203 61 203 140c0 71 -48 116 -124 118c-59 -2 -111 -32 -152 -73l-49 58c55 51 120 88 205 88c123 0 213 -66 213 -184c0 -89 -53 -148 -131 -177v-4
c87 -20 156 -86 156 -186c0 -131 -105 -209 -235 -209z" />
    <glyph glyph-name="Identity.21" unicode="4" horiz-adv-x="555" 
d="M115 275h224v225c0 36 4 95 6 133h-4c-18 -36 -38 -72 -59 -108zM523 275v-73h-97v-202h-87v202h-319v60l305 471h101v-458h97z" />
    <glyph glyph-name="Identity.22" unicode="5" horiz-adv-x="555" 
d="M261 -13c-114 0 -184 48 -233 97l45 60c42 -42 95 -81 180 -81c86 0 156 66 156 173c0 105 -60 167 -152 167c-49 0 -80 -15 -122 -43l-49 30l23 343h357v-78h-277l-18 -212c32 18 65 29 109 29c122 0 221 -72 221 -233s-116 -252 -240 -252z" />
    <glyph glyph-name="Identity.23" unicode="6" horiz-adv-x="555" 
d="M301 58c70 0 124 67 124 167c0 99 -43 162 -132 162c-46 0 -102 -26 -150 -94c11 -152 66 -235 158 -235zM498 672l-50 -57c-29 35 -73 56 -118 56c-100 0 -185 -77 -189 -305c45 55 109 89 167 89c124 0 203 -77 203 -230c0 -142 -96 -238 -210 -238
c-141 0 -245 121 -245 363c0 287 129 397 271 397c76 0 131 -32 171 -75z" />
    <glyph glyph-name="Identity.24" unicode="7" horiz-adv-x="555" 
d="M198 0c12 278 63 455 206 655h-355v78h459v-55c-172 -221 -204 -391 -215 -678h-95z" />
    <glyph glyph-name="Identity.25" unicode="8" horiz-adv-x="555" 
d="M279 -13c-135 0 -234 82 -234 195c0 98 68 166 135 202v5c-54 37 -99 92 -99 169c0 112 86 186 201 186c125 0 201 -80 201 -193c0 -77 -54 -143 -98 -177v-5c64 -37 124 -92 124 -192c0 -107 -92 -190 -230 -190zM329 398c50 44 76 94 76 148c0 72 -46 131 -125 131
c-67 0 -116 -48 -116 -119c0 -88 79 -126 165 -160zM281 55c84 0 141 51 141 124c0 98 -90 135 -194 177c-59 -38 -100 -96 -100 -166c0 -78 65 -135 153 -135z" />
    <glyph glyph-name="Identity.26" unicode="9" horiz-adv-x="555" 
d="M261 346c49 0 104 28 153 98c-10 151 -66 231 -160 231c-70 0 -124 -66 -124 -166c0 -99 44 -163 131 -163zM58 62l50 57c31 -35 76 -56 123 -56c95 0 177 78 184 306c-44 -55 -107 -91 -169 -91c-122 0 -202 79 -202 231c0 142 96 238 210 238c141 0 246 -116 246 -349
c0 -297 -128 -411 -266 -411c-79 0 -135 32 -176 75z" />
    <glyph glyph-name="Identity.27" unicode=":" horiz-adv-x="278" 
d="M139 390c-36 0 -66 29 -66 69c0 42 30 71 66 71s66 -29 66 -71c0 -40 -30 -69 -66 -69zM139 -13c-36 0 -66 28 -66 69s30 71 66 71s66 -30 66 -71s-30 -69 -66 -69z" />
    <glyph glyph-name="Identity.28" unicode=";" horiz-adv-x="278" 
d="M139 390c-36 0 -66 29 -66 69c0 42 30 71 66 71s66 -29 66 -71c0 -40 -30 -69 -66 -69zM75 -190l-22 54c62 27 99 75 100 136c-4 -1 -7 -1 -11 -1c-35 0 -67 22 -67 64c0 39 32 64 69 64c48 0 77 -41 77 -108c0 -96 -56 -171 -146 -209z" />
    <glyph glyph-name="Identity.29" unicode="&#x3c;" horiz-adv-x="555" 
d="M517 146l-479 188v73l479 188v-79l-236 -87l-150 -56v-4l150 -56l236 -87v-80z" />
    <glyph glyph-name="Identity.30" unicode="=" horiz-adv-x="555" 
d="M38 454v68h479v-68h-479zM38 215v68h479v-68h-479z" />
    <glyph glyph-name="Identity.31" unicode="&#x3e;" horiz-adv-x="555" 
d="M38 146v80l236 87l150 56v4l-150 56l-236 87v79l479 -188v-73z" />
    <glyph glyph-name="Identity.32" unicode="?" horiz-adv-x="474" 
d="M178 221c-23 174 154 238 154 357c0 60 -37 108 -108 108c-50 0 -94 -24 -129 -64l-52 48c46 53 110 92 191 92c113 0 187 -69 187 -178c0 -147 -180 -206 -162 -363h-81zM221 -13c-36 0 -66 28 -66 69s30 71 66 71c37 0 67 -30 67 -71s-30 -69 -67 -69z" />
    <glyph glyph-name="Identity.33" unicode="@" horiz-adv-x="946" 
d="M450 -173c-219 0 -394 140 -394 400c0 299 217 495 466 495c225 0 367 -150 367 -370c0 -195 -122 -297 -223 -297c-61 0 -108 28 -115 85h-3c-36 -43 -87 -77 -136 -77c-76 0 -134 57 -134 159c0 118 84 259 215 259c38 0 69 -18 89 -55h2l13 46h60l-44 -223
c-21 -90 0 -131 61 -131c71 0 151 85 151 230c0 181 -107 313 -310 313c-199 0 -391 -170 -391 -431c0 -218 142 -342 332 -342c68 0 132 21 182 50l24 -54c-65 -39 -135 -57 -212 -57zM430 126c31 0 65 20 103 66l32 178c-21 34 -42 47 -72 47c-88 0 -142 -106 -142 -190
c0 -72 34 -101 79 -101z" />
    <glyph glyph-name="Identity.34" unicode="A" horiz-adv-x="607" 
d="M191 298h222l-35 112c-27 83 -50 163 -74 248h-4c-23 -86 -47 -165 -73 -248zM506 0l-70 224h-268l-71 -224h-94l249 733h103l249 -733h-98z" />
    <glyph glyph-name="Identity.35" unicode="B" horiz-adv-x="657" 
d="M100 0v733h218c149 0 252 -50 252 -179c0 -73 -39 -137 -108 -159v-5c88 -17 150 -75 150 -175c0 -144 -114 -215 -278 -215h-234zM193 421h109c126 0 177 47 177 121c0 86 -59 118 -173 118h-113v-239zM193 74h128c126 0 200 45 200 144c0 91 -72 132 -200 132h-128
v-276z" />
    <glyph glyph-name="Identity.36" unicode="C" horiz-adv-x="638" 
d="M377 -13c-182 0 -319 141 -319 379c0 237 139 381 325 381c89 0 159 -44 201 -91l-50 -60c-38 41 -87 70 -150 70c-139 0 -231 -114 -231 -297c0 -185 88 -301 228 -301c70 0 123 31 170 82l51 -58c-58 -67 -130 -105 -225 -105z" />
    <glyph glyph-name="Identity.37" unicode="D" horiz-adv-x="687" 
d="M100 0v733h184c225 0 346 -131 346 -364c0 -232 -121 -369 -342 -369h-188zM193 76h83c173 0 258 108 258 293c0 186 -85 289 -258 289h-83v-582z" />
    <glyph glyph-name="Identity.38" unicode="E" horiz-adv-x="588" 
d="M100 0v733h423v-78h-330v-230h278v-79h-278v-267h341v-79h-434z" />
    <glyph glyph-name="Identity.39" unicode="F" horiz-adv-x="552" 
d="M100 0v733h423v-78h-330v-248h280v-78h-280v-329h-93z" />
    <glyph glyph-name="Identity.40" unicode="G" horiz-adv-x="689" 
d="M388 -13c-193 0 -330 141 -330 379c0 237 142 381 336 381c102 0 169 -46 211 -91l-50 -60c-37 39 -84 70 -159 70c-147 0 -243 -114 -243 -297c0 -185 87 -301 244 -301c53 0 104 16 133 43v192h-155v77h240v-308c-47 -49 -128 -85 -227 -85z" />
    <glyph glyph-name="Identity.41" unicode="H" horiz-adv-x="728" 
d="M100 0v733h93v-307h342v307h92v-733h-92v346h-342v-346h-93z" />
    <glyph glyph-name="Identity.42" unicode="I" horiz-adv-x="293" 
d="M100 0v733h93v-733h-93z" />
    <glyph glyph-name="Identity.43" unicode="J" horiz-adv-x="536" 
d="M237 -13c-93 0 -159 40 -202 116l66 47c33 -58 74 -82 127 -82c79 0 118 45 118 156v509h92v-518c0 -126 -58 -228 -201 -228z" />
    <glyph glyph-name="Identity.44" unicode="K" horiz-adv-x="646" 
d="M100 0v733h93v-368h3l306 368h104l-229 -279l265 -454h-104l-219 382l-126 -150v-232h-93z" />
    <glyph glyph-name="Identity.45" unicode="L" horiz-adv-x="542" 
d="M100 0v733h93v-654h320v-79h-413z" />
    <glyph glyph-name="Identity.46" unicode="M" horiz-adv-x="812" 
d="M100 0v733h112l141 -392c17 -51 34 -102 52 -153h5c17 51 33 102 50 153l140 392h112v-733h-87v406c0 63 7 152 12 216h-4l-58 -167l-139 -381h-62l-139 381l-58 167h-4c4 -64 11 -153 11 -216v-406h-84z" />
    <glyph glyph-name="Identity.47" unicode="N" horiz-adv-x="722" 
d="M100 0v733h96l267 -462l78 -151h5c-5 74 -12 156 -12 232v381h88v-733h-95l-267 463l-79 151h-4c4 -74 11 -152 11 -229v-385h-88z" />
    <glyph glyph-name="Identity.48" unicode="O" horiz-adv-x="742" 
d="M371 -13c-184 0 -313 147 -313 382s129 378 313 378s313 -143 313 -378s-129 -382 -313 -382zM371 68c131 0 218 118 218 301c0 184 -87 297 -218 297c-132 0 -218 -113 -218 -297c0 -183 86 -301 218 -301z" />
    <glyph glyph-name="Identity.49" unicode="P" horiz-adv-x="632" 
d="M100 0v733h209c165 0 275 -55 275 -215c0 -155 -110 -227 -270 -227h-121v-291h-93zM193 366h109c129 0 190 47 190 152c0 106 -65 140 -194 140h-105v-292z" />
    <glyph glyph-name="Identity.50" unicode="Q" horiz-adv-x="742" 
d="M153 369c0 -187 86 -306 218 -306c131 0 218 119 218 306c0 184 -87 297 -218 297c-132 0 -218 -113 -218 -297zM682 -96l18 -72c-22 -8 -61 -16 -105 -16c-135 0 -228 73 -269 174c-160 22 -268 164 -268 379c0 235 129 378 313 378s313 -143 313 -378
c0 -211 -104 -351 -259 -378c33 -65 100 -98 180 -98c33 0 58 5 77 11z" />
    <glyph glyph-name="Identity.51" unicode="R" horiz-adv-x="635" 
d="M193 658v-272h123c115 0 178 46 178 141c0 97 -63 131 -178 131h-123zM608 0h-105l-178 311h-132v-311h-93v733h230c149 0 256 -53 256 -206c0 -114 -66 -182 -166 -206z" />
    <glyph glyph-name="Identity.52" unicode="S" horiz-adv-x="597" 
d="M304 -13c-104 0 -193 42 -257 109l55 63c53 -55 127 -91 203 -91c96 0 154 48 154 120c0 75 -53 99 -122 130l-106 46c-68 29 -149 81 -149 188c0 113 98 195 231 195c87 0 164 -37 216 -91l-49 -59c-45 42 -99 69 -167 69c-83 0 -137 -42 -137 -108
c0 -71 64 -98 121 -122l105 -45c85 -37 151 -87 151 -196c0 -116 -96 -208 -249 -208z" />
    <glyph glyph-name="Identity.53" unicode="T" horiz-adv-x="599" 
d="M253 0v655h-222v78h537v-78h-222v-655h-93z" />
    <glyph glyph-name="Identity.54" unicode="U" horiz-adv-x="721" 
d="M360 -13c-149 0 -263 80 -263 316v430h93v-433c0 -177 75 -232 170 -232c98 0 175 55 175 232v433h89v-430c0 -236 -114 -316 -264 -316z" />
    <glyph glyph-name="Identity.55" unicode="V" horiz-adv-x="575" 
d="M235 0l-234 733h97l119 -397c26 -86 43 -156 71 -242h4c27 86 45 156 71 242l118 397h94l-233 -733h-107z" />
    <glyph glyph-name="Identity.56" unicode="W" horiz-adv-x="878" 
d="M181 0l-156 733h96l77 -399c14 -79 29 -158 43 -237h4c17 79 35 158 53 237l101 399h84l103 -399c18 -78 35 -157 52 -237h5c14 80 28 159 42 237l77 399h89l-152 -733h-111l-111 442c-13 58 -24 111 -36 167h-4c-12 -56 -25 -109 -37 -167l-109 -442h-110z" />
    <glyph glyph-name="Identity.57" unicode="X" horiz-adv-x="573" 
d="M17 0l214 379l-200 354h102l100 -187c19 -34 34 -65 58 -107h4c20 42 34 73 52 107l98 187h97l-200 -359l214 -374h-102l-108 198c-19 36 -39 74 -63 118h-4c-21 -44 -40 -82 -59 -118l-106 -198h-97z" />
    <glyph glyph-name="Identity.58" unicode="Y" horiz-adv-x="531" 
d="M219 0v285l-220 448h99l94 -207c24 -54 46 -105 72 -160h4c26 55 51 106 73 160l95 207h96l-220 -448v-285h-93z" />
    <glyph glyph-name="Identity.59" unicode="Z" horiz-adv-x="603" 
d="M50 0v55l387 600h-352v78h466v-54l-387 -600h391v-79h-505z" />
    <glyph glyph-name="Identity.60" unicode="[" horiz-adv-x="338" 
d="M105 -170v961h199v-51h-130v-858h130v-52h-199z" />
    <glyph glyph-name="Identity.61" unicode="\" horiz-adv-x="392" 
d="M314 -179l-299 972h66l299 -972h-66z" />
    <glyph glyph-name="Identity.62" unicode="]" horiz-adv-x="338" 
d="M34 -170v52h130v858h-130v51h199v-961h-199z" />
    <glyph glyph-name="Identity.63" unicode="^" horiz-adv-x="555" 
d="M67 317l170 432h81l170 -432h-80l-74 198l-54 149h-5l-55 -149l-73 -198h-80z" />
    <glyph glyph-name="Identity.64" unicode="_" horiz-adv-x="559" 
d="M13 -140v61h532v-61h-532z" />
    <glyph glyph-name="Identity.65" unicode="`" horiz-adv-x="606" 
d="M319 641l-175 170l64 61l158 -186z" />
    <glyph glyph-name="Identity.66" unicode="a" horiz-adv-x="564" 
d="M217 -13c-91 0 -159 56 -159 154c0 118 103 177 334 203c0 70 -23 137 -112 137c-63 0 -120 -29 -163 -58l-36 63c50 32 127 71 214 71c132 0 188 -89 188 -223v-334h-75l-8 65h-3c-52 -43 -113 -78 -180 -78zM243 60c53 0 96 25 149 72v152c-183 -22 -245 -67 -245 -137
c0 -62 42 -87 96 -87z" />
    <glyph glyph-name="Identity.67" unicode="b" horiz-adv-x="618" 
d="M331 -13c-50 0 -107 25 -155 69h-3l-8 -56h-73v796h91v-218l-3 -98c49 43 110 77 170 77c141 0 217 -110 217 -276c0 -187 -111 -294 -236 -294zM316 63c90 0 156 81 156 216c0 120 -40 201 -143 201c-46 0 -94 -26 -146 -75v-285c48 -42 97 -57 133 -57z" />
    <glyph glyph-name="Identity.68" unicode="c" horiz-adv-x="509" 
d="M306 -13c-144 0 -255 104 -255 284c0 181 123 286 262 286c71 0 120 -30 159 -64l-47 -61c-32 29 -65 49 -109 49c-98 0 -170 -85 -170 -210s68 -208 168 -208c50 0 94 23 128 54l39 -61c-48 -44 -110 -69 -175 -69z" />
    <glyph glyph-name="Identity.69" unicode="d" horiz-adv-x="620" 
d="M277 -13c-136 0 -224 103 -224 284c0 176 111 286 235 286c64 0 105 -24 153 -64l-5 94v209h91v-796h-74l-9 64h-2c-43 -42 -100 -77 -165 -77zM297 63c50 0 94 25 139 75v285c-46 41 -87 57 -132 57c-88 0 -157 -84 -157 -208c0 -131 54 -209 150 -209z" />
    <glyph glyph-name="Identity.70" unicode="e" horiz-adv-x="554" 
d="M311 -13c-144 0 -260 105 -260 284c0 176 119 286 245 286c138 0 216 -100 216 -255c0 -20 -2 -39 -4 -52h-366c6 -116 77 -190 180 -190c53 0 96 16 136 43l33 -60c-48 -31 -106 -56 -180 -56zM141 315h291c0 110 -50 169 -135 169c-77 0 -145 -62 -156 -169z" />
    <glyph glyph-name="Identity.71" unicode="f" horiz-adv-x="325" 
d="M356 791l-20 -69c-20 9 -42 14 -61 14c-52 0 -77 -37 -77 -107v-86h115v-74h-115v-469h-91v469h-74v69l74 5v87c0 110 50 179 158 179c33 0 65 -7 91 -18z" />
    <glyph glyph-name="Identity.72" unicode="g" horiz-adv-x="563" 
d="M275 -250c-133 0 -225 52 -225 146c0 46 30 90 81 123v4c-29 17 -50 46 -50 89c0 45 33 81 61 101v4c-36 29 -71 81 -71 146c0 119 94 194 204 194c30 0 57 -7 76 -14h189v-70h-111c26 -25 44 -65 44 -112c0 -116 -88 -189 -198 -189c-27 0 -57 7 -81 19
c-20 -17 -35 -35 -35 -65c0 -35 22 -59 95 -59h106c126 0 189 -40 189 -129c0 -101 -106 -188 -274 -188zM275 234c62 0 115 50 115 129s-51 127 -115 127s-116 -47 -116 -127c0 -79 53 -129 116 -129zM288 -188c104 0 173 55 173 112c0 50 -39 67 -111 67h-94
c-20 0 -46 3 -70 9c-39 -28 -56 -60 -56 -92c0 -58 59 -96 158 -96z" />
    <glyph glyph-name="Identity.73" unicode="h" horiz-adv-x="607" 
d="M92 0v796h91v-218l-3 -112c50 50 106 91 180 91c114 0 166 -74 166 -213v-344h-91v332c0 102 -31 145 -103 145c-56 0 -94 -28 -149 -83v-394h-91z" />
    <glyph glyph-name="Identity.74" unicode="i" horiz-adv-x="275" 
d="M92 0v543h91v-543h-91zM138 655c-36 0 -63 25 -63 59c0 37 27 59 63 59s63 -22 63 -59c0 -34 -27 -59 -63 -59z" />
    <glyph glyph-name="Identity.75" unicode="j" horiz-adv-x="275" 
d="M36 -243c-33 0 -61 7 -80 14l18 70c14 -5 32 -10 51 -10c55 0 68 41 68 107v605h91v-605c0 -111 -41 -181 -148 -181zM139 655c-36 0 -63 25 -63 59c0 37 27 59 63 59c35 0 63 -22 63 -59c0 -34 -28 -59 -63 -59z" />
    <glyph glyph-name="Identity.76" unicode="k" horiz-adv-x="552" 
d="M92 0v796h90v-540h2l233 287h101l-182 -218l206 -325h-99l-159 262l-102 -119v-143h-90z" />
    <glyph glyph-name="Identity.77" unicode="l" horiz-adv-x="285" 
d="M188 -13c-68 0 -96 44 -96 121v688h91v-694c0 -28 12 -39 26 -39c5 0 9 0 19 2l13 -70c-13 -5 -29 -8 -53 -8z" />
    <glyph glyph-name="Identity.78" unicode="m" horiz-adv-x="926" 
d="M92 0v543h75l8 -79h3c47 52 104 93 169 93c83 0 128 -40 150 -104c56 61 113 104 179 104c112 0 165 -74 165 -213v-344h-91v332c0 102 -32 145 -101 145c-42 0 -86 -27 -137 -83v-394h-91v332c0 102 -32 145 -101 145c-41 0 -87 -27 -137 -83v-394h-91z" />
    <glyph glyph-name="Identity.79" unicode="n" horiz-adv-x="611" 
d="M92 0v543h75l8 -78h3c52 51 108 92 182 92c114 0 166 -74 166 -213v-344h-91v332c0 102 -31 145 -103 145c-56 0 -94 -28 -149 -83v-394h-91z" />
    <glyph glyph-name="Identity.80" unicode="o" horiz-adv-x="606" 
d="M303 -13c-133 0 -252 104 -252 284c0 181 119 286 252 286s252 -105 252 -286c0 -180 -119 -284 -252 -284zM303 63c94 0 158 83 158 208s-64 210 -158 210s-157 -85 -157 -210s63 -208 157 -208z" />
    <glyph glyph-name="Identity.81" unicode="p" horiz-adv-x="620" 
d="M92 -229v772h75l8 -62h3c49 40 110 76 173 76c140 0 216 -110 216 -277c0 -186 -111 -293 -236 -293c-49 0 -101 23 -150 63l2 -95v-184h-91zM316 63c90 0 156 81 156 216c0 120 -40 201 -143 201c-46 0 -93 -26 -146 -75v-285c49 -42 97 -57 133 -57z" />
    <glyph glyph-name="Identity.82" unicode="q" horiz-adv-x="620" 
d="M436 -229v193l5 99c-44 -43 -101 -76 -164 -76c-136 0 -224 103 -224 284c0 176 111 286 235 286c63 0 108 -23 155 -66h3l9 52h72v-772h-91zM297 63c50 0 94 25 139 75v285c-46 41 -87 57 -132 57c-88 0 -157 -84 -157 -208c0 -131 54 -209 150 -209z" />
    <glyph glyph-name="Identity.83" unicode="r" horiz-adv-x="388" 
d="M92 0v543h75l8 -99h3c38 69 93 113 154 113c24 0 41 -3 58 -12l-17 -80c-18 7 -31 9 -53 9c-45 0 -101 -32 -137 -125v-349h-91z" />
    <glyph glyph-name="Identity.84" unicode="s" horiz-adv-x="468" 
d="M234 -13c-77 0 -151 32 -203 75l45 60c47 -38 96 -64 161 -64c72 0 107 38 107 85c0 55 -64 80 -124 103c-76 28 -162 65 -162 157c0 86 69 154 187 154c67 0 126 -28 169 -61l-44 -59c-38 28 -76 48 -125 48c-68 0 -99 -36 -99 -78c0 -52 59 -71 120 -94
c79 -30 166 -62 166 -165c0 -88 -70 -161 -198 -161z" />
    <glyph glyph-name="Identity.85" unicode="t" horiz-adv-x="377" 
d="M263 -13c-116 0 -155 72 -155 181v301h-81v69l85 5l11 152h76v-152h147v-74h-147v-303c0 -67 21 -105 84 -105c19 0 44 7 62 14l18 -68c-31 -10 -67 -20 -100 -20z" />
    <glyph glyph-name="Identity.86" unicode="u" horiz-adv-x="607" 
d="M250 -13c-114 0 -165 74 -165 212v344h91v-333c0 -101 30 -144 102 -144c56 0 95 27 147 92v385h91v-543h-76l-7 85h-3c-51 -59 -105 -98 -180 -98z" />
    <glyph glyph-name="Identity.87" unicode="v" horiz-adv-x="521" 
d="M209 0l-196 543h95l102 -309c17 -53 34 -109 51 -160h4c16 51 34 107 50 160l103 309h90l-193 -543h-106z" />
    <glyph glyph-name="Identity.88" unicode="w" horiz-adv-x="802" 
d="M178 0l-151 543h93l81 -314c11 -52 22 -101 32 -152h5c12 51 23 101 37 152l84 314h89l85 -314c13 -52 25 -101 38 -152h4c12 51 22 100 34 152l80 314h86l-146 -543h-110l-79 293c-14 51 -24 101 -37 156h-5c-12 -55 -23 -106 -37 -158l-76 -291h-107z" />
    <glyph glyph-name="Identity.89" unicode="x" horiz-adv-x="498" 
d="M15 0l179 283l-165 260h98l73 -120c17 -30 36 -60 54 -90h4c17 30 33 60 49 90l67 120h95l-165 -269l179 -274h-100l-80 127c-18 33 -38 66 -58 97h-5c-19 -31 -37 -64 -56 -97l-73 -127h-96z" />
    <glyph glyph-name="Identity.90" unicode="y" horiz-adv-x="521" 
d="M101 -234c-26 0 -47 4 -64 11l18 73c11 -4 27 -9 41 -9c62 0 101 50 123 117l12 41l-218 544h95l111 -302c16 -47 35 -103 52 -152h5c15 49 31 104 46 152l97 302h89l-205 -588c-38 -107 -94 -189 -202 -189z" />
    <glyph glyph-name="Identity.91" unicode="z" horiz-adv-x="474" 
d="M35 0v49l286 420h-255v74h370v-49l-286 -420h296v-74h-411z" />
    <glyph glyph-name="Identity.92" unicode="{" horiz-adv-x="338" 
d="M255 -170c-89 0 -131 33 -131 149c0 81 10 140 10 215c0 44 -20 87 -96 88v57c76 1 96 44 96 87c0 76 -10 135 -10 216c0 116 42 149 131 149h49v-51h-29c-60 0 -76 -31 -76 -103c0 -68 6 -126 6 -203c0 -72 -18 -108 -67 -121v-4c49 -14 67 -51 67 -122
c0 -76 -6 -135 -6 -203c0 -72 16 -102 76 -102h29v-52h-49z" />
    <glyph glyph-name="Identity.93" unicode="|" horiz-adv-x="269" 
d="M103 -279v1117h64v-1117h-64z" />
    <glyph glyph-name="Identity.94" unicode="}" horiz-adv-x="338" 
d="M34 -170v52h29c61 0 76 30 76 102c0 68 -5 127 -5 203c0 71 18 108 66 122v4c-48 13 -66 49 -66 121c0 77 5 135 5 203c0 72 -15 103 -76 103h-29v51h50c88 0 130 -33 130 -149c0 -81 -9 -140 -9 -216c0 -43 19 -86 95 -87v-57c-76 -1 -95 -44 -95 -88
c0 -75 9 -134 9 -215c0 -116 -42 -149 -130 -149h-50z" />
    <glyph glyph-name="Identity.95" unicode="~" horiz-adv-x="555" 
d="M376 287c-89 0 -136 95 -199 95c-32 0 -60 -20 -86 -68l-51 36c41 70 91 100 140 100c87 0 135 -94 198 -94c32 0 60 20 85 68l52 -37c-41 -70 -91 -100 -139 -100z" />
    <glyph glyph-name="Identity.96" unicode="&#xa2;" horiz-adv-x="555" 
d="M293 158v376c-83 -20 -135 -90 -135 -188c0 -99 51 -169 135 -188zM467 206l41 -57c-44 -40 -99 -66 -158 -70v-116h-57v117c-134 15 -225 109 -225 266c0 155 99 248 225 266v118h57v-115c65 -3 112 -32 147 -66l-45 -57c-29 27 -63 45 -102 47v-386c47 3 86 27 117 53z
" />
    <glyph glyph-name="Identity.97" unicode="&#xa3;" horiz-adv-x="555" 
d="M191 79h315v-79h-446v56c76 41 118 117 118 201c0 21 -3 41 -7 62h-112v58l75 3h20c-14 47 -30 94 -30 142c0 126 83 204 208 204c79 0 133 -35 173 -84l-54 -51c-28 35 -63 59 -113 59c-80 0 -125 -53 -125 -131c0 -48 14 -92 27 -139h179v-61h-165c4 -20 6 -41 6 -63
c0 -79 -23 -127 -69 -173v-4z" />
    <glyph glyph-name="Identity.98" unicode="&#xa5;" horiz-adv-x="555" 
d="M231 0v177h-180v53h180v73h-180v52h157l-182 358h96l87 -192c22 -49 43 -98 67 -151h5c24 53 45 102 68 151l88 192h92l-184 -358h159v-52h-182v-73h182v-53h-182v-177h-91z" />
    <glyph glyph-name="Identity.99" unicode="&#xa7;" 
d="M694 731l-25 -62c-28 19 -87 44 -161 44c-76 0 -124 -45 -124 -87c0 -60 66 -83 155 -107c120 -32 193 -79 193 -170c0 -57 -27 -109 -66 -141c20 -16 42 -54 42 -99c0 -105 -101 -173 -224 -173c-79 0 -144 17 -187 50l28 61c28 -22 82 -49 161 -49c87 0 140 45 140 102
c0 52 -34 81 -157 118c-132 39 -202 82 -202 174c0 39 23 91 77 131c-25 19 -41 59 -40 91c0 91 83 162 214 162c77 0 138 -23 176 -45zM391 492c-34 -28 -49 -59 -49 -88c0 -39 17 -70 136 -109c81 -27 120 -42 140 -54c25 22 39 57 39 90c0 105 -182 115 -266 161z" />
    <glyph glyph-name="Identity.100" unicode="&#xa8;" horiz-adv-x="606" 
d="M196 656c-32 0 -56 25 -56 55c0 32 24 56 56 56s55 -24 55 -56c0 -30 -23 -55 -55 -55zM410 656c-32 0 -55 25 -55 55c0 32 23 56 55 56s55 -24 55 -56c0 -30 -23 -55 -55 -55z" />
    <glyph glyph-name="Identity.101" unicode="&#xa9;" horiz-adv-x="832" 
d="M416 -12c-194 0 -361 145 -361 373c0 227 167 369 361 369s361 -142 361 -369c0 -228 -167 -373 -361 -373zM416 34c168 0 309 132 309 327s-141 323 -309 323c-169 0 -309 -128 -309 -323s140 -327 309 -327zM424 140c-112 0 -202 83 -202 221c0 130 98 211 206 211
c63 0 104 -27 139 -63l-38 -44c-31 29 -58 46 -98 46c-82 0 -136 -62 -136 -150c0 -98 52 -160 133 -160c48 0 81 22 114 50l33 -48c-40 -36 -84 -63 -151 -63z" />
    <glyph glyph-name="Identity.102" unicode="&#xae;" horiz-adv-x="473" 
d="M236 357c-115 0 -210 89 -210 220c0 130 95 220 210 220s210 -90 210 -220c0 -131 -95 -220 -210 -220zM236 397c94 0 166 74 166 180c0 105 -72 180 -166 180s-166 -75 -166 -180c0 -106 72 -180 166 -180zM155 466v227h85c46 0 87 -19 87 -72c0 -27 -17 -53 -42 -62
l52 -93h-51l-40 79h-45v-79h-46zM201 580h29c30 0 48 13 48 38c0 22 -12 37 -46 37h-31v-75z" />
    <glyph glyph-name="Identity.103" unicode="&#xb0;" horiz-adv-x="370" 
d="M185 480c-74 0 -140 56 -140 142c0 87 66 143 140 143c75 0 140 -56 140 -143c0 -86 -65 -142 -140 -142zM185 531c50 0 84 38 84 91c0 54 -34 92 -84 92s-84 -38 -84 -92c0 -53 34 -91 84 -91z" />
    <glyph glyph-name="Identity.104" unicode="&#xb1;" 
d="M863 530v-69h-329v-275h-68v275h-329v69h329v274h68v-274h329zM137 87h730v-69h-730v69z" />
    <glyph glyph-name="Identity.105" unicode="&#xb4;" horiz-adv-x="606" 
d="M287 641l-47 45l158 186l64 -61z" />
    <glyph glyph-name="Identity.106" unicode="&#xb6;" 
d="M477 -57v351h-9c-94 0 -225 69 -226 218c-2 118 63 252 316 252c67 0 106 -3 132 -9v-812h-64v758h-85v-758h-64z" />
    <glyph glyph-name="Identity.107" unicode="&#xd7;" 
d="M822 102l-48 -48l-274 274l-273 -274l-49 48l274 274l-274 273l49 49l273 -274l274 274l48 -48l-273 -274z" />
    <glyph glyph-name="Identity.108" unicode="&#xf7;" 
d="M428 630c0 40 32 73 72 73s72 -33 72 -73c0 -39 -32 -72 -72 -72s-72 33 -72 72zM137 410h726v-69h-726v69zM428 121c0 39 32 72 72 72s72 -33 72 -72c0 -40 -32 -73 -72 -73s-72 33 -72 73z" />
    <glyph glyph-name="Identity.109" unicode="&#x391;" horiz-adv-x="607" 
d="M191 298h222l-35 112c-27 83 -50 163 -74 248h-4c-23 -86 -47 -165 -73 -248zM506 0l-70 224h-268l-71 -224h-94l249 733h103l249 -733h-98z" />
    <glyph glyph-name="Identity.110" unicode="&#x392;" horiz-adv-x="657" 
d="M100 0v733h218c149 0 252 -50 252 -179c0 -73 -39 -137 -108 -159v-5c88 -17 150 -75 150 -175c0 -144 -114 -215 -278 -215h-234zM193 421h109c126 0 177 47 177 121c0 86 -59 118 -173 118h-113v-239zM193 74h128c126 0 200 45 200 144c0 91 -72 132 -200 132h-128
v-276z" />
    <glyph glyph-name="Identity.111" unicode="&#x393;" horiz-adv-x="557" 
d="M100 0v733h423v-78h-330v-655h-93z" />
    <glyph glyph-name="Identity.112" unicode="&#x394;" horiz-adv-x="657" 
d="M33 0v55l243 678h105l242 -678v-55h-590zM133 79h388l-115 335l-76 237h-5l-77 -237z" />
    <glyph glyph-name="Identity.113" unicode="&#x395;" horiz-adv-x="588" 
d="M100 0v733h423v-78h-330v-230h278v-79h-278v-267h341v-79h-434z" />
    <glyph glyph-name="Identity.114" unicode="&#x396;" horiz-adv-x="603" 
d="M50 0v55l387 600h-352v78h466v-54l-387 -600h391v-79h-505z" />
    <glyph glyph-name="Identity.115" unicode="&#x397;" horiz-adv-x="728" 
d="M100 0v733h93v-307h342v307h92v-733h-92v346h-342v-346h-93z" />
    <glyph glyph-name="Identity.116" unicode="&#x398;" horiz-adv-x="742" 
d="M245 346v80h252v-80h-252zM371 -13c-184 0 -313 147 -313 382s129 378 313 378s313 -143 313 -378s-129 -382 -313 -382zM371 68c131 0 218 118 218 301c0 184 -87 297 -218 297c-132 0 -218 -113 -218 -297c0 -183 86 -301 218 -301z" />
    <glyph glyph-name="Identity.117" unicode="&#x399;" horiz-adv-x="293" 
d="M100 0v733h93v-733h-93z" />
    <glyph glyph-name="Identity.118" unicode="&#x39a;" horiz-adv-x="646" 
d="M100 0v733h93v-368h3l306 368h104l-229 -279l265 -454h-104l-219 382l-126 -150v-232h-93z" />
    <glyph glyph-name="Identity.119" unicode="&#x39b;" horiz-adv-x="575" 
d="M1 0l232 733h107l235 -733h-98l-119 398c-26 86 -43 156 -71 241h-4c-27 -85 -46 -155 -70 -241l-119 -398h-93z" />
    <glyph glyph-name="Identity.120" unicode="&#x39c;" horiz-adv-x="812" 
d="M100 0v733h112l141 -392c17 -51 34 -102 52 -153h5c17 51 33 102 50 153l140 392h112v-733h-87v406c0 63 7 152 12 216h-4l-58 -167l-139 -381h-62l-139 381l-58 167h-4c4 -64 11 -153 11 -216v-406h-84z" />
    <glyph glyph-name="Identity.121" unicode="&#x39d;" horiz-adv-x="722" 
d="M100 0v733h96l267 -462l78 -151h5c-5 74 -12 156 -12 232v381h88v-733h-95l-267 463l-79 151h-4c4 -74 11 -152 11 -229v-385h-88z" />
    <glyph glyph-name="Identity.122" unicode="&#x39e;" horiz-adv-x="595" 
d="M55 0v79h486v-79h-486zM139 346v79h318v-79h-318zM66 655v78h463v-78h-463z" />
    <glyph glyph-name="Identity.123" unicode="&#x39f;" horiz-adv-x="742" 
d="M371 -13c-184 0 -313 147 -313 382s129 378 313 378s313 -143 313 -378s-129 -382 -313 -382zM371 68c131 0 218 118 218 301c0 184 -87 297 -218 297c-132 0 -218 -113 -218 -297c0 -183 86 -301 218 -301z" />
    <glyph glyph-name="Identity.124" unicode="&#x3a0;" horiz-adv-x="720" 
d="M100 0v733h520v-733h-92v655h-335v-655h-93z" />
    <glyph glyph-name="Identity.125" unicode="&#x3a1;" horiz-adv-x="632" 
d="M100 0v733h209c165 0 275 -55 275 -215c0 -155 -110 -227 -270 -227h-121v-291h-93zM193 366h109c129 0 190 47 190 152c0 106 -65 140 -194 140h-105v-292z" />
    <glyph glyph-name="Identity.126" unicode="&#x3a3;" horiz-adv-x="601" 
d="M49 0v55l253 317l-248 307v54h473v-78h-356l225 -281l-230 -295h394v-79h-511z" />
    <glyph glyph-name="Identity.127" unicode="&#x3a4;" horiz-adv-x="599" 
d="M253 0v655h-222v78h537v-78h-222v-655h-93z" />
    <glyph glyph-name="Identity.128" unicode="&#x3a5;" horiz-adv-x="531" 
d="M219 0v285l-220 448h99l94 -207c24 -54 46 -105 72 -160h4c26 55 51 106 73 160l95 207h96l-220 -448v-285h-93z" />
    <glyph glyph-name="Identity.129" unicode="&#x3a6;" horiz-adv-x="803" 
d="M443 583v-430c133 7 216 92 216 216c0 125 -83 206 -216 214zM360 153v430c-133 -8 -217 -89 -217 -214c0 -124 84 -209 217 -216zM443 758v-104c185 -8 307 -111 307 -285c0 -173 -122 -280 -307 -288v-105h-83v105c-185 8 -306 115 -306 288c0 174 121 277 306 285v104
h83z" />
    <glyph glyph-name="Identity.130" unicode="&#x3a7;" horiz-adv-x="573" 
d="M17 0l214 379l-200 354h102l100 -187c19 -34 34 -65 58 -107h4c20 42 34 73 52 107l98 187h97l-200 -359l214 -374h-102l-108 198c-19 36 -39 74 -63 118h-4c-21 -44 -40 -82 -59 -118l-106 -198h-97z" />
    <glyph glyph-name="Identity.131" unicode="&#x3a8;" horiz-adv-x="780" 
d="M618 733h91v-180c0 -187 -103 -272 -275 -279v-274h-88v274c-172 7 -275 92 -275 279v180h90v-175c0 -141 63 -204 185 -210v385h88v-385c122 6 184 69 184 210v175z" />
    <glyph glyph-name="Identity.132" unicode="&#x3a9;" horiz-adv-x="758" 
d="M51 0v76h146v4c-63 62 -131 164 -131 313c0 205 123 354 313 354s313 -149 313 -354c0 -149 -68 -251 -131 -313v-4h146v-76h-260v67c84 66 150 165 150 320c0 159 -81 279 -218 279s-218 -120 -218 -279c0 -155 65 -254 150 -320v-67h-260z" />
    <glyph glyph-name="Identity.133" unicode="&#x3b1;" horiz-adv-x="625" 
d="M261 -13c-124 0 -210 97 -210 275c0 186 113 295 238 295c68 0 137 -39 168 -143h3l23 129h90c-29 -143 -68 -325 -68 -424c0 -37 24 -56 54 -56c12 0 26 3 37 7l14 -69c-16 -7 -38 -14 -70 -14c-65 0 -108 34 -107 110h-4c-41 -73 -98 -110 -168 -110zM279 63
c72 0 141 77 149 169l8 103c-30 118 -86 145 -137 145c-78 0 -153 -74 -153 -217c0 -127 49 -200 133 -200z" />
    <glyph glyph-name="Identity.134" unicode="&#x3b2;" horiz-adv-x="631" 
d="M89 -199v748c0 149 71 260 223 260c105 0 204 -62 204 -192c0 -81 -40 -144 -109 -186v-5c108 -15 175 -96 175 -210c0 -147 -103 -229 -213 -229c-68 0 -139 21 -194 83c3 -92 4 -178 6 -269h-92zM348 63c79 0 143 59 143 158c0 87 -50 153 -153 153
c-19 0 -38 -3 -56 -7l-14 70c115 23 159 101 159 173c0 84 -53 126 -114 126c-84 0 -134 -70 -135 -200c-2 -129 -3 -257 -3 -388c53 -67 116 -85 173 -85z" />
    <glyph glyph-name="Identity.135" unicode="&#x3b3;" horiz-adv-x="540" 
d="M220 -199c4 49 4 74 4 134c0 181 -108 454 -217 598l91 24c68 -95 148 -280 180 -450h5c70 137 131 285 143 436h92c-29 -183 -82 -320 -216 -538c9 -65 12 -142 12 -204h-94z" />
    <glyph glyph-name="Identity.136" unicode="&#x3b4;" horiz-adv-x="594" 
d="M303 63c98 0 147 71 147 181c0 90 -53 147 -119 198c-115 -27 -184 -101 -184 -206c0 -107 74 -173 156 -173zM529 765l-23 -72c-93 33 -159 46 -212 46c-63 0 -90 -27 -90 -57c0 -59 75 -103 163 -168c93 -67 173 -139 173 -269c0 -154 -88 -258 -239 -258
c-124 0 -243 92 -243 247c0 131 92 217 210 254c-78 55 -151 115 -151 199c0 65 55 122 179 122c67 0 143 -14 233 -44z" />
    <glyph glyph-name="Identity.137" unicode="&#x3b5;" horiz-adv-x="501" 
d="M281 -13c-134 0 -230 62 -230 163c0 77 52 119 113 135v5c-56 20 -86 70 -86 121c0 98 96 146 207 146c66 0 125 -23 176 -60l-37 -61c-42 31 -86 48 -136 48c-67 0 -119 -29 -119 -85c0 -49 37 -84 125 -84c21 0 41 1 67 3v-71c-31 2 -57 3 -84 3
c-89 0 -134 -33 -134 -93s54 -97 147 -97c53 0 98 14 149 55l39 -61c-65 -50 -122 -67 -197 -67z" />
    <glyph glyph-name="Identity.138" unicode="&#x3b6;" horiz-adv-x="473" 
d="M402 -206l-73 30c39 49 54 69 54 99c0 33 -22 47 -125 68c-109 22 -204 79 -204 257c0 168 164 376 301 480c-63 -1 -195 -2 -267 -6v74h368v-74h-5c-138 -98 -303 -317 -303 -469c0 -129 63 -171 163 -189c105 -20 154 -46 154 -120c0 -33 -19 -88 -63 -150z" />
    <glyph glyph-name="Identity.139" unicode="&#x3b7;" horiz-adv-x="604" 
d="M428 -199c4 177 6 374 6 531c0 102 -25 145 -89 145c-60 0 -101 -30 -162 -122v-355h-91v394c0 44 -1 92 -8 149h83l8 -114h3c56 86 114 128 194 128c104 0 148 -74 148 -213v-543h-92z" />
    <glyph glyph-name="Identity.140" unicode="&#x3b8;" horiz-adv-x="583" 
d="M427 370h-271c5 -229 60 -307 136 -307c75 0 130 78 135 307zM156 435h271c-6 212 -61 299 -135 299c-75 0 -130 -87 -136 -299zM292 809c139 0 225 -142 225 -408c0 -287 -86 -414 -225 -414c-140 0 -225 127 -225 414c0 267 85 408 225 408z" />
    <glyph glyph-name="Identity.141" unicode="&#x3b9;" horiz-adv-x="292" 
d="M195 -13c-75 0 -103 45 -103 126v430h92c-2 -147 -7 -306 -7 -437c0 -31 15 -43 38 -43c10 0 21 2 33 6l13 -69c-16 -8 -35 -13 -66 -13z" />
    <glyph glyph-name="Identity.142" unicode="&#x3ba;" horiz-adv-x="551" 
d="M555 0l-101 -9c-58 67 -130 176 -181 276c-17 -21 -34 -43 -51 -67c-33 -44 -44 -101 -45 -172v-28h-85v394c0 44 -1 101 -10 149h90c7 -29 10 -79 10 -127v-170h4c86 149 207 282 324 311l8 -87c-60 -19 -122 -65 -189 -138c54 -107 143 -243 226 -332z" />
    <glyph glyph-name="Identity.143" unicode="&#x3bb;" horiz-adv-x="552" 
d="M115 -9l-97 9l236 556l-6 22c-31 101 -68 154 -130 154c-30 0 -50 -8 -70 -18l-23 76c26 11 55 19 103 19c108 0 161 -79 210 -235l206 -574h-97l-150 451h-4z" />
    <glyph glyph-name="Identity.144" unicode="&#x3bc;" horiz-adv-x="628" 
d="M92 -199v742h91v-333c0 -95 29 -144 100 -144c49 0 93 16 144 105v372h92c-2 -147 -6 -306 -6 -437c0 -31 16 -43 40 -43c9 0 19 2 32 6l12 -69c-16 -8 -35 -13 -64 -13c-62 0 -91 32 -98 105h-2c-40 -70 -93 -103 -152 -103c-43 0 -79 9 -105 52c1 -107 2 -155 8 -240
h-92z" />
    <glyph glyph-name="Identity.145" unicode="&#x3bd;" horiz-adv-x="528" 
d="M216 0c-40 199 -116 395 -209 533l91 24c75 -117 145 -317 176 -464h5c66 140 123 304 136 450h92c-29 -189 -91 -352 -201 -543h-90z" />
    <glyph glyph-name="Identity.146" unicode="&#x3be;" horiz-adv-x="481" 
d="M410 -206l-73 30c39 49 54 69 54 99c0 33 -25 48 -125 68c-115 23 -212 73 -212 216c0 107 78 191 168 217v4c-66 28 -114 83 -114 162c0 62 31 111 81 138c-59 -1 -90 -2 -157 -6v74h432v-74h-127c-72 0 -136 -49 -136 -134c0 -80 73 -138 138 -138c29 0 44 1 73 7v-77
c-29 5 -50 6 -78 6c-93 0 -185 -61 -185 -167c0 -108 74 -137 174 -155c108 -20 150 -46 150 -120c0 -33 -19 -88 -63 -150z" />
    <glyph glyph-name="Identity.147" unicode="&#x3bf;" horiz-adv-x="597" 
d="M299 -13c-136 0 -248 103 -248 284c0 182 112 286 248 286s247 -104 247 -286c0 -181 -111 -284 -247 -284zM299 63c97 0 153 81 153 208c0 126 -56 210 -153 210s-153 -84 -153 -210c0 -127 56 -208 153 -208z" />
    <glyph glyph-name="Identity.148" unicode="&#x3c0;" horiz-adv-x="654" 
d="M541 -13c-84 0 -118 47 -118 135c0 57 5 226 6 346h-193c0 -153 -17 -322 -32 -473l-92 5c24 153 38 321 38 468h-125v70l78 5h524v-75h-110c-7 -124 -8 -299 -8 -352c0 -38 17 -53 51 -53c10 0 23 2 44 5l12 -69c-19 -7 -43 -12 -75 -12z" />
    <glyph glyph-name="Identity.149" unicode="&#x3c1;" horiz-adv-x="613" 
d="M87 -199v477c0 187 108 279 240 279c151 0 234 -106 234 -277c0 -186 -110 -293 -224 -293c-59 0 -114 19 -164 77c3 -98 5 -167 6 -263h-92zM321 63c81 0 146 81 146 216c0 120 -43 201 -144 201c-80 0 -149 -67 -149 -204v-139c51 -61 100 -74 147 -74z" />
    <glyph glyph-name="Identity.150" unicode="&#x3c3;" horiz-adv-x="610" 
d="M295 -13c-131 0 -244 99 -244 278c0 191 120 278 248 278h297v-78c-61 5 -111 8 -171 9v-4c67 -38 107 -113 107 -216c0 -169 -104 -267 -237 -267zM296 63c86 0 147 76 147 198c0 109 -52 206 -146 206c-86 0 -151 -65 -151 -202c0 -124 63 -202 150 -202z" />
    <glyph glyph-name="Identity.151" unicode="&#x3c4;" horiz-adv-x="513" 
d="M322 -13c-82 0 -111 47 -111 135v347h-182v69l78 5h378v-74h-185c-3 -123 -3 -243 -3 -353c0 -38 15 -53 45 -53c18 0 35 3 53 8l14 -70c-22 -7 -53 -14 -87 -14z" />
    <glyph glyph-name="Identity.152" unicode="&#x3c5;" horiz-adv-x="569" 
d="M278 -13c-129 0 -206 71 -206 215c0 64 4 128 4 192c0 44 0 92 -9 149h89c7 -38 8 -79 8 -127c0 -61 -7 -153 -7 -220c0 -97 57 -133 122 -133c79 0 137 64 137 205c0 83 -10 168 -45 267l89 22c32 -95 48 -189 48 -286c0 -184 -94 -284 -230 -284z" />
    <glyph glyph-name="Identity.153" unicode="&#x3c6;" horiz-adv-x="759" 
d="M422 483v-423c105 4 192 82 192 212s-80 207 -192 211zM337 60v423c-106 -4 -191 -82 -191 -211s85 -208 191 -212zM422 695v-141c152 -6 286 -105 286 -282s-138 -277 -286 -282v-189h-85v189c-148 5 -286 106 -286 282s138 276 286 282v141h85z" />
    <glyph glyph-name="Identity.154" unicode="&#x3c7;" horiz-adv-x="537" 
d="M103 -213l-93 14l216 382l-212 350l90 24l165 -292h4l141 278h96l-193 -359l228 -374l-89 -23l-183 320h-4z" />
    <glyph glyph-name="Identity.155" unicode="&#x3c8;" horiz-adv-x="769" 
d="M569 535l89 22c33 -92 48 -166 48 -260c0 -195 -105 -306 -282 -310v-186h-84v186c-183 2 -264 108 -264 262v145c0 44 -1 92 -8 149h89c6 -38 7 -79 7 -127c0 -59 -2 -138 -2 -173c0 -108 57 -180 178 -182v634h84v-634c121 4 190 77 190 234c0 81 -11 144 -45 240z" />
    <glyph glyph-name="Identity.156" unicode="&#x3c9;" horiz-adv-x="782" 
d="M246 -13c-108 0 -189 89 -189 269c0 115 44 216 101 301l82 -38c-61 -88 -96 -166 -96 -280c0 -113 45 -176 106 -176c52 0 99 34 99 135c0 45 -3 88 -10 146h101c-6 -58 -9 -101 -9 -146c0 -104 45 -135 97 -135c61 0 105 61 105 191c0 111 -26 176 -88 268l83 35
c58 -87 97 -172 97 -298c0 -182 -73 -272 -185 -272c-62 0 -120 30 -148 98h-4c-27 -68 -81 -98 -142 -98z" />
    <glyph glyph-name="Identity.157" unicode="&#x401;" horiz-adv-x="588" 
d="M100 0v733h423v-78h-330v-230h278v-79h-278v-267h341v-79h-434zM203 800c-31 0 -54 22 -54 54s23 54 54 54s55 -22 55 -54s-24 -54 -55 -54zM433 800c-32 0 -55 22 -55 54s23 54 55 54c31 0 54 -22 54 -54s-23 -54 -54 -54z" />
    <glyph glyph-name="Identity.158" unicode="&#x410;" horiz-adv-x="607" 
d="M191 298h222l-35 112c-27 83 -50 163 -74 248h-4c-23 -86 -47 -165 -73 -248zM506 0l-70 224h-268l-71 -224h-94l249 733h103l249 -733h-98z" />
    <glyph glyph-name="Identity.159" unicode="&#x411;" horiz-adv-x="648" 
d="M100 0v733h453v-78h-360v-230h141c156 0 268 -56 268 -203c0 -152 -103 -222 -264 -222h-238zM193 74h130c125 0 188 45 188 146c0 95 -66 134 -191 134h-127v-280z" />
    <glyph glyph-name="Identity.160" unicode="&#x412;" horiz-adv-x="657" 
d="M100 0v733h218c149 0 252 -50 252 -179c0 -73 -39 -137 -108 -159v-5c88 -17 150 -75 150 -175c0 -144 -114 -215 -278 -215h-234zM193 421h109c126 0 177 47 177 121c0 86 -59 118 -173 118h-113v-239zM193 74h128c126 0 200 45 200 144c0 91 -72 132 -200 132h-128
v-276z" />
    <glyph glyph-name="Identity.161" unicode="&#x413;" horiz-adv-x="557" 
d="M100 0v733h423v-78h-330v-655h-93z" />
    <glyph glyph-name="Identity.162" unicode="&#x414;" horiz-adv-x="712" 
d="M510 655h-207c-22 -125 -32 -204 -54 -328c-24 -124 -50 -202 -82 -248h343v576zM602 79h82v-56l-11 -233h-81v210h-472v-210h-81l-10 233v56h34c30 12 65 69 102 263c27 146 41 234 66 391h371v-654z" />
    <glyph glyph-name="Identity.163" unicode="&#x415;" horiz-adv-x="588" 
d="M100 0v733h423v-78h-330v-230h278v-79h-278v-267h341v-79h-434z" />
    <glyph glyph-name="Identity.164" unicode="&#x416;" horiz-adv-x="898" 
d="M668 391l223 -391h-101l-191 348h-106v-348h-88v348h-105l-191 -348h-102l224 391l-78 174c-38 82 -64 93 -96 93c-7 0 -18 -1 -27 -5l-15 87c10 5 26 7 40 7c66 0 111 -25 165 -136l85 -187h100v309h88v-309h100l86 187c54 111 99 136 165 136c14 0 29 -2 40 -7l-16 -87
c-8 4 -19 5 -26 5c-33 0 -58 -11 -96 -93z" />
    <glyph glyph-name="Identity.165" unicode="&#x417;" horiz-adv-x="619" 
d="M310 -13c-105 0 -189 32 -263 106l52 64c65 -65 125 -89 211 -89c95 0 173 51 173 144c0 95 -73 138 -198 138h-83v71h60c130 0 183 45 183 127c0 77 -61 118 -144 118c-67 0 -127 -27 -172 -69l-49 62c52 52 134 88 223 88c138 0 233 -70 233 -187
c0 -78 -39 -141 -109 -166v-5c85 -17 147 -81 147 -181c0 -141 -117 -221 -264 -221z" />
    <glyph glyph-name="Identity.166" unicode="&#x418;" horiz-adv-x="733" 
d="M100 0v733h92v-381c0 -76 -7 -158 -12 -232h5l79 149l271 464h98v-733h-92v385c0 77 7 155 12 229h-5l-79 -149l-271 -465h-98z" />
    <glyph glyph-name="Identity.167" unicode="&#x419;" horiz-adv-x="733" 
d="M100 0v733h92v-381c0 -76 -7 -158 -12 -232h5l79 149l271 464h98v-733h-92v385c0 77 7 155 12 229h-5l-79 -149l-271 -465h-98zM371 793c-124 0 -164 71 -169 146h80c3 -52 26 -95 89 -95s87 43 89 95h79c-5 -75 -44 -146 -168 -146z" />
    <glyph glyph-name="Identity.168" unicode="&#x41a;" horiz-adv-x="648" 
d="M394 391l251 -391h-100l-226 348h-126v-348h-93v733h93v-309h127l103 187c60 110 99 136 164 136c14 0 30 -2 41 -7l-16 -87c-9 4 -19 5 -26 5c-33 0 -53 -13 -97 -93z" />
    <glyph glyph-name="Identity.169" unicode="&#x41b;" horiz-adv-x="704" 
d="M63 -13c-24 0 -43 2 -63 10l19 85c11 -5 20 -7 32 -7c38 0 67 24 102 197c30 153 55 300 84 461h366v-733h-92v655h-201c-25 -134 -46 -262 -70 -393c-42 -224 -90 -275 -177 -275z" />
    <glyph glyph-name="Identity.170" unicode="&#x41c;" horiz-adv-x="812" 
d="M100 0v733h112l141 -392c17 -51 34 -102 52 -153h5c17 51 33 102 50 153l140 392h112v-733h-87v406c0 63 7 152 12 216h-4l-58 -167l-139 -381h-62l-139 381l-58 167h-4c4 -64 11 -153 11 -216v-406h-84z" />
    <glyph glyph-name="Identity.171" unicode="&#x41d;" horiz-adv-x="728" 
d="M100 0v733h93v-307h342v307h92v-733h-92v346h-342v-346h-93z" />
    <glyph glyph-name="Identity.172" unicode="&#x41e;" horiz-adv-x="742" 
d="M371 -13c-184 0 -313 147 -313 382s129 378 313 378s313 -143 313 -378s-129 -382 -313 -382zM371 68c131 0 218 118 218 301c0 184 -87 297 -218 297c-132 0 -218 -113 -218 -297c0 -183 86 -301 218 -301z" />
    <glyph glyph-name="Identity.173" unicode="&#x41f;" horiz-adv-x="720" 
d="M100 0v733h520v-733h-92v655h-335v-655h-93z" />
    <glyph glyph-name="Identity.174" unicode="&#x420;" horiz-adv-x="632" 
d="M100 0v733h209c165 0 275 -55 275 -215c0 -155 -110 -227 -270 -227h-121v-291h-93zM193 366h109c129 0 190 47 190 152c0 106 -65 140 -194 140h-105v-292z" />
    <glyph glyph-name="Identity.175" unicode="&#x421;" horiz-adv-x="638" 
d="M377 -13c-182 0 -319 141 -319 379c0 237 139 381 325 381c89 0 159 -44 201 -91l-50 -60c-38 41 -87 70 -150 70c-139 0 -231 -114 -231 -297c0 -185 88 -301 228 -301c70 0 123 31 170 82l51 -58c-58 -67 -130 -105 -225 -105z" />
    <glyph glyph-name="Identity.176" unicode="&#x422;" horiz-adv-x="599" 
d="M253 0v655h-222v78h537v-78h-222v-655h-93z" />
    <glyph glyph-name="Identity.177" unicode="&#x423;" horiz-adv-x="574" 
d="M151 -13c-32 0 -51 3 -72 11l20 83c12 -5 24 -8 46 -8c48 0 75 18 95 60l16 39l-250 561h97l138 -327l56 -144h4l52 144l126 327h95l-241 -600c-37 -91 -89 -146 -182 -146z" />
    <glyph glyph-name="Identity.178" unicode="&#x424;" horiz-adv-x="817" 
d="M449 571v-408c146 4 227 79 227 206s-81 198 -227 202zM368 163v408c-147 -4 -227 -76 -227 -202s80 -202 227 -206zM449 747v-105c198 -6 317 -100 317 -273c0 -172 -119 -271 -317 -277v-105h-81v105c-198 6 -316 105 -316 277c0 173 118 267 316 273v105h81z" />
    <glyph glyph-name="Identity.179" unicode="&#x425;" horiz-adv-x="573" 
d="M17 0l214 379l-200 354h102l100 -187c19 -34 34 -65 58 -107h4c20 42 34 73 52 107l98 187h97l-200 -359l214 -374h-102l-108 198c-19 36 -39 74 -63 118h-4c-21 -44 -40 -82 -59 -118l-106 -198h-97z" />
    <glyph glyph-name="Identity.180" unicode="&#x426;" horiz-adv-x="717" 
d="M607 79h81v-56l-9 -233h-82v210h-497v733h93v-654h321v654h93v-654z" />
    <glyph glyph-name="Identity.181" unicode="&#x427;" horiz-adv-x="667" 
d="M475 0v329c-36 -6 -76 -11 -134 -11c-165 0 -266 62 -266 238v177h90v-177c0 -123 66 -162 185 -162c54 0 95 5 125 11v328h92v-733h-92z" />
    <glyph glyph-name="Identity.182" unicode="&#x428;" horiz-adv-x="966" 
d="M100 0v733h91v-654h247v654h90v-654h247v654h90v-733h-765z" />
    <glyph glyph-name="Identity.183" unicode="&#x429;" horiz-adv-x="976" 
d="M865 79h82v-56l-10 -233h-81v210h-756v733h91v-654h247v654h90v-654h247v654h90v-654z" />
    <glyph glyph-name="Identity.184" unicode="&#x42a;" horiz-adv-x="804" 
d="M267 0v655h-236v78h328v-300h121c157 0 275 -64 275 -208c0 -156 -105 -225 -268 -225h-220zM359 75h117c124 0 188 45 188 148c0 90 -68 135 -196 135h-109v-283z" />
    <glyph glyph-name="Identity.185" unicode="&#x42b;" horiz-adv-x="891" 
d="M100 0v733h93v-300h114c161 0 271 -61 271 -208c0 -156 -106 -225 -270 -225h-208zM193 75h104c124 0 190 45 190 148c0 93 -65 135 -193 135h-101v-283zM698 0v733h92v-733h-92z" />
    <glyph glyph-name="Identity.186" unicode="&#x42c;" horiz-adv-x="648" 
d="M100 0v733h93v-300h135c161 0 270 -61 270 -208c0 -156 -105 -225 -269 -225h-229zM193 75h124c125 0 191 45 191 148c0 93 -65 135 -193 135h-122v-283z" />
    <glyph glyph-name="Identity.187" unicode="&#x42d;" horiz-adv-x="638" 
d="M104 596l-51 60c46 47 128 91 219 91c184 0 308 -132 308 -381c0 -248 -130 -379 -308 -379c-100 0 -175 38 -236 105l50 58c50 -51 107 -82 183 -82c130 0 211 94 218 278h-308v79h307c-14 156 -91 241 -218 241c-64 0 -122 -28 -164 -70z" />
    <glyph glyph-name="Identity.188" unicode="&#x42e;" horiz-adv-x="1014" 
d="M655 68c127 0 206 118 206 301c0 184 -79 297 -206 297s-206 -113 -206 -297c0 -183 79 -301 206 -301zM193 426h166c18 201 131 321 296 321c179 0 301 -143 301 -378s-122 -382 -301 -382c-174 0 -290 137 -298 359h-164v-346h-93v733h93v-307z" />
    <glyph glyph-name="Identity.189" unicode="&#x42f;" horiz-adv-x="649" 
d="M457 386v272h-124c-114 0 -177 -34 -177 -131c0 -95 63 -141 177 -141h124zM320 733h229v-733h-92v311h-135l-191 -311h-106l205 321c-97 23 -166 89 -166 206c0 153 107 206 256 206z" />
    <glyph glyph-name="Identity.190" unicode="&#x430;" horiz-adv-x="564" 
d="M217 -13c-91 0 -159 56 -159 154c0 118 103 177 334 203c0 70 -23 137 -112 137c-63 0 -120 -29 -163 -58l-36 63c50 32 127 71 214 71c132 0 188 -89 188 -223v-334h-75l-8 65h-3c-52 -43 -113 -78 -180 -78zM243 60c53 0 96 25 149 72v152c-183 -22 -245 -67 -245 -137
c0 -62 42 -87 96 -87z" />
    <glyph glyph-name="Identity.191" unicode="&#x431;" horiz-adv-x="608" 
d="M315 63c84 0 144 83 144 206c0 112 -51 184 -146 184c-53 0 -109 -25 -166 -99v-42c0 -158 57 -249 168 -249zM512 816l19 -83c-29 -19 -67 -28 -112 -35c-175 -26 -251 -41 -268 -267c48 61 116 93 185 93c129 0 218 -96 218 -255c0 -173 -107 -282 -238 -282
c-163 0 -256 123 -256 342c0 368 132 425 340 456c61 9 79 15 112 31z" />
    <glyph glyph-name="Identity.192" unicode="&#x432;" horiz-adv-x="567" 
d="M92 0v543h209c119 0 200 -39 200 -138c0 -60 -35 -99 -91 -115v-5c61 -14 114 -52 114 -129c0 -109 -89 -156 -215 -156h-217zM182 315h103c91 0 126 31 126 82s-36 81 -120 81h-109v-163zM182 65h117c91 0 135 35 135 96c0 55 -48 89 -141 89h-111v-185z" />
    <glyph glyph-name="Identity.193" unicode="&#x433;" horiz-adv-x="459" 
d="M92 0v543h338v-74h-247v-469h-91z" />
    <glyph glyph-name="Identity.194" unicode="&#x434;" horiz-adv-x="594" 
d="M225 469l-20 -184c-12 -108 -34 -172 -60 -211h254v395h-174zM491 74h78v-57l-9 -209h-79v192h-371v-192h-79l-9 209v57h26c31 16 55 53 76 228l29 241h338v-469z" />
    <glyph glyph-name="Identity.195" unicode="&#x435;" horiz-adv-x="554" 
d="M311 -13c-144 0 -260 105 -260 284c0 176 119 286 245 286c138 0 216 -100 216 -255c0 -20 -2 -39 -4 -52h-366c6 -116 77 -190 180 -190c53 0 96 16 136 43l33 -60c-48 -31 -106 -56 -180 -56zM141 315h291c0 110 -50 169 -135 169c-77 0 -145 -62 -156 -169z" />
    <glyph glyph-name="Identity.196" unicode="&#x436;" horiz-adv-x="760" 
d="M574 286l171 -286h-99l-136 245h-89v-245h-82v245h-89l-137 -245h-98l170 286l-43 107c-26 64 -50 75 -79 75c-7 0 -10 -1 -17 -3l-17 86c9 3 21 6 32 6c59 0 104 -26 143 -117l51 -121h84v224h82v-224h83l52 121c38 91 84 117 142 117c11 0 24 -3 32 -6l-16 -86
c-7 2 -10 3 -18 3c-28 0 -53 -11 -78 -75z" />
    <glyph glyph-name="Identity.197" unicode="&#x437;" horiz-adv-x="510" 
d="M247 -13c-76 0 -142 17 -206 69l39 59c51 -42 104 -55 159 -55c75 0 135 37 135 97c0 62 -50 93 -139 93h-75v65h62c87 0 131 33 131 86c0 56 -47 83 -113 83c-63 0 -104 -17 -148 -48l-38 60c52 37 112 61 191 61c105 0 197 -48 197 -146c0 -53 -33 -99 -90 -121v-5
c64 -16 114 -58 114 -135c0 -101 -103 -163 -219 -163z" />
    <glyph glyph-name="Identity.198" unicode="&#x438;" horiz-adv-x="631" 
d="M92 0v543h89v-227c0 -57 -6 -130 -9 -200h4c21 33 52 83 72 116l206 311h85v-543h-89v227c0 57 5 130 9 201h-4c-21 -34 -52 -84 -72 -117l-206 -311h-85z" />
    <glyph glyph-name="Identity.199" unicode="&#x439;" horiz-adv-x="631" 
d="M92 0v543h89v-227c0 -57 -6 -130 -9 -200h4c21 33 52 83 72 116l206 311h85v-543h-89v227c0 57 5 130 9 201h-4c-21 -34 -52 -84 -72 -117l-206 -311h-85zM319 641c-125 0 -170 84 -175 170h74c3 -63 26 -117 101 -117c74 0 97 54 99 117h75c-4 -86 -49 -170 -174 -170z
" />
    <glyph glyph-name="Identity.200" unicode="&#x43a;" horiz-adv-x="556" 
d="M357 286l185 -286h-100l-152 245h-107v-245h-91v543h91v-224h105l54 121c42 96 83 117 142 117c12 0 24 -3 32 -6l-16 -86c-6 2 -10 3 -18 3c-29 0 -51 -10 -79 -75z" />
    <glyph glyph-name="Identity.201" unicode="&#x43b;" horiz-adv-x="592" 
d="M61 -13c-20 0 -34 3 -50 8l18 84c7 -2 14 -4 24 -4c38 0 64 35 73 116c15 117 28 234 42 352h333v-543h-92v469h-169c-12 -100 -23 -201 -37 -301c-15 -121 -63 -181 -142 -181z" />
    <glyph glyph-name="Identity.202" unicode="&#x43c;" horiz-adv-x="707" 
d="M92 0v543h105l107 -255c16 -46 33 -89 48 -133h5c17 44 35 87 50 133l104 255h105v-543h-83v245c0 48 6 131 10 187h-4c-16 -43 -35 -88 -51 -128l-103 -253h-61l-105 253c-17 40 -35 86 -50 128h-5c3 -56 10 -139 10 -187v-245h-82z" />
    <glyph glyph-name="Identity.203" unicode="&#x43d;" horiz-adv-x="628" 
d="M92 0v543h91v-220h262v220h91v-543h-91v242h-262v-242h-91z" />
    <glyph glyph-name="Identity.204" unicode="&#x43e;" horiz-adv-x="606" 
d="M303 -13c-133 0 -252 104 -252 284c0 181 119 286 252 286s252 -105 252 -286c0 -180 -119 -284 -252 -284zM303 63c94 0 158 83 158 208s-64 210 -158 210s-157 -85 -157 -210s63 -208 157 -208z" />
    <glyph glyph-name="Identity.205" unicode="&#x43f;" horiz-adv-x="618" 
d="M92 0v543h434v-543h-91v469h-252v-469h-91z" />
    <glyph glyph-name="Identity.206" unicode="&#x440;" horiz-adv-x="620" 
d="M92 -229v772h75l8 -62h3c49 40 110 76 173 76c140 0 216 -110 216 -277c0 -186 -111 -293 -236 -293c-49 0 -101 23 -150 63l2 -95v-184h-91zM316 63c90 0 156 81 156 216c0 120 -40 201 -143 201c-46 0 -93 -26 -146 -75v-285c49 -42 97 -57 133 -57z" />
    <glyph glyph-name="Identity.207" unicode="&#x441;" horiz-adv-x="509" 
d="M306 -13c-144 0 -255 104 -255 284c0 181 123 286 262 286c71 0 120 -30 159 -64l-47 -61c-32 29 -65 49 -109 49c-98 0 -170 -85 -170 -210s68 -208 168 -208c50 0 94 23 128 54l39 -61c-48 -44 -110 -69 -175 -69z" />
    <glyph glyph-name="Identity.208" unicode="&#x442;" horiz-adv-x="513" 
d="M211 0v469h-182v74h456v-74h-183v-469h-91z" />
    <glyph glyph-name="Identity.209" unicode="&#x443;" horiz-adv-x="521" 
d="M101 -234c-26 0 -47 4 -64 11l18 73c11 -4 27 -9 41 -9c62 0 101 50 123 117l12 41l-218 544h95l111 -302c16 -47 35 -103 52 -152h5c15 49 31 104 46 152l97 302h89l-205 -588c-38 -107 -94 -189 -202 -189z" />
    <glyph glyph-name="Identity.210" unicode="&#x444;" horiz-adv-x="820" 
d="M365 -229v175l2 81c-30 -22 -66 -40 -109 -40c-124 0 -205 103 -205 284c0 176 95 286 205 286c43 0 77 -18 109 -39l-2 79v199h89v-199l-2 -82c35 24 77 42 117 42c128 0 197 -110 197 -277c0 -186 -95 -293 -206 -293c-35 0 -73 14 -108 39l2 -80v-175h-89zM278 63
c32 0 59 10 89 39v341c-30 27 -61 37 -93 37c-72 0 -127 -84 -127 -208c0 -131 48 -209 131 -209zM544 63c76 0 129 81 129 216c0 120 -37 201 -126 201c-30 0 -61 -9 -95 -38v-342c33 -29 67 -37 92 -37z" />
    <glyph glyph-name="Identity.211" unicode="&#x445;" horiz-adv-x="498" 
d="M15 0l179 283l-165 260h98l73 -120c17 -30 36 -60 54 -90h4c17 30 33 60 49 90l67 120h95l-165 -269l179 -274h-100l-80 127c-18 33 -38 66 -58 97h-5c-19 -31 -37 -64 -56 -97l-73 -127h-96z" />
    <glyph glyph-name="Identity.212" unicode="&#x446;" horiz-adv-x="619" 
d="M518 74h79v-57l-9 -209h-78v192h-418v543h91v-469h244v469h91v-469z" />
    <glyph glyph-name="Identity.213" unicode="&#x447;" horiz-adv-x="572" 
d="M389 0v217c-38 -8 -58 -12 -107 -12c-136 0 -215 55 -215 189v149h90v-149c0 -81 44 -114 144 -114c32 0 57 3 88 10v253h91v-543h-91z" />
    <glyph glyph-name="Identity.214" unicode="&#x448;" horiz-adv-x="837" 
d="M92 0v543h90v-469h192v469h88v-469h193v469h90v-543h-653z" />
    <glyph glyph-name="Identity.215" unicode="&#x449;" horiz-adv-x="845" 
d="M745 74h78v-57l-9 -209h-78v192h-644v543h90v-469h192v469h88v-469h193v469h90v-469z" />
    <glyph glyph-name="Identity.216" unicode="&#x44a;" horiz-adv-x="665" 
d="M221 0v469h-192v74h284v-201h90c129 0 216 -51 216 -169c0 -120 -87 -173 -216 -173h-182zM313 73h81c92 0 136 31 136 100s-44 99 -136 99h-81v-199z" />
    <glyph glyph-name="Identity.217" unicode="&#x44b;" horiz-adv-x="753" 
d="M92 0v543h91v-201h77c129 0 216 -51 216 -169c0 -120 -87 -173 -216 -173h-168zM183 73h67c92 0 136 31 136 100s-44 99 -136 99h-67v-199zM570 0v543h91v-543h-91z" />
    <glyph glyph-name="Identity.218" unicode="&#x44c;" horiz-adv-x="548" 
d="M92 0v543h91v-201h103c129 0 215 -51 215 -169c0 -120 -86 -173 -215 -173h-194zM183 73h93c92 0 136 31 136 100s-44 99 -136 99h-93v-199z" />
    <glyph glyph-name="Identity.219" unicode="&#x44d;" horiz-adv-x="509" 
d="M81 436l-43 55c37 35 92 66 172 66c135 0 247 -92 247 -286c0 -190 -107 -284 -253 -284c-69 0 -132 25 -177 69l37 56c34 -31 79 -52 132 -52c101 0 167 62 173 190h-239v65h238c-13 113 -77 169 -163 169c-54 0 -92 -20 -124 -48z" />
    <glyph glyph-name="Identity.220" unicode="&#x44e;" horiz-adv-x="824" 
d="M534 63c89 0 145 83 145 208s-56 210 -145 210s-149 -85 -149 -210s60 -208 149 -208zM183 319h119c16 151 113 238 236 238c130 0 235 -105 235 -286c0 -180 -105 -284 -235 -284c-128 0 -226 93 -238 252h-117v-239h-91v543h91v-224z" />
    <glyph glyph-name="Identity.221" unicode="&#x44f;" horiz-adv-x="574" 
d="M391 281v191h-85c-86 0 -137 -27 -137 -92c0 -64 51 -99 137 -99h85zM291 543h191v-543h-91v215h-102l-150 -215h-103l166 227c-70 21 -124 70 -124 155c0 120 91 161 213 161z" />
    <glyph glyph-name="Identity.222" unicode="&#x451;" horiz-adv-x="554" 
d="M311 -13c-144 0 -260 105 -260 284c0 176 119 286 245 286c138 0 216 -100 216 -255c0 -20 -2 -39 -4 -52h-366c6 -116 77 -190 180 -190c53 0 96 16 136 43l33 -60c-48 -31 -106 -56 -180 -56zM141 315h291c0 110 -50 169 -135 169c-77 0 -145 -62 -156 -169zM188 656
c-31 0 -55 25 -55 55c0 32 24 56 55 56c32 0 56 -24 56 -56c0 -30 -24 -55 -56 -55zM403 656c-32 0 -56 25 -56 55c0 32 24 56 56 56c31 0 55 -24 55 -56c0 -30 -24 -55 -55 -55z" />
    <glyph glyph-name="Identity.223" unicode="&#x2010;" 
d="M375 401h250v-42h-250v42z" />
    <glyph glyph-name="Identity.224" unicode="&#x2015;" 
d="M72 401h856v-42h-856v42z" />
    <glyph glyph-name="Identity.225" unicode="&#x2018;" horiz-adv-x="278" 
d="M182 778l26 -43c-55 -37 -84 -75 -85 -139c3 1 6 1 10 1c31 0 59 -20 59 -56c0 -39 -24 -61 -59 -61c-44 0 -70 36 -70 100c0 89 42 153 119 198z" />
    <glyph glyph-name="Identity.226" unicode="&#x2019;" horiz-adv-x="278" 
d="M96 482l-26 43c55 38 83 75 84 139c-3 -1 -6 -1 -10 -1c-30 0 -58 20 -58 57c0 38 24 61 58 61c44 0 71 -37 71 -101c0 -89 -42 -153 -119 -198z" />
    <glyph glyph-name="Identity.227" unicode="&#x201c;" horiz-adv-x="475" 
d="M182 778l26 -43c-55 -37 -84 -75 -85 -139c3 1 6 1 10 1c31 0 59 -20 59 -56c0 -39 -24 -61 -59 -61c-44 0 -70 36 -70 100c0 89 42 153 119 198zM378 778l26 -43c-54 -37 -83 -75 -84 -139c3 1 6 1 9 1c31 0 60 -20 60 -56c0 -39 -25 -61 -60 -61c-44 0 -69 36 -69 100
c0 89 42 153 118 198z" />
    <glyph glyph-name="Identity.228" unicode="&#x201d;" horiz-adv-x="475" 
d="M96 482l-26 43c55 38 83 75 84 139c-3 -1 -6 -1 -10 -1c-30 0 -58 20 -58 57c0 38 24 61 58 61c44 0 71 -37 71 -101c0 -89 -42 -153 -119 -198zM292 482l-26 43c56 38 84 75 85 139c-3 -1 -7 -1 -10 -1c-31 0 -59 20 -59 57c0 38 24 61 59 61c44 0 70 -37 70 -101
c0 -89 -42 -153 -119 -198z" />
    <glyph glyph-name="Identity.229" unicode="&#x2020;" 
d="M543 764l-7 -242l203 5v-76l-203 6l7 -513h-86l7 513l-203 -6v76l203 -5l-7 242h86z" />
    <glyph glyph-name="Identity.230" unicode="&#x2021;" 
d="M543 764l-7 -230l203 6v-76l-203 6v-232l203 6v-77l-203 6l7 -229h-86l7 229l-203 -6v77l203 -6v232l-203 -6v76l203 -6l-7 230h86z" />
    <glyph glyph-name="Identity.231" unicode="&#x2025;" 
d="M184 380c0 37 29 66 66 66s66 -29 66 -66s-29 -66 -66 -66s-66 29 -66 66zM684 380c0 37 29 66 66 66s66 -29 66 -66s-29 -66 -66 -66s-66 29 -66 66z" />
    <glyph glyph-name="Identity.232" unicode="&#x2026;" 
d="M101 380c0 37 29 66 66 66s66 -29 66 -66s-29 -66 -66 -66s-66 29 -66 66zM434 380c0 37 29 66 66 66s66 -29 66 -66s-29 -66 -66 -66s-66 29 -66 66zM767 380c0 37 29 66 66 66s66 -29 66 -66s-29 -66 -66 -66s-66 29 -66 66z" />
    <glyph glyph-name="Identity.233" unicode="&#x2030;" 
d="M125 -16l386 766h51l-385 -766h-52zM34 522c0 142 58 224 131 223c78 0 127 -89 127 -223c0 -154 -63 -221 -128 -221c-77 0 -130 87 -130 221zM234 522c0 74 -12 175 -72 174c-56 0 -69 -98 -69 -173c0 -79 12 -173 70 -173c59 0 71 97 71 172zM396 212
c0 142 58 225 131 224c78 0 127 -89 127 -223c0 -155 -63 -222 -128 -222c-78 0 -130 87 -130 221zM708 212c0 142 57 225 130 224c78 0 128 -89 128 -223c0 -155 -63 -222 -129 -222c-77 0 -129 87 -129 221zM596 212c0 74 -12 176 -72 175c-56 0 -69 -98 -69 -174
c0 -79 12 -173 70 -173c59 0 71 98 71 172zM907 212c0 73 -11 176 -71 175c-56 0 -70 -98 -70 -174c0 -77 11 -173 71 -173c59 0 70 98 70 172z" />
    <glyph glyph-name="Identity.234" unicode="&#x2032;" horiz-adv-x="278" 
d="M91 504l25 267l89 -1l-15 -101l-39 -166z" />
    <glyph glyph-name="Identity.235" unicode="&#x2033;" horiz-adv-x="475" 
d="M91 504l25 267l89 -1l-15 -101l-39 -166zM288 504l24 267l90 -1l-16 -101l-38 -166z" />
    <glyph glyph-name="Identity.236" unicode="&#x203b;" 
d="M575 665c0 -41 -34 -75 -75 -75s-75 34 -75 75s34 75 75 75s75 -34 75 -75zM170 739l330 -330l330 330l29 -29l-330 -330l330 -330l-29 -29l-330 330l-331 -331l-29 29l331 331l-330 330zM215 455c41 0 75 -34 75 -75s-34 -75 -75 -75s-75 34 -75 75s34 75 75 75z
M785 305c-41 0 -75 34 -75 75s34 75 75 75s75 -34 75 -75s-34 -75 -75 -75zM425 95c0 41 34 75 75 75s75 -34 75 -75s-34 -75 -75 -75s-75 34 -75 75z" />
    <glyph glyph-name="Identity.237" unicode="&#x2103;" 
d="M188 477c-76 0 -141 57 -141 143c0 88 65 143 141 143c75 0 140 -55 140 -143c0 -86 -65 -143 -140 -143zM188 529c49 0 84 38 84 91c0 54 -35 91 -84 91c-50 0 -84 -37 -84 -91c0 -53 34 -91 84 -91zM735 -13c-185 0 -322 140 -322 378c0 237 139 380 327 380
c87 0 158 -44 201 -90l-54 -60c-39 41 -85 66 -146 66c-138 0 -229 -113 -229 -294c0 -182 87 -296 225 -296c70 0 120 28 166 80l55 -59c-58 -68 -130 -105 -223 -105z" />
    <glyph glyph-name="Identity.238" unicode="&#x2116;" horiz-adv-x="997" 
d="M102 -13c-13 0 -18 1 -28 3l-8 73c26 0 38 10 38 46v604h102c68 -153 135 -306 199 -459l63 -146h4c-10 142 -12 224 -12 330v179c0 73 26 109 85 109c14 0 18 -1 29 -4l7 -72c-26 0 -38 -10 -38 -46v-604h-102c-68 153 -134 305 -198 460l-64 145h-4
c10 -142 12 -224 12 -330v-179c0 -73 -26 -109 -85 -109zM810 309c-93 0 -171 65 -171 179c0 116 78 180 171 180c94 0 172 -64 172 -180c0 -114 -78 -179 -172 -179zM810 369c59 0 97 45 97 119c0 76 -38 120 -97 120c-58 0 -97 -44 -97 -120c0 -74 39 -119 97 -119z
M669 168v55h282v-55h-282z" />
    <glyph glyph-name="Identity.239" unicode="&#x2121;" 
d="M149 0v660h-123v72h325v-72h-123v-660h-79zM400 0v578h250v-67h-172v-178h131v-63h-131v-203h183v-67h-261zM727 0v578h79v-508h164v-70h-243z" />
    <glyph glyph-name="Identity.240" unicode="&#x212b;" 
d="M389 297h218l-34 110c-26 82 -49 162 -73 247h-5c-22 -85 -45 -165 -71 -247zM498 909c-47 0 -83 -34 -83 -86c0 -56 36 -87 83 -87c44 0 81 31 81 87c0 52 -37 86 -81 86zM700 0l-69 221h-265l-70 -221h-97l237 706c-49 20 -81 64 -81 122c0 79 60 131 143 131
c80 0 143 -52 143 -131c0 -57 -32 -101 -80 -121l240 -707h-101z" />
    <glyph glyph-name="Identity.241" unicode="&#x2160;" 
d="M452 0v732h96v-732h-96z" />
    <glyph glyph-name="Identity.242" unicode="&#x2161;" 
d="M305 0v732h96v-732h-96zM600 0v732h95v-732h-95z" />
    <glyph glyph-name="Identity.243" unicode="&#x2162;" 
d="M157 0v732h96v-732h-96zM452 0v732h96v-732h-96zM747 0v732h96v-732h-96z" />
    <glyph glyph-name="Identity.244" unicode="&#x2163;" 
d="M164 0v732h96v-732h-96zM592 0l-233 732h101l118 -394c25 -86 42 -156 69 -241h5c27 85 44 155 70 241l116 394h97l-232 -732h-111z" />
    <glyph glyph-name="Identity.245" unicode="&#x2164;" 
d="M445 0l-232 732h100l118 -394c24 -86 43 -156 69 -241h5c27 85 44 155 70 241l116 394h97l-232 -732h-111z" />
    <glyph glyph-name="Identity.246" unicode="&#x2165;" 
d="M298 0l-233 732h100l118 -394c25 -86 43 -156 69 -241h5c27 85 45 155 71 241l116 394h96l-231 -732h-111zM739 0v732h96v-732h-96z" />
    <glyph glyph-name="Identity.247" unicode="&#x2166;" 
d="M202 0l-194 732h101l91 -394c21 -87 35 -156 60 -241h4c26 85 40 154 60 241l92 394h97l-194 -732h-117zM593 0v732h96v-732h-96zM826 0v732h96v-732h-96z" />
    <glyph glyph-name="Identity.248" unicode="&#x2167;" 
d="M147 0l-143 732h88l64 -394c14 -86 26 -156 41 -241h4c16 85 28 155 41 241l62 394h84l-137 -732h-104zM472 0v732h83v-732h-83zM659 0v732h83v-732h-83zM845 0v732h83v-732h-83z" />
    <glyph glyph-name="Identity.249" unicode="&#x2168;" 
d="M165 0v732h96v-732h-96zM377 0l212 378l-199 354h106l98 -186c18 -34 34 -64 58 -106h4c19 42 34 72 51 106l96 186h101l-200 -359l213 -373h-105l-106 196c-20 36 -39 73 -62 117h-4c-22 -44 -40 -81 -59 -117l-104 -196h-100z" />
    <glyph glyph-name="Identity.250" unicode="&#x2169;" 
d="M229 0l212 378l-199 354h106l99 -186c18 -34 33 -64 57 -106h4c20 42 34 72 51 106l97 186h100l-200 -359l214 -373h-106l-106 196c-19 36 -39 73 -62 117h-4c-21 -44 -40 -81 -58 -117l-105 -196h-100z" />
    <glyph glyph-name="Identity.251" unicode="&#x216a;" 
d="M83 0l211 378l-199 354h106l98 -186c19 -34 34 -64 58 -106h4c20 42 34 72 52 106l96 186h100l-199 -359l213 -373h-105l-106 196c-20 36 -40 73 -63 117h-4c-22 -44 -40 -81 -58 -117l-104 -196h-100zM740 0v732h96v-732h-96z" />
    <glyph glyph-name="Identity.252" unicode="&#x216b;" 
d="M5 0l200 378l-187 354h96l94 -186c16 -35 30 -64 53 -106h4c19 42 31 72 47 106l92 186h90l-186 -359l201 -373h-97l-102 196c-17 36 -35 73 -57 117h-4c-20 -44 -37 -81 -54 -117l-99 -196h-91zM593 0v732h90v-732h-90zM836 0v732h89v-732h-89z" />
    <glyph glyph-name="Identity.253" unicode="&#x2170;" 
d="M452 0v542h95v-542h-95zM501 653c-37 0 -65 25 -65 60c0 36 28 60 65 60c35 0 64 -24 64 -60c0 -35 -29 -60 -64 -60z" />
    <glyph glyph-name="Identity.254" unicode="&#x2171;" 
d="M315 0v542h94v-542h-94zM363 653c-37 0 -65 25 -65 60c0 36 28 60 65 60c36 0 64 -24 64 -60c0 -35 -28 -60 -64 -60zM591 0v542h94v-542h-94zM639 653c-37 0 -65 25 -65 60c0 36 28 60 65 60c36 0 64 -24 64 -60c0 -35 -28 -60 -64 -60z" />
    <glyph glyph-name="Identity.255" unicode="&#x2172;" 
d="M177 0v542h95v-542h-95zM225 653c-36 0 -65 25 -65 60c0 36 29 60 65 60s64 -24 64 -60c0 -35 -28 -60 -64 -60zM452 0v542h95v-542h-95zM501 653c-37 0 -65 25 -65 60c0 36 28 60 65 60c35 0 64 -24 64 -60c0 -35 -29 -60 -64 -60zM728 0v542h95v-542h-95zM776 653
c-37 0 -65 25 -65 60c0 36 28 60 65 60c36 0 64 -24 64 -60c0 -35 -28 -60 -64 -60z" />
    <glyph glyph-name="Identity.256" unicode="&#x2173;" 
d="M191 0v542h95v-542h-95zM240 653c-37 0 -65 25 -65 60c0 36 28 60 65 60c36 0 63 -24 63 -60c0 -35 -27 -60 -63 -60zM585 0l-195 542h97l101 -306c16 -53 34 -109 50 -160h4c16 51 34 107 49 160l102 306h93l-191 -542h-110z" />
    <glyph glyph-name="Identity.257" unicode="&#x2174;" 
d="M447 0l-195 542h97l101 -306c17 -53 34 -109 51 -160h4c16 51 34 107 49 160l102 306h92l-191 -542h-110z" />
    <glyph glyph-name="Identity.258" unicode="&#x2175;" 
d="M310 0l-196 542h97l102 -306c15 -53 33 -109 49 -160h4c17 51 35 107 50 160l102 306h92l-191 -542h-109zM714 0v542h94v-542h-94zM762 653c-37 0 -65 25 -65 60c0 36 28 60 65 60c36 0 63 -24 63 -60c0 -35 -27 -60 -63 -60z" />
    <glyph glyph-name="Identity.259" unicode="&#x2176;" 
d="M196 0l-183 542h97l93 -306c14 -53 30 -109 47 -160h4c16 51 32 107 46 160l93 306h92l-179 -542h-110zM570 0v542h95v-542h-95zM618 653c-37 0 -65 25 -65 60c0 36 28 60 65 60c36 0 64 -24 64 -60c0 -35 -28 -60 -64 -60zM821 0v542h94v-542h-94zM869 653
c-37 0 -65 25 -65 60c0 36 28 60 65 60c36 0 64 -24 64 -60c0 -35 -28 -60 -64 -60z" />
    <glyph glyph-name="Identity.260" unicode="&#x2177;" 
d="M141 0l-135 542h91l60 -306c13 -53 21 -109 34 -160h4c12 51 22 107 33 160l60 306h86l-130 -542h-103zM461 0v542h82v-542h-82zM503 653c-34 0 -59 25 -59 60c0 36 25 60 59 60c32 0 57 -24 57 -60c0 -35 -25 -60 -57 -60zM658 0v542h82v-542h-82zM700 653
c-33 0 -59 25 -59 60c0 36 26 60 59 60c32 0 58 -24 58 -60c0 -35 -26 -60 -58 -60zM855 0v542h83v-542h-83zM898 653c-33 0 -59 25 -59 60c0 36 26 60 59 60c32 0 57 -24 57 -60c0 -35 -25 -60 -57 -60z" />
    <glyph glyph-name="Identity.261" unicode="&#x2178;" 
d="M203 0v542h94v-542h-94zM251 653c-37 0 -65 25 -65 60c0 36 28 60 65 60c35 0 63 -24 63 -60c0 -35 -28 -60 -63 -60zM403 0l178 283l-165 259h102l72 -118c16 -29 35 -60 53 -90h4c17 30 32 61 48 90l66 118h98l-164 -269l177 -273h-102l-79 125c-19 32 -38 66 -58 97
h-5c-19 -31 -36 -64 -55 -97l-72 -125h-98z" />
    <glyph glyph-name="Identity.262" unicode="&#x2179;" 
d="M265 0l178 283l-165 259h102l72 -118c17 -29 35 -60 54 -90h4c16 30 32 61 48 90l65 118h99l-164 -269l176 -273h-101l-80 125c-18 32 -37 66 -58 97h-5c-18 -31 -35 -64 -54 -97l-73 -125h-98z" />
    <glyph glyph-name="Identity.263" unicode="&#x217a;" 
d="M127 0l178 283l-164 259h101l72 -118c16 -29 35 -60 53 -90h4c17 30 32 61 49 90l65 118h99l-165 -269l177 -273h-102l-79 125c-18 32 -38 66 -58 97h-5c-18 -31 -35 -64 -54 -97l-73 -125h-98zM702 0v542h95v-542h-95zM750 653c-36 0 -65 25 -65 60c0 36 29 60 65 60
s64 -24 64 -60c0 -35 -28 -60 -64 -60z" />
    <glyph glyph-name="Identity.264" unicode="&#x217b;" 
d="M26 0l172 283l-158 259h102l68 -118c15 -29 33 -60 51 -90h4c16 30 31 61 46 90l61 118h99l-158 -269l170 -273h-101l-76 125c-18 32 -35 66 -55 97h-5c-19 -31 -35 -64 -52 -97l-69 -125h-99zM565 0v542h94v-542h-94zM613 653c-37 0 -65 25 -65 60c0 36 28 60 65 60
c35 0 63 -24 63 -60c0 -35 -28 -60 -63 -60zM816 0v542h95v-542h-95zM865 653c-38 0 -65 25 -65 60c0 36 27 60 65 60c35 0 63 -24 63 -60c0 -35 -28 -60 -63 -60z" />
    <glyph glyph-name="Identity.265" unicode="&#x2190;" 
d="M960 346h-771c51 -39 117 -102 162 -164l-60 -35c-67 88 -167 176 -256 233c89 57 189 145 256 233l60 -35c-45 -62 -111 -125 -162 -164h771v-68z" />
    <glyph glyph-name="Identity.266" unicode="&#x2191;" 
d="M466 -80v771c-39 -51 -102 -117 -164 -162l-35 60c88 67 176 167 233 256c57 -89 145 -189 233 -256l-35 -60c-62 45 -125 111 -164 162v-771h-68z" />
    <glyph glyph-name="Identity.267" unicode="&#x2192;" 
d="M40 346v68h771c-51 39 -117 102 -162 164l60 35c67 -88 167 -176 256 -233c-89 -57 -189 -145 -256 -233l-60 35c45 62 111 125 162 164h-771z" />
    <glyph glyph-name="Identity.268" unicode="&#x2193;" 
d="M534 840v-771c39 51 102 117 164 162l35 -60c-88 -67 -176 -167 -233 -256c-57 89 -145 189 -233 256l35 60c62 -45 125 -111 164 -162v771h68z" />
    <glyph glyph-name="Identity.269" unicode="&#x2194;" 
d="M811 342h-622c51 -39 117 -102 162 -164l-60 -35c-67 88 -167 176 -256 233c89 57 189 145 256 233l60 -35c-45 -62 -111 -125 -162 -164h622c-51 39 -117 102 -162 164l60 35c67 -88 167 -176 256 -233c-89 -57 -189 -145 -256 -233l-60 35c45 62 111 125 162 164z" />
    <glyph glyph-name="Identity.270" unicode="&#x2195;" 
d="M534 691v-622c39 51 102 117 164 162l35 -60c-88 -67 -176 -167 -233 -256c-57 89 -145 189 -233 256l35 60c62 -45 125 -111 164 -162v622c-39 -51 -102 -117 -164 -162l-35 60c88 67 176 167 233 256c57 -89 145 -189 233 -256l-35 -60c-62 45 -125 111 -164 162z" />
    <glyph glyph-name="Identity.271" unicode="&#x2196;" 
d="M801 30l-546 546c10 -64 11 -155 0 -231l-67 17c14 111 6 244 -17 347c103 -23 236 -31 347 -17l17 -67c-76 -11 -167 -10 -231 0l546 -546z" />
    <glyph glyph-name="Identity.272" unicode="&#x2197;" 
d="M150 79l546 546c-64 -10 -155 -11 -231 0l17 67c111 -14 244 -6 347 17c-23 -103 -31 -236 -17 -347l-67 -17c-11 76 -10 167 0 231l-546 -546z" />
    <glyph glyph-name="Identity.273" unicode="&#x2198;" 
d="M199 730l546 -546c-10 64 -11 155 0 231l67 -17c-14 -111 -6 -244 17 -347c-103 23 -236 31 -347 17l-17 67c76 11 167 10 231 0l-546 546z" />
    <glyph glyph-name="Identity.274" unicode="&#x2199;" 
d="M850 681l-546 -546c64 10 155 11 231 0l-17 -67c-111 14 -244 6 -347 -17c23 103 31 236 17 347l67 17c11 -76 10 -167 0 -231l546 546z" />
    <glyph glyph-name="Identity.275" unicode="&#x21d0;" 
d="M257 481c-40 -41 -81 -78 -118 -105c37 -27 78 -64 118 -105h703v-68h-643c36 -41 69 -85 93 -124l-59 -34c-77 122 -208 256 -327 331c119 76 250 210 327 332l59 -35c-24 -39 -57 -83 -93 -123h643v-69h-703z" />
    <glyph glyph-name="Identity.276" unicode="&#x21d2;" 
d="M743 271c40 41 81 78 118 105c-37 26 -78 63 -118 104h-703v69h643c-36 41 -69 85 -93 124l59 34c77 -122 208 -256 327 -331c-119 -76 -250 -210 -327 -332l-59 34c24 39 57 83 93 124h-643v69h703z" />
    <glyph glyph-name="Identity.277" unicode="&#x21d4;" 
d="M329 707l58 -34c-22 -39 -54 -83 -88 -124h402c-34 41 -66 85 -88 124l58 34c72 -122 194 -256 305 -331c-111 -76 -233 -210 -305 -332l-58 34c22 39 54 83 88 124h-402c34 -41 66 -85 88 -124l-58 -34c-72 122 -194 256 -305 332c111 75 233 209 305 331zM756 480h-512
c-38 -41 -77 -78 -113 -104c36 -27 75 -64 113 -105h512c38 41 77 78 113 105c-36 26 -75 63 -113 104z" />
    <glyph glyph-name="Identity.278" unicode="&#x2200;" 
d="M826 764l61 -31l-385 -748h-4l-385 748l61 31l132 -259h388zM342 437l157 -308h2l157 308h-316z" />
    <glyph glyph-name="Identity.279" unicode="&#x2202;" 
d="M706 488c0 137 -65 208 -164 208c-76 0 -134 -49 -164 -88l-49 54c51 51 125 101 220 101c137 0 236 -96 236 -273c0 -236 -124 -502 -349 -502c-141 0 -219 96 -219 222c0 153 127 267 253 267c111 0 178 -59 215 -133h2c12 47 19 100 19 144zM294 210
c0 -90 56 -151 145 -151c92 1 168 67 214 191c-12 97 -89 162 -176 162c-92 0 -183 -87 -183 -202z" />
    <glyph glyph-name="Identity.280" unicode="&#x2203;" 
d="M195 739h604v-727h-604v69h535v261h-535v68h535v260h-535v69z" />
    <glyph glyph-name="Identity.281" unicode="&#x2207;" 
d="M447 -16l-296 677v56h696v-56l-294 -677h-106zM596 302l144 336h-483l143 -336l96 -236h5z" />
    <glyph glyph-name="Identity.282" unicode="&#x2208;" 
d="M872 629h-412c-140 0 -247 -94 -263 -219h675v-69h-675c16 -125 123 -219 263 -219h412v-69h-412c-190 0 -336 141 -336 323c0 181 146 322 336 322h412v-69z" />
    <glyph glyph-name="Identity.283" unicode="&#x220b;" 
d="M540 629h-412v69h412c190 0 336 -141 336 -322c0 -182 -146 -323 -336 -323h-412v69h412c140 0 247 94 263 219h-675v69h675c-16 125 -123 219 -263 219z" />
    <glyph glyph-name="Identity.284" unicode="&#x221a;" 
d="M560 880h440v-41h-411l-321 -925h-30l-108 280l-70 -99l-26 19l137 193l99 -260z" />
    <glyph glyph-name="Identity.285" unicode="&#x221d;" 
d="M544 376c57 -77 127 -131 219 -131c23 0 45 3 64 9l25 -65c-27 -9 -58 -13 -91 -13c-115 0 -198 66 -261 145c-63 -79 -146 -145 -262 -145c-97 0 -204 67 -204 200c0 132 107 199 204 199c116 0 199 -66 262 -145c63 79 146 145 261 145c33 0 64 -4 91 -13l-25 -64
c-19 6 -41 9 -64 9c-92 0 -162 -55 -219 -131zM103 376c0 -84 64 -131 134 -131c91 0 162 54 219 131c-57 76 -128 131 -219 131c-70 0 -134 -48 -134 -131z" />
    <glyph glyph-name="Identity.286" unicode="&#x221e;" 
d="M500 430c63 79 146 145 261 145c97 0 204 -67 204 -199c0 -133 -107 -200 -204 -200c-115 0 -198 66 -261 145c-63 -79 -147 -145 -262 -145c-97 0 -204 67 -204 200c0 132 107 199 204 199c115 0 199 -66 262 -145zM103 376c0 -84 64 -131 134 -131c92 0 161 54 219 131
c-58 76 -127 131 -219 131c-70 0 -134 -48 -134 -131zM544 376c57 -77 127 -131 219 -131c69 0 133 47 133 131c0 83 -64 131 -133 131c-92 0 -162 -55 -219 -131z" />
    <glyph glyph-name="Identity.287" unicode="&#x221f;" 
d="M229 81h643v-69h-711v735h68v-666z" />
    <glyph glyph-name="Identity.288" unicode="&#x2220;" 
d="M264 99v-3h615v-69h-777v4l663 664l48 -49z" />
    <glyph glyph-name="Identity.289" unicode="&#x2225;" 
d="M205 120l326 650l61 -30l-325 -650zM469 -12l-61 31l325 650l62 -30z" />
    <glyph glyph-name="Identity.290" unicode="&#x2227;" 
d="M113 23l385 747h4l385 -747l-61 -32l-325 635h-2l-325 -635z" />
    <glyph glyph-name="Identity.291" unicode="&#x2228;" 
d="M887 728l-385 -747h-4l-385 747l61 32l325 -635h2l325 635z" />
    <glyph glyph-name="Identity.292" unicode="&#x2229;" 
d="M178 415c0 191 140 336 322 336s322 -145 322 -336v-411h-69v411c0 153 -110 267 -253 267s-253 -114 -253 -267v-411h-69v411z" />
    <glyph glyph-name="Identity.293" unicode="&#x222a;" 
d="M822 336c0 -191 -140 -336 -322 -336s-322 145 -322 336v411h69v-411c0 -153 110 -267 253 -267s253 114 253 267v411h69v-411z" />
    <glyph glyph-name="Identity.294" unicode="&#x222b;" 
d="M460 166v439c0 201 96 241 178 241c16 0 32 -2 46 -5l-7 -73c-11 3 -21 4 -33 4c-50 0 -104 -21 -104 -178v-439c0 -201 -95 -241 -178 -241c-16 0 -32 2 -46 5l7 73c11 -3 21 -4 33 -4c50 0 104 21 104 178z" />
    <glyph glyph-name="Identity.295" unicode="&#x222c;" 
d="M266 166v439c0 201 96 241 178 241c17 0 32 -2 46 -5l-7 -73c-11 3 -21 4 -33 4c-50 0 -104 -21 -104 -178v-439c0 -201 -95 -241 -178 -241c-16 0 -32 2 -46 5l7 73c11 -3 21 -4 33 -4c50 0 104 21 104 178zM654 166v439c0 201 95 241 178 241c16 0 32 -2 46 -5l-7 -73
c-11 3 -21 4 -33 4c-50 0 -104 -21 -104 -178v-439c0 -201 -96 -241 -178 -241c-17 0 -32 2 -46 5l7 73c11 -3 21 -4 33 -4c50 0 104 21 104 178z" />
    <glyph glyph-name="Identity.296" unicode="&#x222e;" 
d="M460 219c-73 17 -128 82 -128 161s55 144 128 161v64c0 201 96 241 178 241c16 0 32 -2 46 -5l-7 -73c-11 3 -21 4 -33 4c-49 0 -103 -19 -104 -171v-60c73 -17 128 -82 128 -161s-55 -144 -128 -161v-64c0 -201 -95 -241 -178 -241c-16 0 -32 2 -46 5l7 73
c11 -3 21 -4 33 -4c49 0 103 19 104 171v60zM460 499c-51 -15 -88 -63 -88 -119s37 -104 88 -119v238zM540 261c51 15 88 63 88 119s-37 104 -88 119v-238z" />
    <glyph glyph-name="Identity.297" unicode="&#x2234;" 
d="M428 612c0 39 32 72 72 72s72 -33 72 -72c0 -40 -32 -73 -72 -73s-72 33 -72 73zM163 139c0 40 33 73 73 73s72 -33 72 -73c0 -39 -32 -72 -72 -72s-73 33 -73 72zM692 139c0 40 33 73 73 73s72 -33 72 -73c0 -39 -32 -72 -72 -72s-73 33 -73 72z" />
    <glyph glyph-name="Identity.298" unicode="&#x2235;" 
d="M163 612c0 39 33 72 73 72s72 -33 72 -72c0 -40 -32 -73 -72 -73s-73 33 -73 73zM692 612c0 39 33 72 73 72s72 -33 72 -72c0 -40 -32 -73 -72 -73s-73 33 -73 73zM428 139c0 40 32 73 72 73s72 -33 72 -73c0 -39 -32 -72 -72 -72s-72 33 -72 72z" />
    <glyph glyph-name="Identity.299" unicode="&#x223d;" 
d="M476 400c66 92 156 175 285 175c97 0 204 -67 204 -199c0 -134 -106 -200 -206 -200c-32 0 -63 4 -91 13l26 65c19 -6 41 -9 67 -9c71 0 135 47 135 131c0 83 -64 131 -133 131c-104 0 -177 -69 -239 -157c-67 -92 -156 -174 -286 -174c-97 0 -204 67 -204 200
s107 199 206 199c33 0 63 -4 91 -13l-25 -64c-20 6 -41 9 -67 9c-72 0 -136 -48 -136 -131c0 -84 64 -131 134 -131c103 0 176 68 239 155z" />
    <glyph glyph-name="Identity.300" unicode="&#x2252;" 
d="M246 667c0 40 32 73 72 73s73 -33 73 -73s-33 -72 -73 -72s-72 32 -72 72zM137 506h726v-61h-726v61zM137 306h726v-61h-726v61zM609 84c0 40 33 72 73 72s72 -32 72 -72s-32 -73 -72 -73s-73 33 -73 73z" />
    <glyph glyph-name="Identity.301" unicode="&#x2260;" 
d="M863 446h-301l-52 -145h353v-69h-378l-77 -210l-64 24l67 186h-274v69h299l53 145h-352v69h377l78 214l64 -24l-69 -190h276v-69z" />
    <glyph glyph-name="Identity.302" unicode="&#x2261;" 
d="M137 624h726v-65h-726v65zM137 408h726v-65h-726v65zM137 192h726v-65h-726v65z" />
    <glyph glyph-name="Identity.303" unicode="&#x2266;" 
d="M859 846l23 -65l-585 -225v-4l585 -225l-23 -65l-755 290v4zM128 187h744v-65h-744v65zM128 19h744v-65h-744v65z" />
    <glyph glyph-name="Identity.304" unicode="&#x2267;" 
d="M141 846l755 -290v-4l-755 -290l-23 65l585 225v4l-585 225zM128 187h744v-65h-744v65zM128 19h744v-65h-744v65z" />
    <glyph glyph-name="Identity.305" unicode="&#x226a;" 
d="M607 763l35 -50l-482 -335v-4l482 -336l-35 -50l-553 386v4zM910 763l35 -50l-483 -335v-4l483 -336l-35 -50l-553 386v4z" />
    <glyph glyph-name="Identity.306" unicode="&#x226b;" 
d="M90 763l553 -385v-4l-553 -386l-35 50l483 336v4l-483 335zM393 763l553 -385v-4l-553 -386l-35 50l482 336v4l-482 335z" />
    <glyph glyph-name="Identity.307" unicode="&#x2282;" 
d="M460 53c-190 0 -336 141 -336 323c0 181 146 322 336 322h412v-69h-412c-152 0 -267 -110 -267 -253c0 -144 115 -254 267 -254h412v-69h-412z" />
    <glyph glyph-name="Identity.308" unicode="&#x2283;" 
d="M540 698c190 0 336 -141 336 -322c0 -182 -146 -323 -336 -323h-412v69h412c152 0 267 110 267 254c0 143 -115 253 -267 253h-412v69h412z" />
    <glyph glyph-name="Identity.309" unicode="&#x2286;" 
d="M409 694c-140 0 -216 -93 -216 -194c0 -102 76 -195 216 -195h463v-69h-463c-178 0 -285 124 -285 264c0 139 107 263 285 263h463v-69h-463zM128 57h744v-69h-744v69z" />
    <glyph glyph-name="Identity.310" unicode="&#x2287;" 
d="M591 305c140 0 216 93 216 195c0 101 -76 194 -216 194h-463v69h463c178 0 285 -124 285 -263c0 -140 -107 -264 -285 -264h-463v69h463zM128 57h744v-69h-744v69z" />
    <glyph glyph-name="Identity.311" unicode="&#x22a5;" 
d="M534 105h361v-69h-790v69h361v634h68v-634z" />
    <glyph glyph-name="Identity.312" unicode="&#x22bf;" 
d="M864 12h-770v4l766 765h4v-769zM795 81v538h-3l-536 -535v-3h539z" />
    <glyph glyph-name="Identity.313" unicode="&#x2312;" 
d="M24 646c122 120 281 199 476 199s354 -79 476 -199l-31 -60c-119 115 -267 186 -445 186s-326 -71 -445 -186z" />
    <glyph glyph-name="Identity.314" unicode="&#x2460;" 
d="M500 -86c-257 0 -466 209 -466 466s209 466 466 466s466 -209 466 -466c0 -259 -211 -466 -466 -466zM500 -54c240 0 434 194 434 434s-194 434 -434 434c-242 0 -434 -196 -434 -434c0 -240 194 -434 434 -434zM480 127v424h-106v53c53 9 91 23 125 41h63v-518h-82z" />
    <glyph glyph-name="Identity.315" unicode="&#x2461;" 
d="M500 -86c-257 0 -466 209 -466 466s209 466 466 466s466 -209 466 -466c0 -259 -211 -466 -466 -466zM500 -54c240 0 434 194 434 434s-194 434 -434 434c-242 0 -434 -196 -434 -434c0 -240 194 -434 434 -434zM327 127v48c168 147 264 239 264 321c0 58 -33 95 -102 95
c-49 0 -90 -28 -122 -59l-47 44c50 53 107 81 177 81c107 0 174 -62 174 -155c0 -96 -98 -193 -225 -309c30 2 67 4 102 4h147v-70h-368z" />
    <glyph glyph-name="Identity.316" unicode="&#x2462;" 
d="M500 -86c-257 0 -466 209 -466 466s209 466 466 466s466 -209 466 -466c0 -259 -211 -466 -466 -466zM500 -54c240 0 434 194 434 434s-194 434 -434 434c-242 0 -434 -196 -434 -434c0 -240 194 -434 434 -434zM495 115c-89 0 -153 33 -191 74l40 53
c35 -33 80 -61 149 -61c65 0 111 35 111 88c0 58 -44 96 -180 96v61c119 0 161 37 161 89c0 48 -36 77 -95 77c-46 0 -88 -19 -122 -52l-43 51c44 40 99 66 167 66c103 0 176 -49 176 -137c0 -60 -42 -98 -102 -120v-3c68 -17 122 -61 122 -132c0 -93 -86 -150 -193 -150z
" />
    <glyph glyph-name="Identity.317" unicode="&#x2463;" 
d="M357 328h171v132c0 29 1 74 3 104h-4c-15 -28 -27 -43 -45 -71zM606 645v-317h77v-63h-77v-138h-78v138h-256v55l240 325h94zM500 -54c240 0 434 194 434 434s-194 434 -434 434c-242 0 -434 -196 -434 -434c0 -240 194 -434 434 -434zM500 846c257 0 466 -209 466 -466
c0 -259 -211 -466 -466 -466c-257 0 -466 209 -466 466s209 466 466 466z" />
    <glyph glyph-name="Identity.318" unicode="&#x2464;" 
d="M500 -86c-257 0 -466 209 -466 466s209 466 466 466s466 -209 466 -466c0 -259 -211 -466 -466 -466zM500 -54c240 0 434 194 434 434s-194 434 -434 434c-242 0 -434 -196 -434 -434c0 -240 194 -434 434 -434zM498 115c-91 0 -147 34 -187 71l39 54
c33 -29 76 -59 144 -59c66 0 117 43 117 110c0 65 -47 107 -115 107c-40 0 -65 -13 -98 -34l-42 26l18 255h292v-70h-222l-13 -140c25 11 53 21 85 21c98 0 178 -52 178 -163c0 -113 -95 -178 -196 -178z" />
    <glyph glyph-name="Identity.319" unicode="&#x2465;" 
d="M502 179c53 0 97 42 97 103c0 63 -36 103 -105 103c-35 0 -79 -17 -118 -64c11 -97 55 -142 126 -142zM665 600l-45 -51c-23 24 -60 40 -97 40c-79 0 -145 -52 -149 -207c36 39 89 64 139 64c98 0 164 -54 164 -162c0 -103 -80 -169 -176 -169c-116 0 -205 81 -205 253
c0 205 107 289 225 289c65 0 111 -25 144 -57zM500 -54c240 0 434 194 434 434s-194 434 -434 434c-242 0 -434 -196 -434 -434c0 -240 194 -434 434 -434zM500 846c257 0 466 -209 466 -466c0 -259 -211 -466 -466 -466c-257 0 -466 209 -466 466s209 466 466 466z" />
    <glyph glyph-name="Identity.320" unicode="&#x2466;" 
d="M500 -86c-257 0 -466 209 -466 466s209 466 466 466s466 -209 466 -466c0 -259 -211 -466 -466 -466zM500 -54c240 0 434 194 434 434s-194 434 -434 434c-242 0 -434 -196 -434 -434c0 -240 194 -434 434 -434zM428 127c10 189 50 308 161 448h-270v70h364v-50
c-134 -154 -160 -266 -170 -468h-85z" />
    <glyph glyph-name="Identity.321" unicode="&#x2467;" 
d="M500 -86c-257 0 -466 209 -466 466s209 466 466 466s466 -209 466 -466c0 -259 -211 -466 -466 -466zM500 -54c240 0 434 194 434 434s-194 434 -434 434c-242 0 -434 -196 -434 -434c0 -240 194 -434 434 -434zM500 115c-111 0 -192 60 -192 141c0 69 54 113 108 139v4
c-44 27 -82 67 -82 121c0 83 73 137 167 137c105 0 168 -58 168 -138c0 -56 -43 -101 -79 -125v-3c52 -28 101 -64 101 -134c0 -80 -77 -142 -191 -142zM538 413c37 29 60 64 60 99c0 49 -37 86 -99 86c-53 0 -91 -30 -91 -78c0 -57 60 -84 130 -107zM503 175
c66 0 111 32 111 84c0 62 -66 86 -150 115c-44 -25 -82 -60 -82 -107c0 -54 53 -92 121 -92z" />
    <glyph glyph-name="Identity.322" unicode="&#x2468;" 
d="M504 385c36 0 80 19 117 65c-10 96 -54 144 -124 144c-52 0 -95 -42 -95 -105c0 -66 34 -104 102 -104zM334 171l45 50c23 -23 59 -39 98 -39c78 0 142 54 146 207c-35 -39 -86 -63 -135 -63c-97 0 -165 53 -165 162c0 102 79 169 174 169c115 0 204 -81 204 -253
c0 -207 -106 -289 -222 -289c-65 0 -113 24 -145 56zM500 -54c240 0 434 194 434 434s-194 434 -434 434c-242 0 -434 -196 -434 -434c0 -240 194 -434 434 -434zM500 846c257 0 466 -209 466 -466c0 -259 -211 -466 -466 -466c-257 0 -466 209 -466 466s209 466 466 466z
" />
    <glyph glyph-name="Identity.323" unicode="&#x2469;" 
d="M500 -86c-257 0 -466 209 -466 466s209 466 466 466s466 -209 466 -466c0 -259 -211 -466 -466 -466zM500 -54c240 0 434 194 434 434s-194 434 -434 434c-242 0 -434 -196 -434 -434c0 -240 194 -434 434 -434zM292 127v424h-85v53c45 9 75 23 103 41h60v-518h-78z
M627 115c-98 0 -162 104 -162 273s64 269 162 269s161 -100 161 -269s-63 -273 -161 -273zM627 182c49 0 83 65 83 206s-34 203 -83 203s-83 -62 -83 -203s34 -206 83 -206z" />
    <glyph glyph-name="Identity.324" unicode="&#x246a;" 
d="M500 -86c-257 0 -466 209 -466 466s209 466 466 466s466 -209 466 -466c0 -259 -211 -466 -466 -466zM500 -54c240 0 434 194 434 434s-194 434 -434 434c-242 0 -434 -196 -434 -434c0 -240 194 -434 434 -434zM338 127v424h-85v53c45 9 75 23 104 41h59v-518h-78z
M611 127v424h-85v53c44 9 75 23 103 41h59v-518h-77z" />
    <glyph glyph-name="Identity.325" unicode="&#x246b;" 
d="M500 -86c-257 0 -466 209 -466 466s209 466 466 466s466 -209 466 -466c0 -259 -211 -466 -466 -466zM500 -54c240 0 434 194 434 434s-194 434 -434 434c-242 0 -434 -196 -434 -434c0 -240 194 -434 434 -434zM292 127v424h-85v53c44 9 75 23 102 41h60v-518h-77z
M474 127v48c126 147 202 239 202 321c0 58 -25 95 -76 95c-35 0 -64 -24 -87 -54l-44 43c40 50 86 77 141 77c86 0 140 -62 140 -155c0 -96 -76 -193 -170 -309c24 2 54 4 80 4h108v-70h-294z" />
    <glyph glyph-name="Identity.326" unicode="&#x246c;" 
d="M500 -86c-257 0 -466 209 -466 466s209 466 466 466s466 -209 466 -466c0 -259 -211 -466 -466 -466zM500 -54c240 0 434 194 434 434s-194 434 -434 434c-242 0 -434 -196 -434 -434c0 -240 194 -434 434 -434zM294 127v424h-86v53c45 9 75 23 103 41h60v-518h-77z
M610 115c-67 0 -119 31 -150 70l40 50c28 -30 61 -54 109 -54c47 0 81 35 81 88c0 58 -31 96 -136 96v61c90 0 121 37 121 89c0 48 -28 77 -70 77c-31 0 -61 -15 -87 -45l-43 48c37 38 81 62 135 62c84 0 142 -49 142 -137c0 -60 -32 -98 -80 -120v-3c54 -17 97 -61 97 -132
c0 -93 -71 -150 -159 -150z" />
    <glyph glyph-name="Identity.327" unicode="&#x246d;" 
d="M207 551v53c44 9 75 23 102 41h60v-518h-77v424h-85zM527 328h126v132c0 29 1 74 3 104h-4c-13 -28 -21 -43 -34 -71zM725 645v-317h58v-63h-58v-138h-72v138h-200v55l182 325h90zM500 -54c240 0 434 194 434 434s-194 434 -434 434c-242 0 -434 -196 -434 -434
c0 -240 194 -434 434 -434zM500 846c257 0 466 -209 466 -466c0 -259 -211 -466 -466 -466c-257 0 -466 209 -466 466s209 466 466 466z" />
    <glyph glyph-name="Identity.328" unicode="&#x246e;" 
d="M500 -86c-257 0 -466 209 -466 466s209 466 466 466s466 -209 466 -466c0 -259 -211 -466 -466 -466zM500 -54c240 0 434 194 434 434s-194 434 -434 434c-242 0 -434 -196 -434 -434c0 -240 194 -434 434 -434zM292 127v424h-85v53c44 9 75 23 102 41h60v-518h-77z
M614 115c-72 0 -118 33 -151 69l36 53c26 -28 60 -56 110 -56c49 0 87 43 87 110c0 65 -34 107 -84 107c-30 0 -50 -13 -75 -34l-37 26l13 255h239v-70h-174l-8 -140c19 11 40 21 63 21c77 0 141 -52 141 -163c0 -113 -77 -178 -160 -178z" />
    <glyph glyph-name="Identity.329" unicode="&#x246f;" 
d="M207 551v53c44 9 75 23 102 41h60v-518h-77v424h-85zM635 179c40 0 71 42 71 103c0 63 -27 103 -77 103c-28 0 -59 -17 -86 -66c8 -96 41 -140 92 -140zM769 600l-41 -51c-18 24 -46 40 -76 40c-60 0 -108 -52 -111 -207c28 39 68 64 107 64c77 0 130 -54 130 -162
c0 -103 -65 -169 -144 -169c-92 0 -165 81 -165 253c0 205 85 289 181 289c54 0 93 -25 119 -57zM500 -54c240 0 434 194 434 434s-194 434 -434 434c-242 0 -434 -196 -434 -434c0 -240 194 -434 434 -434zM500 846c257 0 466 -209 466 -466c0 -259 -211 -466 -466 -466
c-257 0 -466 209 -466 466s209 466 466 466z" />
    <glyph glyph-name="Identity.330" unicode="&#x2470;" 
d="M500 -86c-257 0 -466 209 -466 466s209 466 466 466s466 -209 466 -466c0 -259 -211 -466 -466 -466zM500 -54c240 0 434 194 434 434s-194 434 -434 434c-242 0 -434 -196 -434 -434c0 -240 194 -434 434 -434zM294 127v424h-86v53c45 9 75 23 103 41h60v-518h-77z
M563 127c8 189 37 308 126 448h-211v70h298v-50c-108 -154 -126 -266 -136 -468h-77z" />
    <glyph glyph-name="Identity.331" unicode="&#x2471;" 
d="M500 -86c-257 0 -466 209 -466 466s209 466 466 466s466 -209 466 -466c0 -259 -211 -466 -466 -466zM500 -54c240 0 434 194 434 434s-194 434 -434 434c-242 0 -434 -196 -434 -434c0 -240 194 -434 434 -434zM292 127v424h-85v53c45 9 75 23 103 41h60v-518h-78z
M636 115c-91 0 -157 60 -157 141c0 69 42 113 86 139v4c-36 27 -65 67 -65 121c0 85 59 137 137 137c84 0 137 -56 137 -138c0 -56 -32 -101 -62 -125v-3c42 -28 81 -64 81 -134c0 -80 -63 -142 -157 -142zM666 413c27 29 43 64 43 99c0 51 -28 86 -74 86
c-39 0 -67 -28 -67 -78c0 -57 44 -84 98 -107zM639 175c49 0 82 32 82 84c0 62 -48 86 -113 115c-31 -25 -59 -60 -59 -107c0 -54 39 -92 90 -92z" />
    <glyph glyph-name="Identity.332" unicode="&#x2472;" 
d="M207 551v53c44 9 75 23 102 41h60v-518h-77v424h-85zM625 386c27 0 59 18 85 66c-8 95 -41 142 -91 142c-38 0 -70 -43 -70 -105c0 -63 27 -103 76 -103zM485 171l42 50c19 -23 45 -38 75 -38c59 0 107 53 110 207c-27 -40 -66 -65 -105 -65c-77 0 -130 54 -130 163
c0 102 64 169 142 169c92 0 165 -81 165 -253c0 -207 -85 -289 -178 -289c-56 0 -94 24 -121 56zM500 -54c240 0 434 194 434 434s-194 434 -434 434c-242 0 -434 -196 -434 -434c0 -240 194 -434 434 -434zM500 846c257 0 466 -209 466 -466c0 -259 -211 -466 -466 -466
c-257 0 -466 209 -466 466s209 466 466 466z" />
    <glyph glyph-name="Identity.333" unicode="&#x2473;" 
d="M500 -86c-257 0 -466 209 -466 466s209 466 466 466s466 -209 466 -466c0 -259 -211 -466 -466 -466zM500 -54c240 0 434 194 434 434s-194 434 -434 434c-242 0 -434 -196 -434 -434c0 -240 194 -434 434 -434zM205 127v48c126 147 202 239 202 321c0 58 -25 95 -76 95
c-35 0 -64 -24 -88 -54l-44 43c40 50 87 77 142 77c86 0 140 -62 140 -155c0 -96 -76 -193 -170 -309c24 2 53 4 80 4h108v-70h-294zM674 115c-98 0 -160 104 -160 273s62 269 160 269c96 0 159 -100 159 -269s-63 -273 -159 -273zM674 182c47 0 81 65 81 206
s-34 203 -81 203c-49 0 -82 -62 -82 -203s33 -206 82 -206z" />
    <glyph glyph-name="Identity.334" unicode="&#x24ea;" 
d="M500 -86c-257 0 -466 209 -466 466s209 466 466 466s466 -209 466 -466c0 -259 -211 -466 -466 -466zM500 -54c240 0 434 194 434 434s-194 434 -434 434c-242 0 -434 -196 -434 -434c0 -240 194 -434 434 -434zM499 115c-120 0 -198 104 -198 273s78 269 198 269
c121 0 200 -100 200 -269s-79 -273 -200 -273zM499 182c67 0 115 65 115 206s-48 203 -115 203s-114 -62 -114 -203s47 -206 114 -206z" />
    <glyph glyph-name="Identity.335" unicode="&#x2500;" 
d="M0 360v40h1000v-40h-1000z" />
    <glyph glyph-name="Identity.336" unicode="&#x2501;" 
d="M0 320v120h1000v-120h-1000z" />
    <glyph glyph-name="Identity.337" unicode="&#x2502;" 
d="M480 -120v1000h40v-1000h-40z" />
    <glyph glyph-name="Identity.338" unicode="&#x2503;" 
d="M440 -120v1000h120v-1000h-120z" />
    <glyph glyph-name="Identity.339" unicode="&#x2504;" 
d="M722 360v40h222v-40h-222zM389 360v40h222v-40h-222zM56 360v40h222v-40h-222z" />
    <glyph glyph-name="Identity.340" unicode="&#x2505;" 
d="M722 320v120h222v-120h-222zM389 320v120h222v-120h-222zM56 320v120h222v-120h-222z" />
    <glyph glyph-name="Identity.341" unicode="&#x2506;" 
d="M480 602v222h40v-222h-40zM480 269v222h40v-222h-40zM480 -64v222h40v-222h-40z" />
    <glyph glyph-name="Identity.342" unicode="&#x2507;" 
d="M440 602v222h120v-222h-120zM440 269v222h120v-222h-120zM440 -64v222h120v-222h-120z" />
    <glyph glyph-name="Identity.343" unicode="&#x2508;" 
d="M781 360v40h188v-40h-188zM531 360v40h188v-40h-188zM281 360v40h188v-40h-188zM31 360v40h188v-40h-188z" />
    <glyph glyph-name="Identity.344" unicode="&#x2509;" 
d="M781 320v120h188v-120h-188zM531 320v120h188v-120h-188zM281 320v120h188v-120h-188zM31 320v120h188v-120h-188z" />
    <glyph glyph-name="Identity.345" unicode="&#x250a;" 
d="M480 661v188h40v-188h-40zM480 411v188h40v-188h-40zM480 161v188h40v-188h-40zM480 -89v188h40v-188h-40z" />
    <glyph glyph-name="Identity.346" unicode="&#x250b;" 
d="M440 661v188h120v-188h-120zM440 411v188h120v-188h-120zM440 161v188h120v-188h-120zM440 -89v188h120v-188h-120z" />
    <glyph glyph-name="Identity.347" unicode="&#x250c;" 
d="M1000 360h-480v-480h-40v520h520v-40z" />
    <glyph glyph-name="Identity.348" unicode="&#x250d;" 
d="M1000 320h-480v-440h-40v560h520v-120z" />
    <glyph glyph-name="Identity.349" unicode="&#x250e;" 
d="M1000 360h-440v-480h-120v520h560v-40z" />
    <glyph glyph-name="Identity.350" unicode="&#x250f;" 
d="M1000 320h-440v-440h-120v560h560v-120z" />
    <glyph glyph-name="Identity.351" unicode="&#x2510;" 
d="M520 -120h-40v480h-480v40h520v-520z" />
    <glyph glyph-name="Identity.352" unicode="&#x2511;" 
d="M520 -120h-40v440h-480v120h520v-560z" />
    <glyph glyph-name="Identity.353" unicode="&#x2512;" 
d="M560 -120h-120v480h-440v40h560v-520z" />
    <glyph glyph-name="Identity.354" unicode="&#x2513;" 
d="M560 -120h-120v440h-440v120h560v-560z" />
    <glyph glyph-name="Identity.355" unicode="&#x2514;" 
d="M1000 360h-520v520h40v-480h480v-40z" />
    <glyph glyph-name="Identity.356" unicode="&#x2515;" 
d="M1000 320h-520v560h40v-440h480v-120z" />
    <glyph glyph-name="Identity.357" unicode="&#x2516;" 
d="M440 360v520h120v-480h440v-40h-560z" />
    <glyph glyph-name="Identity.358" unicode="&#x2517;" 
d="M440 320v560h120v-440h440v-120h-560z" />
    <glyph glyph-name="Identity.359" unicode="&#x2518;" 
d="M520 360h-520v40h480v480h40v-520z" />
    <glyph glyph-name="Identity.360" unicode="&#x2519;" 
d="M520 320h-520v120h480v440h40v-560z" />
    <glyph glyph-name="Identity.361" unicode="&#x251a;" 
d="M0 360v40h440v480h120v-520h-560z" />
    <glyph glyph-name="Identity.362" unicode="&#x251b;" 
d="M0 320v120h440v440h120v-560h-560z" />
    <glyph glyph-name="Identity.363" unicode="&#x251c;" 
d="M1000 360h-480v-480h-40v1000h40v-480h480v-40z" />
    <glyph glyph-name="Identity.364" unicode="&#x251d;" 
d="M1000 320h-480v-440h-40v1000h40v-440h480v-120z" />
    <glyph glyph-name="Identity.365" unicode="&#x251e;" 
d="M1000 360h-480v-480h-40v480h-40v520h120v-480h440v-40z" />
    <glyph glyph-name="Identity.366" unicode="&#x251f;" 
d="M1000 360h-440v-480h-120v520h40v480h40v-480h480v-40z" />
    <glyph glyph-name="Identity.367" unicode="&#x2520;" 
d="M1000 360h-440v-480h-120v1000h120v-480h440v-40z" />
    <glyph glyph-name="Identity.368" unicode="&#x2521;" 
d="M1000 320h-480v-440h-40v440h-40v560h120v-440h440v-120z" />
    <glyph glyph-name="Identity.369" unicode="&#x2522;" 
d="M1000 320h-440v-440h-120v560h40v440h40v-440h480v-120z" />
    <glyph glyph-name="Identity.370" unicode="&#x2523;" 
d="M1000 320h-440v-440h-120v1000h120v-440h440v-120z" />
    <glyph glyph-name="Identity.371" unicode="&#x2524;" 
d="M520 -120h-40v480h-480v40h480v480h40v-1000z" />
    <glyph glyph-name="Identity.372" unicode="&#x2525;" 
d="M520 -120h-40v440h-480v120h480v440h40v-1000z" />
    <glyph glyph-name="Identity.373" unicode="&#x2526;" 
d="M560 360h-40v-480h-40v480h-480v40h440v480h120v-520z" />
    <glyph glyph-name="Identity.374" unicode="&#x2527;" 
d="M560 -120h-120v480h-440v40h480v480h40v-480h40v-520z" />
    <glyph glyph-name="Identity.375" unicode="&#x2528;" 
d="M560 -120h-120v480h-440v40h440v480h120v-1000z" />
    <glyph glyph-name="Identity.376" unicode="&#x2529;" 
d="M560 320h-40v-440h-40v440h-480v120h440v440h120v-560z" />
    <glyph glyph-name="Identity.377" unicode="&#x252a;" 
d="M560 -120h-120v440h-440v120h480v440h40v-440h40v-560z" />
    <glyph glyph-name="Identity.378" unicode="&#x252b;" 
d="M560 -120h-120v440h-440v120h440v440h120v-1000z" />
    <glyph glyph-name="Identity.379" unicode="&#x252c;" 
d="M1000 360h-480v-480h-40v480h-480v40h1000v-40z" />
    <glyph glyph-name="Identity.380" unicode="&#x252d;" 
d="M520 -120h-40v440h-480v120h520v-40h480v-40h-480v-480z" />
    <glyph glyph-name="Identity.381" unicode="&#x252e;" 
d="M1000 320h-480v-440h-40v480h-480v40h480v40h520v-120z" />
    <glyph glyph-name="Identity.382" unicode="&#x252f;" 
d="M1000 320h-480v-440h-40v440h-480v120h1000v-120z" />
    <glyph glyph-name="Identity.383" unicode="&#x2530;" 
d="M1000 360h-440v-480h-120v480h-440v40h1000v-40z" />
    <glyph glyph-name="Identity.384" unicode="&#x2531;" 
d="M1000 360h-440v-480h-120v440h-440v120h560v-40h440v-40z" />
    <glyph glyph-name="Identity.385" unicode="&#x2532;" 
d="M1000 320h-440v-440h-120v480h-440v40h440v40h560v-120z" />
    <glyph glyph-name="Identity.386" unicode="&#x2533;" 
d="M1000 320h-440v-440h-120v440h-440v120h1000v-120z" />
    <glyph glyph-name="Identity.387" unicode="&#x2534;" 
d="M1000 360h-1000v40h480v480h40v-480h480v-40z" />
    <glyph glyph-name="Identity.388" unicode="&#x2535;" 
d="M1000 360h-480v-40h-520v120h480v440h40v-480h480v-40z" />
    <glyph glyph-name="Identity.389" unicode="&#x2536;" 
d="M1000 320h-520v40h-480v40h480v480h40v-440h480v-120z" />
    <glyph glyph-name="Identity.390" unicode="&#x2537;" 
d="M1000 320h-1000v120h480v440h40v-440h480v-120z" />
    <glyph glyph-name="Identity.391" unicode="&#x2538;" 
d="M1000 360h-1000v40h440v480h120v-480h440v-40z" />
    <glyph glyph-name="Identity.392" unicode="&#x2539;" 
d="M0 320v120h440v440h120v-480h440v-40h-440v-40h-560z" />
    <glyph glyph-name="Identity.393" unicode="&#x253a;" 
d="M440 320v40h-440v40h440v480h120v-440h440v-120h-560z" />
    <glyph glyph-name="Identity.394" unicode="&#x253b;" 
d="M1000 320h-1000v120h440v440h120v-440h440v-120z" />
    <glyph glyph-name="Identity.395" unicode="&#x253c;" 
d="M1000 360h-480v-480h-40v480h-480v40h480v480h40v-480h480v-40z" />
    <glyph glyph-name="Identity.396" unicode="&#x253d;" 
d="M1000 360h-480v-480h-40v440h-480v120h480v440h40v-480h480v-40z" />
    <glyph glyph-name="Identity.397" unicode="&#x253e;" 
d="M1000 320h-480v-440h-40v480h-480v40h480v480h40v-440h480v-120z" />
    <glyph glyph-name="Identity.398" unicode="&#x253f;" 
d="M1000 320h-480v-440h-40v440h-480v120h480v440h40v-440h480v-120z" />
    <glyph glyph-name="Identity.399" unicode="&#x2540;" 
d="M1000 360h-480v-480h-40v480h-480v40h440v480h120v-480h440v-40z" />
    <glyph glyph-name="Identity.400" unicode="&#x2541;" 
d="M1000 360h-440v-480h-120v480h-440v40h480v480h40v-480h480v-40z" />
    <glyph glyph-name="Identity.401" unicode="&#x2542;" 
d="M1000 360h-440v-480h-120v480h-440v40h440v480h120v-480h440v-40z" />
    <glyph glyph-name="Identity.402" unicode="&#x2543;" 
d="M560 320h-40v-440h-40v440h-480v120h440v440h120v-480h440v-40h-440v-40z" />
    <glyph glyph-name="Identity.403" unicode="&#x2544;" 
d="M1000 320h-480v-440h-40v440h-40v40h-440v40h440v480h120v-440h440v-120z" />
    <glyph glyph-name="Identity.404" unicode="&#x2545;" 
d="M560 -120h-120v440h-440v120h480v440h40v-440h40v-40h440v-40h-440v-480z" />
    <glyph glyph-name="Identity.405" unicode="&#x2546;" 
d="M1000 320h-440v-440h-120v480h-440v40h440v40h40v440h40v-440h480v-120z" />
    <glyph glyph-name="Identity.406" unicode="&#x2547;" 
d="M1000 320h-480v-440h-40v440h-480v120h440v440h120v-440h440v-120z" />
    <glyph glyph-name="Identity.407" unicode="&#x2548;" 
d="M1000 320h-440v-440h-120v440h-440v120h480v440h40v-440h480v-120z" />
    <glyph glyph-name="Identity.408" unicode="&#x2549;" 
d="M1000 360h-440v-480h-120v440h-440v120h440v440h120v-480h440v-40z" />
    <glyph glyph-name="Identity.409" unicode="&#x254a;" 
d="M1000 320h-440v-440h-120v480h-440v40h440v480h120v-440h440v-120z" />
    <glyph glyph-name="Identity.410" unicode="&#x254b;" 
d="M1000 320h-440v-440h-120v440h-440v120h440v440h120v-440h440v-120z" />
    <glyph glyph-name="Identity.411" unicode="&#x254c;" 
d="M625 360v40h250v-40h-250zM125 360v40h250v-40h-250z" />
    <glyph glyph-name="Identity.412" unicode="&#x254d;" 
d="M625 320v120h250v-120h-250zM125 320v120h250v-120h-250z" />
    <glyph glyph-name="Identity.413" unicode="&#x254e;" 
d="M480 505v250h40v-250h-40zM480 5v250h40v-250h-40z" />
    <glyph glyph-name="Identity.414" unicode="&#x254f;" 
d="M440 505v250h120v-250h-120zM440 5v250h120v-250h-120z" />
    <glyph glyph-name="Identity.415" unicode="&#x2550;" 
d="M0 400v40h1000v-40h-1000zM0 320v40h1000v-40h-1000z" />
    <glyph glyph-name="Identity.416" unicode="&#x2551;" 
d="M520 -120v1000h40v-1000h-40zM440 -120v1000h40v-1000h-40z" />
    <glyph glyph-name="Identity.417" unicode="&#x2552;" 
d="M1000 320h-480v-440h-40v560h520v-40h-480v-40h480v-40z" />
    <glyph glyph-name="Identity.418" unicode="&#x2553;" 
d="M520 -120v480h-40v-480h-40v520h560v-40h-440v-480h-40z" />
    <glyph glyph-name="Identity.419" unicode="&#x2554;" 
d="M1000 400h-520v-520h-40v560h560v-40zM1000 320h-440v-440h-40v480h480v-40z" />
    <glyph glyph-name="Identity.420" unicode="&#x2555;" 
d="M520 -120h-40v440h-480v40h480v40h-480v40h520v-560z" />
    <glyph glyph-name="Identity.421" unicode="&#x2556;" 
d="M520 -120v480h-40v-480h-40v480h-440v40h560v-520h-40z" />
    <glyph glyph-name="Identity.422" unicode="&#x2557;" 
d="M560 -120h-40v520h-520v40h560v-560zM480 -120h-40v440h-440v40h480v-480z" />
    <glyph glyph-name="Identity.423" unicode="&#x2558;" 
d="M480 320v560h40v-440h480v-40h-480v-40h480v-40h-520z" />
    <glyph glyph-name="Identity.424" unicode="&#x2559;" 
d="M440 360v520h40v-480h40v480h40v-480h440v-40h-560z" />
    <glyph glyph-name="Identity.425" unicode="&#x255a;" 
d="M520 400v480h40v-440h440v-40h-480zM440 320v560h40v-520h520v-40h-560z" />
    <glyph glyph-name="Identity.426" unicode="&#x255b;" 
d="M0 320v40h480v40h-480v40h480v440h40v-560h-520z" />
    <glyph glyph-name="Identity.427" unicode="&#x255c;" 
d="M560 360h-560v40h440v480h40v-480h40v480h40v-520z" />
    <glyph glyph-name="Identity.428" unicode="&#x255d;" 
d="M480 400h-480v40h440v440h40v-480zM560 320h-560v40h520v520h40v-560z" />
    <glyph glyph-name="Identity.429" unicode="&#x255e;" 
d="M1000 320h-480v-440h-40v1000h40v-440h480v-40h-480v-40h480v-40z" />
    <glyph glyph-name="Identity.430" unicode="&#x255f;" 
d="M440 -120v1000h40v-1000h-40zM1000 360h-440v-480h-40v1000h40v-480h440v-40z" />
    <glyph glyph-name="Identity.431" unicode="&#x2560;" 
d="M440 -120v1000h40v-1000h-40zM520 400v480h40v-440h440v-40h-480zM1000 320h-440v-440h-40v480h480v-40z" />
    <glyph glyph-name="Identity.432" unicode="&#x2561;" 
d="M520 -120h-40v440h-480v40h480v40h-480v40h480v440h40v-1000z" />
    <glyph glyph-name="Identity.433" unicode="&#x2562;" 
d="M520 -120v1000h40v-1000h-40zM480 -120h-40v480h-440v40h440v480h40v-1000z" />
    <glyph glyph-name="Identity.434" unicode="&#x2563;" 
d="M520 -120v1000h40v-1000h-40zM480 400h-480v40h440v440h40v-480zM480 -120h-40v440h-440v40h480v-480z" />
    <glyph glyph-name="Identity.435" unicode="&#x2564;" 
d="M0 400v40h1000v-40h-1000zM1000 320h-480v-440h-40v440h-480v40h1000v-40z" />
    <glyph glyph-name="Identity.436" unicode="&#x2565;" 
d="M520 -120v480h-40v-480h-40v480h-440v40h1000v-40h-440v-480h-40z" />
    <glyph glyph-name="Identity.437" unicode="&#x2566;" 
d="M0 400v40h1000v-40h-1000zM1000 320h-440v-440h-40v480h480v-40zM480 -120h-40v440h-440v40h480v-480z" />
    <glyph glyph-name="Identity.438" unicode="&#x2567;" 
d="M1000 400h-1000v40h480v440h40v-440h480v-40zM0 320v40h1000v-40h-1000z" />
    <glyph glyph-name="Identity.439" unicode="&#x2568;" 
d="M1000 360h-1000v40h440v480h40v-480h40v480h40v-480h440v-40z" />
    <glyph glyph-name="Identity.440" unicode="&#x2569;" 
d="M520 400v480h40v-440h440v-40h-480zM480 400h-480v40h440v440h40v-480zM0 320v40h1000v-40h-1000z" />
    <glyph glyph-name="Identity.441" unicode="&#x256a;" 
d="M1000 320h-480v-440h-40v440h-480v40h480v40h-480v40h480v440h40v-440h480v-40h-480v-40h480v-40z" />
    <glyph glyph-name="Identity.442" unicode="&#x256b;" 
d="M520 -120v480h-40v-480h-40v480h-440v40h440v480h40v-480h40v480h40v-480h440v-40h-440v-480h-40z" />
    <glyph glyph-name="Identity.443" unicode="&#x256c;" 
d="M520 400v480h40v-440h440v-40h-480zM480 400h-480v40h440v440h40v-480zM1000 320h-440v-440h-40v480h480v-40zM480 -120h-40v440h-440v40h480v-480z" />
    <glyph glyph-name="Identity.444" unicode="&#x256d;" 
d="M520 -120h-40c0 287 233 520 520 520v-40c-265 0 -480 -215 -480 -480z" />
    <glyph glyph-name="Identity.445" unicode="&#x256e;" 
d="M480 -120c0 265 -215 480 -480 480v40c287 0 520 -233 520 -520h-40z" />
    <glyph glyph-name="Identity.446" unicode="&#x256f;" 
d="M0 360v40c265 0 480 215 480 480h40c0 -287 -233 -520 -520 -520z" />
    <glyph glyph-name="Identity.447" unicode="&#x2570;" 
d="M1000 360c-287 0 -520 233 -520 520h40c0 -265 215 -480 480 -480v-40z" />
    <glyph glyph-name="Identity.448" unicode="&#x2571;" 
d="M0 -92l972 972h28v-28l-972 -972h-28v28z" />
    <glyph glyph-name="Identity.449" unicode="&#x2572;" 
d="M28 880l972 -972v-28h-28l-972 972v28h28z" />
    <glyph glyph-name="Identity.450" unicode="&#x2573;" 
d="M972 -120l-472 472l-472 -472h-28v28l472 472l-472 472v28h28l472 -472l472 472h28v-28l-472 -472l472 -472v-28h-28z" />
    <glyph glyph-name="Identity.451" unicode="&#x2574;" 
d="M0 360v40h520v-40h-520z" />
    <glyph glyph-name="Identity.452" unicode="&#x2575;" 
d="M480 360v520h40v-520h-40z" />
    <glyph glyph-name="Identity.453" unicode="&#x2576;" 
d="M480 360v40h520v-40h-520z" />
    <glyph glyph-name="Identity.454" unicode="&#x2577;" 
d="M480 -120v520h40v-520h-40z" />
    <glyph glyph-name="Identity.455" unicode="&#x2578;" 
d="M0 320v120h520v-120h-520z" />
    <glyph glyph-name="Identity.456" unicode="&#x2579;" 
d="M440 360v520h120v-520h-120z" />
    <glyph glyph-name="Identity.457" unicode="&#x257a;" 
d="M480 320v120h520v-120h-520z" />
    <glyph glyph-name="Identity.458" unicode="&#x257b;" 
d="M440 -120v520h120v-520h-120z" />
    <glyph glyph-name="Identity.459" unicode="&#x257c;" 
d="M1000 320h-520v40h-480v40h480v40h520v-120z" />
    <glyph glyph-name="Identity.460" unicode="&#x257d;" 
d="M560 -120h-120v520h40v480h40v-480h40v-520z" />
    <glyph glyph-name="Identity.461" unicode="&#x257e;" 
d="M1000 360h-480v-40h-520v120h520v-40h480v-40z" />
    <glyph glyph-name="Identity.462" unicode="&#x257f;" 
d="M560 360h-40v-480h-40v480h-40v520h120v-520z" />
    <glyph glyph-name="Identity.463" unicode="&#x25a0;" 
d="M100 780h800v-800h-800v800z" />
    <glyph glyph-name="Identity.464" unicode="&#x25a1;" 
d="M100 780h800v-800h-800v800zM137 743v-726h726v726h-726z" />
    <glyph glyph-name="Identity.465" unicode="&#x25b2;" 
d="M500 826l470 -814h-940z" />
    <glyph glyph-name="Identity.466" unicode="&#x25b3;" 
d="M500 826l470 -814h-940zM500 752l-406 -703h812z" />
    <glyph glyph-name="Identity.467" unicode="&#x25bc;" 
d="M30 748h940l-470 -814z" />
    <glyph glyph-name="Identity.468" unicode="&#x25bd;" 
d="M30 748h940l-470 -814zM906 711h-812l406 -703z" />
    <glyph glyph-name="Identity.469" unicode="&#x25c6;" 
d="M500 868l488 -488l-488 -488l-488 488z" />
    <glyph glyph-name="Identity.470" unicode="&#x25c7;" 
d="M500 868l488 -488l-488 -488l-488 488zM500 815l-435 -435l435 -435l435 435z" />
    <glyph glyph-name="Identity.471" unicode="&#x25cb;" 
d="M500 -70c-249 0 -450 201 -450 450s201 450 450 450s450 -201 450 -450s-201 -450 -450 -450zM87 380c0 -228 185 -413 413 -413s413 185 413 413s-185 413 -413 413s-413 -185 -413 -413z" />
    <glyph glyph-name="Identity.472" unicode="&#x25ce;" 
d="M50 380c0 249 201 450 450 450s450 -201 450 -450s-201 -450 -450 -450s-450 201 -450 450zM913 380c0 228 -185 413 -413 413s-413 -185 -413 -413s185 -413 413 -413s413 185 413 413zM204 380c0 164 132 296 296 296s296 -132 296 -296s-132 -296 -296 -296
s-296 132 -296 296zM765 380c0 146 -119 265 -265 265s-265 -119 -265 -265s119 -265 265 -265s265 119 265 265z" />
    <glyph glyph-name="Identity.473" unicode="&#x25cf;" 
d="M500 -70c-249 0 -450 201 -450 450s201 450 450 450s450 -201 450 -450s-201 -450 -450 -450z" />
    <glyph glyph-name="Identity.474" unicode="&#x25ef;" 
d="M500 846c257 0 466 -209 466 -466s-209 -466 -466 -466s-466 209 -466 466s209 466 466 466zM934 380c0 240 -194 434 -434 434s-434 -194 -434 -434s194 -434 434 -434s434 194 434 434z" />
    <glyph glyph-name="Identity.475" unicode="&#x2605;" 
d="M612 485h350v-4l-283 -205l111 -338l-3 -1l-287 208l-287 -208l-3 1l111 338l-283 205v4h350l110 336h4z" />
    <glyph glyph-name="Identity.476" unicode="&#x2606;" 
d="M388 485l108 336h8l108 -336h350l1 -9l-284 -200l113 -335l-7 -6l-285 210l-285 -210l-7 6l113 335l-284 200l1 9h350zM415 448h-188l-99 5v-2l87 -55l150 -106l-56 -166l-41 -106l2 -1l90 71l140 103l140 -103l90 -71l2 1l-41 106l-56 166l150 106l87 55v2l-100 -5h-187
l-58 179l-26 97h-2l-27 -97z" />
    <glyph glyph-name="Identity.477" unicode="&#x2640;" 
d="M284 604c0 121 96 216 216 216s216 -95 216 -216c0 -106 -78 -195 -182 -212v-108h286v-68h-286v-276h-68v276h-286v68h286v108c-104 17 -182 106 -182 212zM647 604c0 82 -66 147 -147 147s-147 -65 -147 -147c0 -81 66 -146 147 -146s147 65 147 146z" />
    <glyph glyph-name="Identity.478" unicode="&#x2642;" 
d="M548 212c0 -119 -97 -216 -216 -216s-216 97 -216 216s97 216 216 216c45 0 88 -15 124 -41l288 287h-257v69h376v-376h-69v260l-289 -288c27 -35 43 -80 43 -127zM185 212c0 -81 66 -147 147 -147s147 66 147 147s-66 147 -147 147s-147 -66 -147 -147z" />
    <glyph glyph-name="Identity.479" unicode="&#x266a;" 
d="M486 840h25c0 -96 55 -167 116 -220s129 -131 129 -225c0 -84 -36 -167 -84 -244h-26c22 46 63 130 63 210c0 116 -79 208 -183 231v-502c0 -104 -88 -170 -183 -170c-46 0 -93 25 -93 74c0 71 91 138 173 138c23 0 48 -5 63 -13v721z" />
    <glyph glyph-name="Identity.480" unicode="&#x266c;" 
d="M260 727l585 128v-652c0 -104 -88 -170 -183 -170c-46 0 -93 25 -93 74c0 71 91 138 173 138c23 0 48 -5 63 -13v342l-505 -110v-389c0 -104 -88 -170 -183 -170c-46 0 -93 25 -93 74c0 71 91 138 173 138c23 0 48 -5 63 -13v623zM805 674v72l-505 -110v-72z" />
    <glyph glyph-name="Identity.481" unicode="&#x266d;" 
d="M601 474c88 0 140 -56 140 -126c0 -204 -252 -246 -384 -404h-9v872h39v-484c46 81 126 142 214 142zM387 17c110 119 255 175 255 314c0 61 -35 87 -80 87c-51 0 -121 -42 -175 -140v-261z" />
    <glyph glyph-name="Identity.482" unicode="&#x266f;" 
d="M760 527l-135 -20v-205l135 20v-84l-135 -19v-244h-39v238l-175 -25v-244h-39v238l-136 -20v83l136 20v205l-136 -20v84l136 20v233h39v-227l175 25v233h39v-227l135 19v-83zM586 296v205l-175 -25v-205z" />
    <glyph glyph-name="Identity.483" unicode="&#x3000;" 
 />
    <glyph glyph-name="Identity.484" unicode="&#x3001;" 
d="M341 2l-68 -58c-64 80 -150 165 -221 223l65 57c72 -58 162 -149 224 -222z" />
    <glyph glyph-name="Identity.485" unicode="&#x3002;" 
d="M194 244c85 0 153 -68 153 -152s-68 -153 -153 -153c-83 0 -152 69 -152 153s69 152 152 152zM194 -10c57 0 101 45 101 102c0 55 -44 101 -101 101c-55 0 -101 -46 -101 -101c0 -57 46 -102 101 -102z" />
    <glyph glyph-name="Identity.486" unicode="&#x3003;" 
d="M389 622l94 -40l-206 -454l-49 20zM678 622l94 -40l-206 -454l-49 20z" />
    <glyph glyph-name="Identity.487" unicode="&#x3005;" 
d="M783 590l56 -30c-47 -131 -133 -285 -217 -397c56 -39 107 -78 141 -114l-53 -68c-76 83 -241 193 -382 261l48 60c57 -26 120 -60 179 -96c67 88 133 207 175 306h-339c-59 -117 -132 -227 -218 -311c-17 14 -49 34 -70 44c149 138 258 359 314 544l83 -19
c-20 -60 -45 -122 -73 -183h341z" />
    <glyph glyph-name="Identity.488" unicode="&#x3006;" 
d="M795 780l72 -47c-72 -84 -163 -198 -254 -315c82 -59 170 -128 234 -184l-60 -74c-59 60 -147 129 -227 189c-95 -122 -186 -244 -255 -334c-25 -32 -42 -60 -57 -83l-74 24c3 17 4 38 4 52c-2 67 -9 172 -20 244l76 10c6 -62 11 -137 13 -186c73 95 160 209 248 321
c-71 52 -155 109 -227 147l57 67c63 -38 154 -98 223 -146c91 117 179 229 247 315z" />
    <glyph glyph-name="Identity.489" unicode="&#x3007;" 
d="M49 380c0 249 202 451 451 451s451 -202 451 -451s-202 -451 -451 -451s-451 202 -451 451zM874 380c0 207 -167 374 -374 374s-374 -167 -374 -374s167 -374 374 -374s374 167 374 374z" />
    <glyph glyph-name="Identity.490" unicode="&#x3008;" 
d="M668 380l280 -437l-63 -29l-297 466l297 466l63 -29z" />
    <glyph glyph-name="Identity.491" unicode="&#x3009;" 
d="M115 -86l-63 29l280 437l-280 437l63 29l297 -466z" />
    <glyph glyph-name="Identity.492" unicode="&#x300a;" 
d="M591 380l215 -448l-54 -18l-222 466l222 466l54 -18zM749 380l215 -448l-54 -18l-222 466l222 466l54 -18z" />
    <glyph glyph-name="Identity.493" unicode="&#x300b;" 
d="M248 -86l-54 18l215 448l-215 448l54 18l222 -466zM90 -86l-54 18l215 448l-215 448l54 18l222 -466z" />
    <glyph glyph-name="Identity.494" unicode="&#x300c;" 
d="M650 199v647h316v-69h-242v-578h-74z" />
    <glyph glyph-name="Identity.495" unicode="&#x300d;" 
d="M350 561v-647h-316v69h242v578h74z" />
    <glyph glyph-name="Identity.496" unicode="&#x300e;" 
d="M966 690h-196v-507h-171v663h367v-156zM933 813h-301v-597h105v507h196v90z" />
    <glyph glyph-name="Identity.497" unicode="&#x300f;" 
d="M34 70h196v507h171v-663h-367v156zM67 -53h301v597h-105v-507h-196v-90z" />
    <glyph glyph-name="Identity.498" unicode="&#x3010;" 
d="M666 846h300v-5c-109 -92 -198 -258 -198 -461s89 -369 198 -461v-5h-300v932z" />
    <glyph glyph-name="Identity.499" unicode="&#x3011;" 
d="M334 846v-932h-300v5c109 92 198 258 198 461s-89 369 -198 461v5h300z" />
    <glyph glyph-name="Identity.500" unicode="&#x3012;" 
d="M165 718h670v-81h-670v81zM165 509h670v-81h-291v-418h-88v418h-291v81z" />
    <glyph glyph-name="Identity.501" unicode="&#x3013;" 
d="M900 780v-300h-800v300h800zM900 280v-300h-800v300h800z" />
    <glyph glyph-name="Identity.502" unicode="&#x3014;" 
d="M928 -98l-215 140v676l215 140l33 -52l-178 -114v-624l178 -114z" />
    <glyph glyph-name="Identity.503" unicode="&#x3015;" 
d="M288 42l-216 -140l-33 52l178 114v624l-178 114l33 52l216 -140v-676z" />
    <glyph glyph-name="Identity.504" unicode="&#x301c;" 
d="M697 245c-91 0 -155 38 -225 107c-54 51 -97 82 -170 82c-79 0 -148 -53 -189 -132l-71 38c63 114 155 175 261 175c91 0 155 -37 225 -107c54 -51 98 -82 170 -82c79 0 148 53 189 132l71 -38c-63 -114 -155 -175 -261 -175z" />
    <glyph glyph-name="Identity.505" unicode="&#x301d;" 
d="M715 849l233 -164l-23 -48l-250 137zM715 661l233 -164l-23 -47l-250 136z" />
    <glyph glyph-name="Identity.506" unicode="&#x301f;" 
d="M285 -89l-233 164l23 48l250 -137zM285 99l-233 164l23 47l250 -136z" />
    <glyph glyph-name="Identity.507" unicode="&#x3041;" 
d="M453 340v-23c0 -56 5 -107 13 -154c51 51 98 115 131 201h-10c-51 0 -97 -11 -134 -24zM386 309c-74 -43 -136 -118 -136 -189c0 -32 19 -47 48 -47c30 0 68 15 108 41c-12 60 -20 129 -20 195zM629 475l69 -17c-4 -9 -12 -33 -16 -46c106 -29 164 -107 164 -201
c0 -110 -74 -219 -272 -251l-39 62c146 15 240 91 240 195c0 63 -40 117 -114 137c-46 -114 -108 -201 -179 -263c6 -23 12 -45 19 -65l-67 -19c-4 13 -9 27 -13 42c-45 -26 -95 -43 -134 -43c-59 0 -103 31 -103 104c0 114 95 218 204 268c2 41 5 80 9 116
c-16 -1 -31 -1 -46 -1c-35 0 -102 4 -135 7l-2 68c28 -5 106 -11 137 -11c17 0 35 0 52 1c3 24 5 45 7 63c2 14 3 30 2 40l79 -1c-3 -11 -6 -25 -9 -39c-3 -17 -6 -37 -10 -61c99 5 197 16 286 35l1 -67c-83 -14 -194 -26 -295 -31c-3 -30 -6 -62 -8 -94c45 13 93 20 133 20
c9 0 19 0 28 -1v1c4 11 10 40 12 52z" />
    <glyph glyph-name="Identity.508" unicode="&#x3042;" 
d="M611 440h-16c-64 0 -121 -14 -168 -31v-39c0 -63 7 -123 17 -180c65 61 124 141 167 250zM357 361v17c-96 -55 -169 -153 -169 -233c0 -40 19 -60 56 -60c38 0 86 17 136 52c-14 71 -23 150 -23 224zM705 495l-1 -4c124 -33 198 -125 198 -234c0 -142 -94 -266 -324 -302
l-43 67c178 19 288 111 288 239c0 75 -49 143 -142 168c-55 -140 -135 -249 -219 -320c8 -28 16 -55 24 -80l-73 -22c-5 17 -11 35 -16 55c-54 -33 -113 -54 -166 -54c-67 0 -118 40 -118 125c0 127 111 258 247 320c2 50 7 100 11 146c-21 -1 -41 -1 -60 -1
c-43 0 -120 4 -160 6l-2 75c34 -5 121 -12 163 -12c22 0 44 0 66 1c3 29 6 55 8 76c2 16 3 35 3 47l84 -2c-5 -13 -9 -31 -12 -44c-4 -21 -8 -46 -12 -75c125 6 245 19 347 42l1 -75c-104 -17 -236 -30 -357 -36c-4 -38 -7 -80 -10 -122c55 17 116 26 166 26
c12 0 24 0 36 -1l3 9c4 15 9 41 10 57l80 -20c-6 -13 -14 -40 -20 -55z" />
    <glyph glyph-name="Identity.509" unicode="&#x3043;" 
d="M273 570c-2 -13 -6 -66 -6 -84c0 -44 1 -163 10 -228c16 -115 55 -193 103 -193c42 0 79 91 100 172l61 -65c-49 -136 -96 -193 -161 -193c-73 0 -150 66 -176 266c-9 69 -13 205 -13 247c0 19 -1 66 -4 79zM701 545c86 -104 138 -298 148 -409l-77 -31
c-10 117 -56 313 -145 416z" />
    <glyph glyph-name="Identity.510" unicode="&#x3044;" 
d="M226 696c-4 -24 -7 -70 -8 -96c-1 -62 0 -153 7 -234c16 -166 64 -275 134 -275c51 0 97 102 123 202l63 -72c-59 -168 -120 -225 -188 -225c-93 0 -183 93 -210 350c-10 86 -11 206 -11 264c0 23 -1 64 -6 88zM742 669c89 -115 160 -318 174 -485l-81 -32
c-17 178 -77 374 -171 490z" />
    <glyph glyph-name="Identity.511" unicode="&#x3045;" 
d="M696 259c0 78 -62 118 -139 118c-83 0 -174 -27 -226 -43c-24 -7 -51 -17 -66 -24l-24 84c23 1 51 6 73 11c56 12 163 41 250 41c123 0 210 -67 210 -188c0 -168 -143 -277 -377 -314l-41 71c199 24 340 101 340 244zM353 636c93 -19 264 -36 355 -39l-11 -70
c-82 4 -268 24 -356 41z" />
    <glyph glyph-name="Identity.512" unicode="&#x3046;" 
d="M717 335c0 83 -67 142 -169 142c-114 0 -211 -34 -270 -51c-30 -8 -59 -20 -83 -29l-25 92c27 3 61 9 90 15c70 16 183 48 296 48c141 0 246 -79 246 -220c0 -215 -191 -337 -448 -375l-47 76c240 30 410 124 410 302zM302 781c109 -25 324 -45 421 -46l-12 -77
c-110 7 -310 27 -422 47z" />
    <glyph glyph-name="Identity.513" unicode="&#x3047;" 
d="M352 636c82 -22 263 -40 330 -44l-10 -70c-73 6 -247 29 -331 46zM699 399c-13 -9 -29 -21 -38 -28c-25 -21 -124 -114 -157 -149c7 0 18 -1 27 -5c36 -3 55 -31 65 -64c7 -25 18 -65 25 -85c10 -29 33 -40 68 -40c48 0 115 9 152 19l-4 -77c-32 -6 -108 -13 -158 -13
c-70 0 -107 22 -122 71c-8 24 -19 69 -25 89c-10 28 -21 47 -51 47c-20 0 -39 -12 -58 -31c-29 -27 -117 -121 -162 -179l-71 49c11 9 20 17 36 32c76 75 254 246 335 331c-47 -5 -193 -15 -241 -19c-27 -3 -51 -6 -68 -10l-6 82c17 -2 45 -2 70 -1c45 1 243 12 303 21
c13 1 28 5 36 8z" />
    <glyph glyph-name="Identity.514" unicode="&#x3048;" 
d="M314 786c108 -23 297 -46 391 -52l-11 -74c-99 9 -272 31 -393 53zM725 503c-18 -13 -43 -34 -54 -45c-38 -34 -148 -136 -185 -175c10 1 28 0 37 -3c39 -4 62 -30 76 -71c9 -29 22 -79 33 -111c11 -37 34 -53 85 -53c65 0 141 9 187 21l-5 -85c-42 -7 -133 -14 -186 -14
c-79 0 -129 18 -151 84c-9 29 -24 87 -33 116c-12 34 -33 52 -60 52s-50 -14 -73 -36c-37 -36 -144 -148 -200 -219l-77 52c13 10 31 26 49 45c40 39 310 309 408 407c-78 -5 -244 -20 -305 -25c-32 -2 -58 -6 -80 -9l-7 88c23 -2 53 -3 84 -2c57 1 287 17 362 26
c17 2 38 7 47 11z" />
    <glyph glyph-name="Identity.515" unicode="&#x3049;" 
d="M330 24c21 0 29 17 29 39c0 29 -2 84 -4 143c-58 -30 -111 -73 -111 -114c0 -33 57 -68 86 -68zM423 304v-5c57 18 117 28 175 28c124 0 215 -65 215 -169c0 -95 -62 -170 -194 -195c-34 -7 -70 -8 -91 -9l-24 73c30 -1 64 -1 96 5c76 14 139 56 139 126
c0 72 -64 106 -142 106c-69 0 -123 -12 -173 -30c1 -72 4 -148 4 -185c0 -72 -29 -99 -78 -99c-65 0 -177 63 -177 136c0 80 97 152 181 188v27c0 35 1 76 1 116c-21 -1 -43 -2 -63 -2c-32 0 -56 1 -104 5l-1 74c48 -6 83 -8 105 -8c21 0 42 1 65 2c0 36 1 65 1 79
c0 16 -2 45 -4 57h81c-2 -13 -5 -42 -6 -57c-1 -17 -2 -43 -3 -73c61 7 120 18 168 32l2 -72c-34 -7 -100 -21 -172 -30c0 -41 -1 -84 -1 -120zM656 497l35 59c57 -29 151 -88 191 -121l-40 -62c-38 37 -136 99 -186 124z" />
    <glyph glyph-name="Identity.516" unicode="&#x304a;" 
d="M294 57c23 0 35 17 35 48c0 36 -2 103 -3 175c-80 -38 -139 -94 -139 -139s68 -84 107 -84zM398 414v-33c75 24 152 36 217 36c144 0 248 -79 248 -197c0 -120 -75 -196 -211 -229c-44 -10 -88 -12 -122 -13l-28 79c37 0 78 -1 116 7c87 16 166 63 166 155
c0 84 -76 129 -170 129c-74 0 -144 -14 -215 -39c2 -84 4 -171 4 -214c0 -92 -35 -121 -88 -121c-78 0 -207 75 -207 164c0 81 103 167 217 216v56c0 40 0 86 1 130c-27 -2 -52 -3 -73 -3c-45 0 -88 1 -126 5l-2 76c54 -7 90 -8 126 -8c23 0 49 1 76 3c1 52 2 95 2 113
c0 20 -2 53 -6 70h87c-2 -18 -4 -45 -5 -68c-1 -24 -2 -63 -3 -107c72 9 147 23 203 40l1 -79c-58 -13 -134 -26 -206 -34c-1 -47 -2 -94 -2 -134zM683 626l36 61c70 -37 178 -105 226 -145l-40 -64c-49 47 -159 114 -222 148z" />
    <glyph glyph-name="Identity.517" unicode="&#x304b;" 
d="M346 787l93 -10c-4 -18 -8 -39 -12 -58c-5 -29 -14 -87 -25 -140c46 3 87 6 111 6c88 0 161 -34 161 -168c0 -118 -17 -274 -58 -357c-31 -66 -80 -83 -145 -83c-37 0 -85 8 -116 15l-13 84c41 -13 94 -22 121 -22c37 0 66 8 87 51c31 67 46 195 46 303
c0 90 -41 106 -104 106c-24 0 -63 -3 -106 -7c-36 -142 -103 -364 -208 -532l-82 33c101 135 175 359 208 491c-51 -5 -99 -10 -125 -13c-23 -3 -63 -8 -89 -12l-8 87c31 -2 57 -1 88 0c33 1 91 6 151 11c14 71 25 148 25 215zM706 640l74 32c62 -80 147 -262 181 -354
l-78 -37c-29 102 -107 276 -177 359z" />
    <glyph glyph-name="Identity.518" unicode="&#x304c;" 
d="M974 710l-54 -24c-22 43 -55 100 -83 138l53 22c26 -36 65 -99 84 -136zM862 669l-55 -24c-20 40 -54 101 -81 139l53 22c25 -35 62 -97 83 -137zM332 783l94 -9c-4 -19 -9 -39 -12 -59c-6 -29 -15 -87 -26 -140c46 4 87 7 111 7c89 0 161 -35 161 -169
c0 -118 -16 -274 -57 -357c-32 -66 -81 -82 -145 -82c-38 0 -85 7 -117 14l-13 85c42 -14 94 -22 122 -22c36 0 65 8 86 51c32 66 47 195 47 302c0 90 -41 106 -105 106c-24 0 -63 -3 -106 -7c-36 -142 -104 -365 -208 -531l-81 33c101 135 174 358 208 490
c-52 -5 -99 -10 -125 -13c-24 -3 -64 -7 -89 -12l-8 87c31 -1 56 -1 88 0c33 1 90 6 150 11c14 71 26 148 25 215zM693 627l73 34c62 -80 148 -260 181 -352l-77 -38c-30 102 -108 275 -177 356z" />
    <glyph glyph-name="Identity.519" unicode="&#x304d;" 
d="M211 268l77 -7c-12 -31 -23 -75 -23 -101c0 -76 60 -124 201 -124c80 0 174 7 244 23l-2 -81c-62 -11 -158 -19 -239 -19c-177 0 -281 61 -281 185c0 42 12 88 23 124zM842 539l15 -72c-44 -15 -101 -29 -168 -42c29 -63 61 -130 89 -182l-39 -49c-50 9 -130 20 -193 28
l7 61c48 -6 95 -11 126 -14c-19 39 -42 91 -65 143c-128 -17 -290 -19 -443 -9l-3 73c151 -14 298 -13 416 2l-35 81c-8 17 -15 35 -22 51c-100 -9 -225 -9 -348 2l-5 73c118 -13 229 -15 324 -8c-5 11 -9 21 -13 30c-15 31 -24 49 -37 70l90 19c9 -34 22 -72 37 -110
c69 11 139 26 197 47l14 -71c-51 -16 -116 -31 -184 -42l18 -41c8 -21 22 -52 39 -89c78 14 138 32 183 49z" />
    <glyph glyph-name="Identity.520" unicode="&#x304e;" 
d="M169 262l76 -6c-12 -32 -23 -75 -23 -101c0 -76 60 -124 202 -124c80 0 173 7 243 22l-2 -80c-61 -11 -158 -19 -239 -19c-176 0 -280 61 -280 184c0 42 12 89 23 124zM800 533l15 -71c-44 -15 -101 -30 -168 -43c29 -62 61 -130 88 -182l-38 -48c-50 8 -130 19 -194 27
l7 62c49 -6 95 -11 126 -14c-19 39 -42 91 -65 142c-127 -17 -289 -18 -443 -9l-3 74c152 -14 297 -13 416 2l-35 81l-22 51c-100 -9 -224 -10 -348 2l-5 73c119 -13 229 -15 324 -8c-4 11 -9 20 -13 29c-14 31 -23 49 -37 71l90 18c10 -33 23 -71 38 -109
c64 8 115 20 172 40l14 -72c-49 -15 -96 -26 -159 -35l17 -41c9 -20 23 -52 40 -89c78 14 137 32 183 49zM708 780l50 22c24 -33 61 -94 83 -139l-52 -24c-23 49 -51 99 -81 141zM814 819l49 23c25 -32 63 -93 86 -136l-51 -25c-24 47 -53 97 -84 138z" />
    <glyph glyph-name="Identity.521" unicode="&#x304f;" 
d="M628 801l75 -66c-22 -16 -52 -42 -68 -56c-69 -59 -211 -173 -284 -233c-60 -52 -60 -67 4 -120c90 -72 273 -224 370 -320l-72 -65c-20 24 -47 49 -68 72c-54 58 -219 199 -312 275c-93 78 -83 123 7 198c74 63 224 181 291 249c20 20 46 48 57 66z" />
    <glyph glyph-name="Identity.522" unicode="&#x3050;" 
d="M639 569c25 -37 66 -109 87 -147l-56 -24c-21 41 -58 109 -84 148zM756 614c26 -35 67 -104 88 -144l-54 -24c-23 42 -60 106 -88 144zM615 801l74 -66c-21 -16 -51 -42 -68 -56c-68 -59 -210 -173 -283 -233c-60 -52 -61 -67 3 -120c90 -72 274 -224 370 -320l-71 -65
c-20 24 -47 49 -68 72c-54 58 -220 199 -312 275c-94 78 -83 123 6 198c75 63 225 181 292 249c20 20 45 48 57 66z" />
    <glyph glyph-name="Identity.523" unicode="&#x3051;" 
d="M165 771l94 -9c-6 -18 -13 -45 -18 -64c-31 -144 -64 -359 -28 -521c14 42 34 101 52 150l44 -27c-24 -69 -54 -169 -64 -218c-3 -15 -5 -33 -5 -44l3 -34l-68 -8c-20 60 -52 189 -52 314c0 160 25 313 37 395c4 23 5 49 5 66zM918 593v-82c-45 -8 -101 -14 -160 -18v-34
c0 -228 0 -389 -210 -513l-73 58c31 13 72 37 97 62c106 92 111 203 111 394v29c-42 -2 -85 -3 -126 -3c-47 0 -117 3 -160 7v80c43 -7 106 -11 159 -11c41 0 83 1 125 3c-2 62 -4 128 -6 153c-2 22 -6 44 -9 59h93c-2 -17 -2 -36 -3 -58s0 -87 1 -149c58 5 114 12 161 23z
" />
    <glyph glyph-name="Identity.524" unicode="&#x3052;" 
d="M877 644l-50 -18c-15 44 -37 102 -56 141l48 15c19 -37 44 -98 58 -138zM154 745l93 -9c-5 -18 -13 -45 -17 -64c-32 -143 -64 -350 -28 -512c14 41 34 101 52 150l44 -27c-24 -69 -54 -170 -64 -219c-3 -14 -6 -32 -5 -44c1 -9 2 -23 3 -33l-69 -9
c-19 61 -52 190 -52 314c0 161 26 305 38 388c4 22 5 48 5 65zM642 751h94c-3 -20 -4 -37 -4 -58c-1 -22 1 -87 2 -147c63 5 123 13 173 25v-83c-48 -8 -108 -14 -172 -18v-28c0 -228 -1 -390 -210 -514l-74 58c31 13 72 38 97 62c106 92 111 204 111 394v24
c-38 -1 -76 -2 -113 -2c-47 0 -117 3 -160 6v80c43 -6 106 -11 159 -11c36 0 74 1 113 2c-2 61 -4 126 -6 152c-2 21 -6 42 -10 58zM871 797l48 16c19 -37 44 -98 60 -138l-50 -17c-16 45 -37 101 -58 139z" />
    <glyph glyph-name="Identity.525" unicode="&#x3053;" 
d="M237 619v82c72 -9 163 -13 262 -13c95 0 196 7 267 14v-82c-67 -5 -176 -12 -267 -12c-99 0 -183 4 -262 11zM196 309l82 -8c-12 -40 -20 -76 -20 -113c0 -74 76 -126 234 -126c137 0 264 15 339 38l1 -86c-71 -19 -197 -34 -338 -34c-201 0 -318 66 -318 190
c0 52 11 98 20 139z" />
    <glyph glyph-name="Identity.526" unicode="&#x3054;" 
d="M779 802c25 -35 61 -97 82 -137l-54 -25c-20 41 -54 102 -82 140zM889 843c27 -37 65 -100 85 -137l-55 -24c-21 43 -54 100 -83 138zM219 608v82c72 -9 163 -13 262 -13c95 0 196 7 267 14v-82c-67 -5 -175 -12 -267 -12c-99 0 -183 4 -262 11zM179 298l81 -8
c-12 -39 -20 -75 -20 -112c0 -75 76 -127 234 -127c137 0 264 15 339 38l1 -85c-71 -20 -197 -35 -338 -35c-201 0 -318 67 -318 191c0 52 11 98 21 138z" />
    <glyph glyph-name="Identity.527" unicode="&#x3055;" 
d="M206 312l81 -7c-16 -38 -28 -95 -28 -125c0 -87 59 -139 207 -139c131 0 190 12 260 27l-1 -83c-62 -11 -129 -23 -260 -23c-184 0 -286 74 -286 198c0 43 11 98 27 152zM831 681l15 -79c-61 -16 -126 -31 -187 -41c36 -79 90 -194 133 -277l-46 -48
c-43 9 -141 23 -205 29l8 65c38 -3 107 -11 140 -14c-28 61 -78 164 -108 233c-128 -15 -270 -15 -421 -2l-3 80c144 -19 279 -18 393 -6l-33 73c-17 37 -26 56 -42 83l89 17c24 -66 42 -110 64 -163c68 12 135 28 203 50z" />
    <glyph glyph-name="Identity.528" unicode="&#x3056;" 
d="M200 304l81 -7c-16 -37 -28 -95 -28 -124c0 -88 59 -140 207 -140c131 0 189 12 260 27l-1 -82c-62 -11 -129 -23 -260 -23c-185 0 -286 73 -286 198c0 43 11 97 27 151zM719 799l54 23c25 -36 61 -97 81 -138l-29 -13l14 -76c-60 -17 -124 -31 -186 -41
c35 -78 88 -193 133 -277l-46 -48c-43 9 -141 23 -206 29l9 65c37 -4 107 -11 140 -15c-29 62 -78 164 -108 234c-128 -16 -270 -16 -421 -3l-3 80c144 -19 279 -18 392 -6l-33 73c-16 38 -25 57 -42 83l90 18c23 -67 42 -111 64 -163c59 10 116 24 175 41
c-20 41 -52 98 -78 134zM830 839l53 22c27 -37 65 -99 84 -137l-54 -24c-22 44 -54 101 -83 139z" />
    <glyph glyph-name="Identity.529" unicode="&#x3057;" 
d="M241 777l101 -1c-5 -32 -8 -67 -10 -99c-4 -112 -12 -346 -12 -494c0 -109 70 -147 162 -147c182 0 285 102 356 205l55 -69c-67 -94 -195 -218 -413 -218c-142 0 -240 60 -240 221c0 147 10 397 10 502c0 36 -3 71 -9 100z" />
    <glyph glyph-name="Identity.530" unicode="&#x3058;" 
d="M604 690c25 -36 72 -111 96 -159l-59 -27c-26 53 -61 116 -94 162zM733 741c26 -35 75 -110 99 -156l-58 -28c-27 52 -63 114 -97 158zM227 771l101 -1c-5 -33 -8 -67 -10 -99c-4 -112 -12 -347 -12 -495c0 -108 71 -146 163 -146c181 0 284 102 355 205l55 -69
c-67 -94 -195 -218 -413 -218c-142 0 -240 60 -240 221c0 147 10 397 10 502c0 36 -3 71 -9 100z" />
    <glyph glyph-name="Identity.531" unicode="&#x3059;" 
d="M480 234c58 0 96 47 87 141c-16 43 -49 61 -88 61c-51 0 -100 -40 -100 -104c0 -62 46 -98 101 -98zM633 592h-13c0 -56 1 -117 2 -162c21 -34 32 -78 32 -127c0 -134 -65 -283 -295 -352l-69 67c130 30 222 84 263 172c-24 -17 -52 -25 -85 -25c-84 0 -164 59 -164 166
c0 98 81 173 175 173c24 0 46 -4 66 -11c0 29 0 64 -1 98c-150 -1 -318 -8 -442 -17l-2 78c110 2 296 8 443 10c0 28 -1 51 -2 65c-1 21 -4 50 -6 62h91l-5 -62c0 -15 -1 -38 -1 -64h15c120 0 242 -1 290 -1l-1 -75c-56 3 -146 5 -291 5z" />
    <glyph glyph-name="Identity.532" unicode="&#x305a;" 
d="M933 707l-57 -25c-21 41 -48 87 -74 121l56 24c23 -34 54 -81 75 -120zM811 680l-57 -25c-21 40 -48 88 -73 123l55 23c24 -33 55 -84 75 -121zM451 223c59 0 97 47 87 141c-16 43 -48 61 -87 61c-52 0 -100 -40 -100 -104c0 -62 46 -98 100 -98zM592 652h14
c121 0 243 -1 290 -1l-1 -75c-56 3 -145 5 -290 5h-13c0 -57 1 -117 2 -163c20 -34 31 -77 31 -126c0 -134 -64 -283 -295 -352l-68 67c129 30 220 83 261 171c-23 -17 -52 -25 -84 -25c-83 0 -163 59 -163 167c0 98 81 173 175 173c24 0 46 -4 66 -11l-1 98
c-151 -1 -319 -8 -442 -17l-3 78c111 2 296 8 444 10c-1 28 -1 51 -2 65c-1 20 -4 50 -7 62h92c-2 -11 -5 -50 -5 -62c0 -15 -1 -38 -1 -64z" />
    <glyph glyph-name="Identity.533" unicode="&#x305b;" 
d="M653 768h85c-2 -16 -4 -50 -5 -71c0 -45 -1 -94 -1 -138c39 3 76 6 108 8c26 1 54 3 78 5v-80c-16 1 -53 0 -78 0c-29 -1 -67 -2 -110 -5c-2 -73 -6 -162 -15 -208c-9 -44 -31 -57 -76 -57c-36 0 -104 10 -131 14l2 71c34 -7 76 -13 99 -13c24 0 34 4 37 26
c5 33 9 99 11 161c-102 -8 -218 -19 -316 -29c-1 -102 -2 -205 0 -243c3 -107 4 -143 176 -143c107 0 230 11 294 22l-3 -84c-66 -7 -187 -17 -287 -17c-229 0 -251 53 -256 211c-1 43 -1 147 -1 246l-105 -11c-31 -4 -74 -10 -101 -14l-8 82c30 0 67 2 103 5
c25 2 64 6 111 10l1 138c0 30 -2 53 -6 83h87c-2 -22 -3 -49 -3 -80l-1 -133c96 9 211 20 316 29v141c0 22 -2 57 -5 74z" />
    <glyph glyph-name="Identity.534" unicode="&#x305c;" 
d="M866 619l-50 -17c-15 43 -38 103 -57 142l48 15c18 -37 45 -99 59 -140zM634 753h85c-2 -16 -4 -50 -5 -72c0 -44 -1 -94 -1 -137c39 3 76 5 108 7c26 2 54 4 78 5v-79c-16 1 -53 0 -78 0c-29 -1 -67 -2 -110 -5c-2 -73 -6 -162 -15 -208c-9 -44 -31 -57 -76 -57
c-36 0 -104 10 -131 14l2 71c34 -8 76 -13 99 -13c24 0 34 4 37 26c5 33 9 99 11 161c-102 -8 -218 -19 -316 -29c-1 -102 -2 -205 0 -243c3 -107 4 -144 176 -144c107 0 230 12 294 23l-3 -84c-66 -8 -187 -17 -287 -17c-229 0 -251 53 -256 211c-1 42 -1 147 -1 246
l-105 -11c-31 -4 -74 -10 -101 -14l-8 82c30 0 67 2 103 5c25 2 64 6 111 10l1 138c0 29 -2 53 -6 83h87c-2 -23 -3 -50 -3 -80l-1 -133c96 9 211 20 316 29v141c0 22 -2 57 -5 74zM858 775l49 16c19 -37 45 -98 60 -139l-50 -17c-15 45 -38 103 -59 140z" />
    <glyph glyph-name="Identity.535" unicode="&#x305d;" 
d="M264 745c24 -3 49 -4 79 -3c43 0 247 8 304 15c23 2 42 6 54 10l51 -58c-14 -8 -39 -25 -53 -37c-74 -61 -217 -180 -296 -243c150 16 328 30 470 30v-75c-97 5 -192 4 -251 -5c-96 -13 -190 -95 -190 -187c0 -99 80 -133 170 -145c58 -8 107 -7 142 -4l-16 -81
c-242 -10 -374 66 -374 218c0 84 64 156 115 186c-106 -9 -238 -25 -356 -44l-7 76c53 5 120 14 170 20c108 74 264 211 327 267c-44 -3 -216 -12 -259 -16c-25 -2 -55 -4 -76 -6z" />
    <glyph glyph-name="Identity.536" unicode="&#x305e;" 
d="M728 643c23 -34 54 -82 75 -127l-51 -24c-21 44 -46 89 -75 129zM833 683c24 -31 57 -83 79 -125l-51 -25c-22 43 -49 90 -78 127zM234 745c24 -3 49 -4 79 -3c43 0 247 8 304 15c23 2 42 6 54 10l51 -58c-14 -8 -39 -25 -53 -37c-74 -61 -217 -180 -296 -243
c150 16 328 30 469 30l1 -75c-98 5 -192 4 -251 -5c-96 -13 -190 -95 -190 -187c0 -99 80 -133 170 -145c57 -8 107 -7 142 -4l-16 -81c-242 -10 -375 66 -375 218c0 84 64 156 116 186c-106 -9 -238 -25 -356 -44l-7 76c53 5 120 14 170 20c108 74 264 211 326 267
c-43 -3 -215 -12 -258 -16c-25 -2 -55 -4 -76 -6z" />
    <glyph glyph-name="Identity.537" unicode="&#x305f;" 
d="M537 408v75c52 5 117 8 181 8c57 0 118 -2 171 -8l-2 -76c-50 6 -109 12 -167 12c-62 0 -122 -4 -183 -11zM601 668v-79c-65 -15 -136 -26 -205 -34c-9 -43 -20 -89 -31 -131c-36 -142 -103 -346 -155 -454l-88 29c59 102 129 303 166 443c9 33 17 69 25 105
c-32 -2 -62 -3 -90 -3c-44 0 -80 2 -115 4l-3 78c47 -6 83 -7 119 -7c33 0 68 2 106 4c7 36 12 67 15 87c3 28 5 61 3 82l97 -8c-7 -22 -14 -59 -18 -79l-15 -73c64 8 129 20 189 36zM487 249l75 -7c-9 -33 -14 -64 -14 -89c0 -47 22 -92 163 -92c64 0 133 8 193 19l-3 -81
c-53 -7 -119 -13 -191 -13c-156 0 -238 48 -238 146c0 38 6 75 15 117z" />
    <glyph glyph-name="Identity.538" unicode="&#x3060;" 
d="M837 604l-54 -24c-20 41 -54 101 -81 139l53 23c26 -36 62 -97 82 -138zM507 394v75c52 4 117 8 181 8c57 0 118 -2 171 -8l-2 -76c-50 6 -109 11 -167 11c-62 0 -122 -3 -183 -10zM571 654v-80c-65 -14 -136 -26 -205 -33c-9 -44 -20 -89 -31 -132
c-36 -141 -103 -346 -155 -453l-88 29c59 102 129 303 166 443c9 33 17 69 25 105c-32 -2 -62 -3 -90 -3c-44 0 -80 1 -115 4l-3 78c47 -6 83 -7 119 -7c33 0 68 2 106 4c7 36 12 67 15 87c3 28 5 61 3 81l97 -8c-7 -21 -14 -59 -18 -78l-15 -73c64 8 129 20 189 36z
M457 235l75 -7c-9 -33 -14 -64 -14 -90c0 -46 22 -91 163 -91c64 0 133 7 193 19l-3 -81c-53 -7 -119 -14 -191 -14c-156 0 -238 49 -238 147c0 37 6 75 15 117zM813 760l52 23c27 -38 66 -100 85 -138l-54 -24c-22 44 -55 101 -83 139z" />
    <glyph glyph-name="Identity.539" unicode="&#x3061;" 
d="M781 688l1 -77c-116 -21 -274 -37 -401 -42c-18 -83 -41 -177 -62 -234c86 61 167 86 277 86c158 0 250 -81 250 -197c0 -206 -210 -284 -510 -251l-22 79c228 -32 450 8 450 170c0 74 -60 130 -176 130c-118 0 -227 -39 -292 -118c-13 -15 -22 -28 -31 -46l-74 27
c50 98 90 240 115 352h-1c-67 0 -131 4 -188 9l-1 79c52 -9 128 -17 188 -17h16c5 26 8 48 10 65c5 32 6 55 5 82l89 -5c-7 -26 -13 -57 -18 -83c-3 -15 -6 -35 -11 -57c119 5 265 21 386 48z" />
    <glyph glyph-name="Identity.540" unicode="&#x3062;" 
d="M742 666l1 -77c-116 -21 -270 -37 -396 -42c-18 -80 -40 -169 -60 -223c86 61 167 86 278 86c158 0 250 -81 250 -197c0 -207 -211 -284 -511 -251l-22 79c228 -32 451 8 451 170c0 74 -61 130 -176 130c-119 0 -228 -40 -293 -118c-13 -15 -22 -28 -31 -46l-73 27
c48 95 87 232 112 342c-67 0 -130 4 -186 9l-1 79c51 -9 128 -17 187 -17h14c6 30 10 55 12 75c5 32 6 55 5 82l90 -5c-8 -26 -13 -57 -18 -83c-3 -18 -8 -41 -13 -67c117 5 258 20 380 47zM713 783l53 23c25 -36 62 -97 82 -138l-54 -24c-20 41 -54 101 -81 139zM823 823
l54 23c26 -37 65 -100 83 -137l-53 -24c-22 44 -55 101 -84 138z" />
    <glyph glyph-name="Identity.541" unicode="&#x3063;" 
d="M164 401c29 5 62 14 92 24c71 22 233 81 350 81c140 0 242 -84 242 -219c0 -191 -184 -289 -451 -305l-32 77c214 7 402 67 402 229c0 84 -66 145 -167 145c-123 0 -339 -90 -403 -115z" />
    <glyph glyph-name="Identity.542" unicode="&#x3064;" 
d="M77 522c36 7 72 18 109 29c84 26 278 98 423 98c164 0 295 -95 295 -261c0 -238 -236 -353 -542 -370l-35 83c259 7 489 85 489 288c0 104 -75 185 -209 185c-163 0 -415 -109 -493 -140z" />
    <glyph glyph-name="Identity.543" unicode="&#x3065;" 
d="M756 784c26 -36 62 -97 82 -138l-54 -24c-19 41 -54 101 -81 140zM866 825c28 -37 66 -100 85 -137l-54 -24c-22 43 -55 100 -83 138zM63 505c36 7 72 17 109 29c84 26 278 98 423 98c164 0 295 -96 295 -262c0 -237 -236 -352 -542 -369l-35 83c259 7 490 85 490 287
c0 104 -76 186 -210 186c-162 0 -415 -109 -493 -141z" />
    <glyph glyph-name="Identity.544" unicode="&#x3066;" 
d="M89 664c38 1 69 3 88 5c65 6 252 25 434 40c108 9 201 14 267 17v-80c-56 0 -143 -1 -194 -16c-141 -45 -226 -195 -226 -312c0 -194 180 -255 341 -261l-29 -83c-183 7 -392 105 -392 326c0 155 93 280 184 334c-87 -10 -357 -36 -464 -58z" />
    <glyph glyph-name="Identity.545" unicode="&#x3067;" 
d="M732 519c23 -33 61 -95 82 -139l-51 -24c-23 48 -52 100 -82 141zM841 561c24 -33 63 -94 87 -138l-52 -24c-24 48 -53 97 -85 139zM83 658c38 1 69 3 88 5c65 6 252 24 434 40c108 9 201 14 267 17v-80c-57 0 -143 -1 -194 -16c-141 -45 -226 -196 -226 -313
c0 -193 180 -254 341 -260l-29 -84c-183 8 -392 106 -392 327c0 154 93 280 184 334c-87 -10 -357 -36 -464 -58z" />
    <glyph glyph-name="Identity.546" unicode="&#x3068;" 
d="M748 668l43 -73c-22 -14 -47 -27 -76 -42c-66 -34 -204 -99 -301 -163c-92 -60 -147 -125 -147 -200c0 -82 78 -133 234 -133c108 0 240 14 317 34v-90c-75 -13 -189 -24 -313 -24c-186 0 -321 56 -321 204c0 102 65 183 171 257c-46 81 -98 197 -144 305l79 32
c40 -108 90 -215 133 -293c93 56 200 108 254 139c29 16 50 29 71 47z" />
    <glyph glyph-name="Identity.547" unicode="&#x3069;" 
d="M707 642l40 -73c-22 -14 -46 -27 -75 -42c-67 -35 -177 -86 -274 -150c-92 -61 -147 -125 -147 -200c0 -82 78 -133 234 -133c108 0 240 14 317 34l-1 -90c-74 -13 -189 -24 -313 -24c-185 0 -321 56 -321 204c0 102 65 184 171 258c-45 81 -97 197 -143 303l79 33
c39 -109 89 -215 132 -293c87 53 177 96 231 126c29 17 50 30 70 47zM713 752l54 23c25 -36 61 -97 82 -138l-54 -24c-20 41 -54 101 -82 139zM824 792l53 23c27 -37 65 -99 84 -136l-54 -25c-21 44 -54 101 -83 138z" />
    <glyph glyph-name="Identity.548" unicode="&#x306a;" 
d="M928 524l-45 -66c-53 45 -160 106 -226 136l39 62c72 -32 185 -96 232 -132zM568 674l2 -74c-52 -15 -114 -28 -179 -36c-49 -140 -137 -312 -216 -419l-78 40c83 96 167 254 212 370c-29 -2 -58 -3 -87 -3c-37 0 -78 1 -115 3l-6 75c37 -5 79 -7 122 -7c35 0 72 2 110 5
c15 55 29 118 31 171l89 -8c-10 -36 -23 -96 -39 -153c52 8 104 20 154 36zM620 121c0 13 0 29 -1 47c-31 9 -65 14 -100 14c-73 0 -121 -33 -121 -78c0 -46 37 -77 114 -77c81 0 108 45 108 94zM606 485h80c-3 -41 -2 -70 -1 -107c1 -36 5 -101 7 -161
c85 -31 154 -80 205 -124l-43 -68c-42 38 -95 82 -159 113c1 -15 1 -29 1 -40c0 -79 -52 -144 -174 -144c-109 0 -198 45 -198 143c0 91 86 150 198 150c33 0 65 -3 94 -9c-3 81 -8 178 -10 247z" />
    <glyph glyph-name="Identity.549" unicode="&#x306b;" 
d="M179 757l90 -7c-6 -17 -15 -49 -19 -67c-19 -91 -48 -268 -48 -379c0 -48 2 -88 8 -136c17 45 39 103 55 142l43 -32c-25 -70 -61 -175 -70 -222c-3 -14 -5 -33 -5 -44l3 -35l-72 -5c-20 70 -36 184 -36 318c0 146 32 316 44 397c3 23 7 49 7 70zM423 277l72 -7
c-9 -36 -13 -64 -13 -91c0 -45 30 -89 166 -89c89 0 165 8 245 26l1 -84c-61 -12 -144 -20 -247 -20c-166 0 -240 55 -240 148c0 36 7 75 16 117zM457 592l-1 82c108 -18 308 -14 407 0v-82c-106 -11 -298 -11 -406 0z" />
    <glyph glyph-name="Identity.550" unicode="&#x306c;" 
d="M640 61c60 0 101 37 128 92c-37 21 -78 36 -122 36c-59 0 -88 -32 -88 -63c0 -40 29 -65 82 -65zM443 386c19 55 33 120 43 182c-80 -17 -148 -58 -202 -110c15 -37 29 -69 40 -93c18 -39 38 -76 60 -109c22 39 42 83 59 130zM230 396l-9 -13c-44 -66 -70 -133 -70 -203
c0 -50 26 -84 57 -84c42 0 88 35 131 92c-24 33 -48 74 -69 116c-12 25 -26 58 -40 92zM573 646h10c161 0 298 -108 298 -293c0 -66 -7 -126 -22 -177c42 -32 76 -67 102 -97l-48 -60c-21 25 -48 57 -82 87c-38 -72 -100 -116 -188 -116c-94 0 -155 49 -155 129
c0 69 64 133 156 133c54 0 103 -14 146 -35c10 42 15 88 15 134c0 128 -81 227 -227 227h-14c-11 -72 -26 -147 -50 -216c-63 -179 -179 -347 -309 -347c-70 0 -126 58 -126 153c0 102 35 189 83 255c12 16 25 33 39 49c-11 31 -22 60 -30 85c-11 36 -19 64 -36 103l75 31
c11 -52 29 -110 48 -164c62 52 141 95 238 112c2 21 4 41 5 59c2 34 2 53 -1 82l90 -3c-5 -24 -8 -58 -11 -79z" />
    <glyph glyph-name="Identity.551" unicode="&#x306d;" 
d="M641 65c69 0 108 41 130 106c-43 23 -88 36 -135 36c-51 0 -96 -29 -96 -69c0 -51 45 -73 101 -73zM370 641l29 -35c-12 -18 -29 -45 -44 -69c-1 -16 -3 -32 -4 -49c84 75 207 163 315 163c134 0 205 -120 205 -284c0 -62 -4 -117 -13 -165c40 -28 76 -61 110 -97
l-42 -65c-29 33 -59 62 -88 86c-33 -84 -92 -132 -192 -132c-95 0 -175 41 -175 141c0 79 71 137 172 137c53 0 101 -11 144 -30c6 42 8 89 8 139c0 124 -61 200 -143 200c-92 0 -220 -95 -307 -188c-3 -45 -4 -89 -4 -127c0 -90 0 -150 4 -239c1 -17 3 -42 5 -60h-87
c1 14 3 43 3 59c1 95 1 144 3 254c0 10 1 23 1 38c-48 -73 -113 -168 -161 -234l-50 69c55 69 169 223 219 301c2 32 4 64 6 95c-45 -5 -131 -17 -193 -25l-8 82c22 -1 41 0 65 1c32 2 90 8 141 17c3 46 5 82 5 93c0 23 1 49 -4 74l95 -3c-5 -24 -13 -80 -20 -149z" />
    <glyph glyph-name="Identity.552" unicode="&#x306e;" 
d="M271 140c44 0 99 66 150 233c25 82 44 176 55 267c-190 -24 -306 -187 -306 -320c0 -125 58 -180 101 -180zM532 -26l-46 75c31 2 61 7 85 12c127 28 251 122 251 293c0 150 -95 273 -263 287c-13 -92 -32 -192 -59 -285c-61 -203 -140 -308 -232 -308
c-88 0 -177 102 -177 265c0 215 192 403 434 403c232 0 380 -164 380 -364c0 -208 -137 -347 -373 -378z" />
    <glyph glyph-name="Identity.553" unicode="&#x306f;" 
d="M170 768l88 -7c-6 -16 -14 -49 -17 -67c-20 -92 -49 -288 -49 -399c0 -48 2 -87 9 -135c16 45 39 104 56 144l42 -33c-25 -69 -60 -170 -70 -219c-3 -13 -6 -32 -5 -44c0 -10 2 -24 3 -34l-71 -6c-20 71 -38 180 -38 314c0 145 33 334 45 416c4 23 7 49 7 70zM675 154
c0 9 0 21 -1 33c-32 11 -66 16 -101 16c-74 0 -125 -33 -125 -79c0 -49 48 -77 119 -77c84 0 108 41 108 107zM945 105l-43 -65c-49 46 -98 85 -149 113v-18c0 -82 -38 -162 -172 -162c-133 0 -206 55 -206 143c0 83 74 151 204 151c33 0 64 -3 92 -9c-3 76 -9 171 -10 253
c-32 -1 -63 -2 -95 -2c-56 0 -108 3 -166 6v76c56 -6 110 -9 168 -9c31 0 62 1 93 2v123c0 17 -2 43 -5 60h91c-3 -19 -5 -39 -6 -59c-1 -27 -2 -73 -3 -119c60 4 118 12 171 23v-78c-54 -9 -112 -15 -171 -19c1 -99 8 -198 12 -281c80 -32 143 -83 195 -129z" />
    <glyph glyph-name="Identity.554" unicode="&#x3070;" 
d="M870 653l-51 -18c-15 43 -38 103 -57 142l49 15c18 -36 45 -99 59 -139zM146 758l88 -8c-6 -16 -13 -48 -17 -66c-20 -92 -49 -288 -49 -399c0 -49 2 -88 9 -136c16 45 39 104 56 144l42 -33c-25 -69 -60 -170 -70 -219c-3 -13 -6 -32 -5 -44c1 -9 2 -24 3 -34l-71 -6
c-20 71 -38 180 -38 314c0 146 33 335 46 416c3 24 6 50 6 71zM651 143c0 9 0 21 -1 34c-32 10 -66 15 -101 15c-74 0 -125 -33 -125 -79c0 -49 48 -77 119 -77c84 0 108 41 108 107zM885 601v-78c-54 -9 -112 -15 -171 -19c1 -99 8 -198 12 -281c80 -32 143 -83 195 -129
l-43 -65c-49 47 -98 86 -149 114v-19c0 -82 -38 -162 -172 -162c-133 0 -206 55 -206 144c0 83 74 150 204 150c33 0 64 -3 92 -9c-3 76 -9 171 -10 253c-32 -1 -63 -2 -95 -2c-56 0 -108 3 -166 7v75c56 -6 110 -9 168 -9c31 0 62 1 93 2v123c0 17 -2 43 -4 61h90
c-3 -20 -5 -40 -6 -60c-1 -27 -2 -73 -3 -119c61 5 119 13 171 23zM862 807l49 16c19 -37 46 -98 61 -138l-51 -18c-16 44 -38 102 -59 140z" />
    <glyph glyph-name="Identity.555" unicode="&#x3071;" 
d="M146 758l88 -8c-6 -16 -13 -48 -17 -66c-20 -92 -49 -288 -49 -399c0 -49 2 -88 9 -136c16 45 39 104 56 144l42 -33c-25 -69 -60 -170 -70 -219c-3 -13 -6 -32 -5 -44c1 -9 2 -24 3 -34l-71 -6c-20 71 -38 180 -38 314c0 146 33 335 46 416c3 24 6 50 6 71zM651 143
c0 9 0 21 -1 34c-32 10 -66 15 -101 15c-74 0 -125 -33 -125 -79c0 -49 48 -77 119 -77c84 0 108 41 108 107zM885 601v-78c-54 -9 -112 -15 -171 -19c1 -99 8 -198 12 -281c80 -32 143 -83 195 -129l-43 -65c-49 47 -98 86 -149 114v-19c0 -82 -38 -162 -172 -162
c-133 0 -206 55 -206 144c0 83 74 150 204 150c33 0 64 -3 92 -9c-3 76 -9 171 -10 253c-32 -1 -63 -2 -95 -2c-56 0 -108 3 -166 7v75c56 -6 110 -9 168 -9c31 0 62 1 93 2v123c0 17 -2 43 -4 61h90c-3 -20 -5 -40 -6 -60c-1 -27 -2 -73 -3 -119c61 5 119 13 171 23z
M871 677c33 0 60 26 60 59c0 34 -27 61 -60 61c-34 0 -60 -27 -60 -61c0 -33 26 -59 60 -59zM871 841c58 0 105 -47 105 -105s-47 -104 -105 -104c-59 0 -104 46 -104 104s45 105 104 105z" />
    <glyph glyph-name="Identity.556" unicode="&#x3072;" 
d="M942 328l-59 -62c-44 55 -84 115 -122 185c21 -250 -83 -496 -339 -496c-160 0 -258 102 -258 261c0 170 98 329 179 413c-50 -8 -125 -20 -164 -28c-17 -3 -34 -6 -55 -11l-11 84c15 0 35 1 53 3c86 7 260 36 318 58l24 -72c-14 -5 -39 -11 -53 -18
c-63 -48 -212 -235 -212 -418c0 -136 85 -190 182 -190c206 0 321 239 254 603c-8 23 -16 48 -24 73l76 24c25 -120 84 -281 211 -409z" />
    <glyph glyph-name="Identity.557" unicode="&#x3073;" 
d="M871 640l-52 -20c-19 45 -45 105 -67 143l50 17c20 -37 52 -99 69 -140zM635 698l77 24c25 -120 84 -282 211 -409l-59 -62c-45 55 -85 115 -122 185c21 -250 -83 -497 -340 -497c-159 0 -257 103 -257 262c0 170 97 329 178 413c-50 -8 -124 -20 -163 -28
c-17 -3 -35 -7 -55 -11l-12 84c15 0 35 1 53 3c86 7 260 35 318 57l24 -72c-13 -5 -38 -11 -52 -18c-63 -47 -213 -234 -213 -417c0 -136 86 -190 182 -190c206 0 323 239 254 604c-8 23 -16 47 -24 72zM855 800l49 19c22 -37 52 -98 71 -140l-52 -19
c-19 45 -45 103 -68 140z" />
    <glyph glyph-name="Identity.558" unicode="&#x3074;" 
d="M635 698l77 24c25 -120 84 -282 211 -409l-59 -62c-45 55 -85 115 -122 185c21 -250 -83 -497 -340 -497c-159 0 -257 103 -257 262c0 170 97 329 178 413c-50 -8 -124 -20 -163 -28c-17 -3 -35 -7 -55 -11l-12 84c15 0 35 1 53 3c86 7 260 35 319 57l23 -72
c-13 -5 -38 -11 -52 -18c-63 -47 -213 -234 -213 -417c0 -136 86 -190 182 -190c206 0 323 239 254 604c-8 23 -16 47 -24 72zM871 644c35 0 64 28 64 64s-29 65 -64 65c-36 0 -65 -29 -65 -65s28 -64 65 -64zM871 818c60 0 110 -49 110 -110s-50 -110 -110 -110
c-62 0 -110 49 -110 110s48 110 110 110z" />
    <glyph glyph-name="Identity.559" unicode="&#x3075;" 
d="M554 499l-51 48c26 17 54 37 69 50c-44 35 -136 83 -212 115l47 59c76 -32 185 -87 244 -130l19 -52c-24 -20 -79 -64 -116 -90zM324 -9l-11 84c50 -15 98 -23 160 -23c45 0 99 18 99 82c0 67 -73 158 -127 216c-22 22 -52 51 -80 75l61 51c24 -24 49 -51 72 -76
c93 -97 158 -185 158 -275c0 -121 -99 -149 -171 -149c-62 0 -117 7 -161 15zM957 77l-74 -40c-28 94 -98 235 -166 312l67 37c68 -80 142 -222 173 -309zM347 229c-58 -60 -157 -143 -253 -200l-48 66c82 44 197 133 254 194z" />
    <glyph glyph-name="Identity.560" unicode="&#x3076;" 
d="M765 665c26 -37 62 -98 82 -139l-54 -24c-19 41 -54 101 -81 140zM875 705c28 -37 66 -100 85 -137l-54 -24c-22 43 -54 100 -83 138zM532 492l-51 48c26 16 54 37 68 49c-43 35 -135 84 -211 115l47 59c76 -32 185 -86 244 -130l19 -52c-24 -20 -80 -63 -116 -89z
M302 -17l-12 84c51 -15 98 -23 160 -23c46 0 100 18 100 82c0 67 -73 158 -127 217c-22 22 -52 50 -80 74l61 52c24 -25 49 -52 72 -77c93 -97 158 -185 158 -274c0 -122 -99 -150 -171 -150c-63 0 -117 7 -161 15zM935 69l-74 -40c-28 94 -98 235 -166 313l67 36
c68 -80 142 -221 173 -309zM325 222c-58 -60 -157 -144 -253 -201l-48 67c82 44 197 132 253 194z" />
    <glyph glyph-name="Identity.561" unicode="&#x3077;" 
d="M776 602c0 -36 30 -66 66 -66c37 0 67 30 67 66c0 37 -30 67 -67 67c-36 0 -66 -30 -66 -67zM730 602c0 63 50 113 112 113s113 -50 113 -113c0 -62 -51 -112 -113 -112s-112 50 -112 112zM532 492l-51 48c26 16 54 37 68 49c-43 35 -135 84 -211 115l47 59
c76 -32 185 -86 244 -130l19 -52c-24 -20 -80 -63 -116 -89zM302 -17l-12 84c51 -15 98 -23 160 -23c46 0 100 18 100 82c0 67 -73 158 -127 217c-22 22 -52 50 -80 74l61 52c24 -25 49 -52 72 -77c93 -97 158 -185 158 -274c0 -122 -99 -150 -171 -150
c-63 0 -117 7 -161 15zM935 69l-74 -40c-28 94 -98 235 -166 313l67 36c68 -80 142 -221 173 -309zM325 222c-58 -60 -157 -144 -253 -201l-48 67c82 44 197 132 253 194z" />
    <glyph glyph-name="Identity.562" unicode="&#x3078;" 
d="M60 278c24 18 45 38 71 65c53 54 136 166 194 236c57 67 110 77 176 11c57 -60 136 -159 199 -227c61 -66 158 -170 247 -250l-63 -71c-75 71 -166 171 -234 248c-64 73 -140 168 -186 219c-43 45 -61 39 -94 -3c-46 -58 -128 -168 -178 -228c-21 -26 -43 -56 -58 -77z
" />
    <glyph glyph-name="Identity.563" unicode="&#x3079;" 
d="M692 675c25 -37 71 -112 95 -160l-59 -26c-25 52 -60 115 -94 161zM821 726c26 -35 75 -110 98 -157l-57 -28c-27 53 -63 114 -97 159zM51 259c24 18 45 38 71 66c53 53 137 166 194 235c57 68 111 77 176 11c58 -60 136 -159 200 -227c60 -66 157 -170 246 -250l-63 -71
c-75 71 -166 173 -234 250c-64 73 -139 169 -186 219c-42 45 -61 39 -94 -3c-46 -58 -129 -167 -178 -228c-21 -26 -43 -58 -59 -78z" />
    <glyph glyph-name="Identity.564" unicode="&#x307a;" 
d="M700 591c0 -40 33 -74 74 -74s74 34 74 74c0 41 -33 74 -74 74s-74 -33 -74 -74zM653 591c0 68 54 122 121 122s123 -54 123 -122c0 -67 -56 -121 -123 -121s-121 54 -121 121zM51 259c24 18 45 38 71 66c53 53 137 166 194 235c57 68 111 77 176 11
c58 -60 136 -159 200 -227c60 -66 157 -170 246 -250l-63 -71c-75 71 -166 173 -234 250c-64 73 -139 169 -186 219c-42 45 -61 39 -94 -3c-46 -58 -129 -167 -178 -228c-21 -26 -43 -58 -59 -78z" />
    <glyph glyph-name="Identity.565" unicode="&#x307b;" 
d="M169 764l89 -8c-6 -17 -14 -48 -18 -66c-19 -92 -48 -284 -48 -395c0 -48 3 -88 9 -137c16 45 40 106 56 146l42 -33c-24 -69 -60 -170 -70 -219c-3 -13 -5 -32 -5 -44l3 -34l-72 -6c-20 71 -37 180 -37 314c0 145 32 330 45 411c3 23 6 50 6 71zM662 142
c0 10 0 24 -1 40c-31 9 -61 13 -92 13c-70 0 -116 -29 -116 -71c0 -50 43 -74 112 -74c77 0 97 39 97 92zM907 500v-73c-52 -6 -115 -11 -183 -14c1 -61 4 -125 7 -182c92 -31 161 -84 210 -128l-42 -70c-49 51 -105 93 -164 121c1 -17 1 -32 1 -45
c0 -80 -57 -129 -164 -129c-109 0 -190 47 -190 140c0 69 59 137 189 137c31 0 59 -3 87 -7c-3 50 -6 108 -7 160c-78 -2 -160 -1 -239 3v73c80 -6 161 -7 238 -5v163c-73 -3 -151 -3 -223 0v71c159 -12 341 -2 457 15v-71c-45 -5 -100 -9 -161 -12v-163c67 4 129 10 184 16
z" />
    <glyph glyph-name="Identity.566" unicode="&#x307c;" 
d="M141 749l89 -8c-6 -16 -14 -47 -17 -65c-20 -92 -49 -284 -49 -395c0 -48 2 -88 9 -137c16 45 40 106 56 146l42 -33c-25 -69 -60 -170 -70 -219c-3 -14 -5 -32 -4 -44c0 -10 1 -24 2 -34l-72 -6c-20 71 -37 180 -37 314c0 145 32 330 45 411c3 23 6 49 6 70zM634 127
c0 11 0 25 -1 41c-31 9 -61 13 -92 13c-70 0 -116 -29 -116 -71c0 -50 44 -74 112 -74c76 0 97 39 97 91zM879 486v-73c-52 -6 -115 -11 -183 -15c1 -61 5 -125 7 -182c93 -31 162 -83 210 -127l-42 -70c-49 51 -105 93 -164 121c1 -17 1 -32 1 -45
c0 -81 -58 -129 -164 -129c-110 0 -190 46 -190 140c0 69 59 136 189 136c31 0 59 -3 87 -7c-3 50 -6 109 -7 161c-78 -2 -160 -2 -239 2v74c80 -6 161 -7 238 -5v162c-70 -2 -145 -2 -222 1v71c147 -11 290 -5 399 8c-9 23 -19 45 -28 62l48 15c18 -37 46 -99 59 -139
l-50 -18l-6 18v-6c-38 -4 -81 -7 -127 -10v-161c67 4 129 10 184 16zM871 801l49 17c19 -37 45 -100 60 -140l-50 -17c-16 44 -38 103 -59 140z" />
    <glyph glyph-name="Identity.567" unicode="&#x307d;" 
d="M141 749l89 -8c-6 -16 -14 -47 -17 -65c-20 -92 -49 -284 -49 -395c0 -48 2 -88 9 -137c16 45 40 106 56 146l42 -33c-25 -69 -60 -170 -70 -219c-3 -14 -5 -32 -4 -44c0 -10 1 -24 2 -34l-72 -6c-20 71 -37 180 -37 314c0 145 32 330 45 411c3 23 6 49 6 70zM886 814
c-34 0 -60 -27 -60 -60c0 -34 26 -60 60 -60c33 0 60 26 60 60c0 33 -27 60 -60 60zM634 127c0 11 0 25 -1 41c-31 9 -61 13 -92 13c-70 0 -116 -29 -116 -71c0 -50 44 -74 112 -74c76 0 97 39 97 91zM813 679v-39c-37 -4 -76 -7 -118 -9v-161c67 4 129 10 184 16v-73
c-52 -6 -115 -11 -183 -15c1 -61 5 -125 7 -182c93 -31 162 -83 210 -127l-42 -70c-49 51 -105 93 -164 121c1 -17 1 -32 1 -45c0 -81 -58 -129 -164 -129c-110 0 -190 46 -190 140c0 69 59 136 189 136c31 0 59 -3 87 -7c-3 50 -6 109 -7 161c-78 -2 -160 -2 -239 2v74
c80 -6 161 -7 238 -5v161c-69 -2 -143 -1 -222 2v71c149 -11 280 -7 392 7c-6 14 -10 29 -10 46c0 58 45 105 104 105c58 0 105 -47 105 -105c0 -59 -47 -104 -105 -104c-29 0 -54 11 -73 29z" />
    <glyph glyph-name="Identity.568" unicode="&#x307e;" 
d="M501 116c0 17 -1 40 -1 67c-31 6 -63 9 -96 9c-94 0 -145 -36 -145 -81c0 -46 39 -80 137 -80c57 0 105 17 105 85zM862 82l-45 -70c-58 53 -140 113 -239 149c1 -25 2 -47 2 -62c0 -68 -46 -139 -175 -139c-142 0 -221 51 -221 147c0 90 87 151 230 151
c29 0 56 -2 83 -6c-2 44 -4 91 -5 132h-55c-68 0 -178 6 -249 14v76c67 -12 184 -19 249 -19h53v142h-49c-69 0 -174 8 -233 15v74c60 -11 166 -19 232 -19h51v65c0 16 -1 45 -3 59h85c-3 -18 -4 -37 -5 -66c-1 -12 -1 -31 -1 -55c86 3 167 11 254 24l1 -73
c-78 -8 -163 -16 -256 -21v-142c95 4 186 13 275 26l1 -75c-93 -12 -181 -19 -275 -23c2 -51 5 -103 7 -150c131 -36 232 -109 288 -154z" />
    <glyph glyph-name="Identity.569" unicode="&#x307f;" 
d="M266 158c35 45 72 135 106 212c-142 -12 -223 -97 -223 -181c0 -42 28 -66 57 -66c23 0 39 8 60 35zM944 246l-36 -84c-30 26 -65 53 -103 78c-41 -129 -117 -223 -261 -295l-66 55c157 66 227 172 259 280c-83 45 -179 80 -282 89c-38 -87 -87 -203 -125 -258
c-35 -50 -74 -69 -125 -69c-73 0 -129 53 -129 136c0 146 135 258 329 263c36 78 72 163 103 225c-39 -3 -159 -8 -205 -11c-22 -1 -50 -3 -73 -7l-4 84c25 -3 54 -4 75 -4c52 0 182 7 224 10c18 2 35 6 48 11l51 -41c-10 -11 -19 -20 -26 -33c-28 -44 -70 -145 -112 -238
c99 -10 190 -41 269 -79c4 25 6 50 8 74c2 27 3 59 1 91l82 -9c-4 -71 -10 -134 -21 -192c47 -26 87 -53 119 -76z" />
    <glyph glyph-name="Identity.570" unicode="&#x3080;" 
d="M172 289c0 -55 33 -86 69 -86c57 0 79 70 79 137c0 47 -24 75 -57 75c-49 0 -91 -52 -91 -126zM739 277l86 -27c1 -53 2 -66 0 -107c-4 -93 -39 -136 -129 -161c-43 -11 -140 -19 -205 -19c-198 0 -228 48 -228 121c0 17 1 33 1 48c-9 -2 -20 -3 -31 -3
c-56 0 -128 41 -128 156c0 102 65 195 162 195c9 0 18 -1 26 -2v98c-12 -1 -24 -1 -35 -1c-43 0 -101 2 -158 10l-4 74c59 -9 108 -13 157 -13c13 0 26 0 40 1v49c0 40 -2 73 -7 94h88c-3 -21 -6 -57 -6 -94v-43c62 6 127 18 189 35v-77c-61 -14 -128 -24 -189 -30v-149
c16 -24 25 -54 25 -88c0 -55 -13 -124 -52 -168c-1 -21 -2 -45 -2 -63c0 -55 13 -75 157 -75c55 0 133 7 168 17c52 15 82 44 82 110c0 39 -1 72 -7 112zM669 638l52 53c58 -39 153 -127 197 -183l-56 -57c-48 62 -138 148 -193 187z" />
    <glyph glyph-name="Identity.571" unicode="&#x3081;" 
d="M406 321c6 -11 13 -22 20 -33c42 70 85 173 115 275c-77 -4 -147 -27 -211 -68c24 -68 53 -135 76 -174zM236 113c49 0 100 49 144 107c-8 12 -16 25 -24 38c-28 45 -59 115 -88 190c-65 -62 -106 -152 -106 -229c0 -66 29 -106 74 -106zM581 779l87 -8
c-6 -24 -12 -58 -17 -77c-5 -22 -10 -44 -16 -67c159 -27 268 -149 268 -319c0 -197 -141 -318 -353 -347l-48 71c206 18 321 127 321 279c0 128 -80 225 -206 247c-37 -126 -89 -255 -145 -337c19 -25 40 -49 61 -69l-62 -51c-16 18 -32 36 -47 56
c-61 -74 -122 -123 -196 -123c-75 0 -139 63 -139 180c0 113 63 232 153 306c-11 31 -21 62 -30 91c-10 32 -20 63 -32 89l83 26c5 -27 13 -60 20 -87c6 -23 14 -48 23 -76c84 49 168 69 254 70c6 24 11 48 15 71c4 20 7 53 6 75z" />
    <glyph glyph-name="Identity.572" unicode="&#x3082;" 
d="M677 407l89 18c68 -75 102 -144 102 -229c0 -147 -133 -237 -328 -237c-135 0 -244 59 -244 221c0 27 3 67 8 114c-74 6 -146 17 -206 36l4 76c65 -23 139 -35 209 -40c7 58 15 120 22 178c-71 6 -149 18 -211 34l4 74c62 -20 142 -32 216 -36c5 40 9 76 11 103
c2 23 3 45 1 69l90 -5c-7 -27 -10 -47 -13 -69c-3 -25 -8 -60 -13 -101c75 0 142 4 200 12l-2 -75c-63 -6 -122 -10 -201 -10h-7c-8 -58 -15 -120 -22 -177h19c67 0 137 3 206 12l-2 -76c-66 -7 -127 -9 -194 -9h-36c-4 -39 -6 -74 -6 -98c0 -94 54 -154 167 -154
c150 0 246 64 246 167c0 67 -36 141 -109 202z" />
    <glyph glyph-name="Identity.573" unicode="&#x3083;" 
d="M575 540l-56 -43c-29 31 -71 68 -107 94l55 42c27 -19 80 -63 108 -93zM202 529l79 31c7 -16 17 -34 25 -47c13 -23 30 -57 48 -95c101 44 215 88 293 88c130 0 190 -77 190 -160c0 -103 -62 -172 -198 -172c-45 0 -94 13 -123 24l3 74c31 -15 76 -28 116 -28
c95 0 127 49 127 102c0 41 -30 90 -118 90c-65 0 -166 -37 -260 -80c12 -26 23 -51 33 -73c43 -99 92 -247 120 -334l-79 -21c-26 94 -66 224 -110 325l-32 72c-68 -33 -127 -63 -160 -78l-38 78c29 7 55 16 70 21c27 11 61 26 98 43c-17 35 -32 65 -44 83
c-9 16 -25 41 -40 57z" />
    <glyph glyph-name="Identity.574" unicode="&#x3084;" 
d="M595 692l-58 -45c-38 38 -86 84 -129 115l58 42c33 -25 92 -73 129 -112zM158 686l82 32c8 -16 25 -48 35 -65c17 -33 37 -73 57 -114c119 53 253 106 356 106c137 0 221 -79 221 -187c0 -114 -73 -201 -228 -201c-55 0 -111 14 -148 28l3 80c37 -18 87 -33 140 -33
c109 0 153 59 153 129c0 60 -46 113 -144 113c-86 0 -208 -47 -322 -100c13 -27 26 -55 38 -82c54 -122 116 -307 150 -416l-86 -23c-31 117 -78 277 -135 406c-12 28 -25 56 -37 82c-76 -37 -145 -73 -190 -93l-39 82c29 8 64 20 82 27c33 13 73 31 116 50
c-20 44 -39 81 -56 109c-12 21 -32 50 -48 70z" />
    <glyph glyph-name="Identity.575" unicode="&#x3085;" 
d="M595 124c127 0 185 72 185 171c0 83 -47 152 -166 157c4 -41 6 -85 6 -129c0 -72 -7 -139 -25 -199zM514 612l79 2c4 -23 10 -56 14 -95c162 -2 246 -101 246 -222c0 -134 -81 -247 -258 -247c-10 0 -19 1 -28 2c-27 -52 -65 -96 -117 -130l-69 41c50 28 87 65 112 108
c-54 24 -100 67 -129 127l41 58c28 -57 66 -99 118 -119c19 56 26 121 26 190c0 46 -2 86 -5 120c-141 -25 -233 -142 -255 -247c-3 -14 -7 -32 -6 -50s7 -60 12 -80l-68 -10c-15 50 -28 133 -28 211c0 95 16 217 22 262c1 15 2 29 1 40l83 -7c-4 -12 -8 -27 -11 -39
c-12 -54 -27 -169 -25 -232c49 117 154 195 268 217c-3 22 -6 40 -9 54c-4 16 -9 33 -14 46z" />
    <glyph glyph-name="Identity.576" unicode="&#x3086;" 
d="M594 180h5c138 0 227 79 227 209c0 106 -67 195 -210 199c4 -51 7 -106 7 -160c0 -89 -8 -173 -29 -248zM506 788l83 2c7 -31 14 -78 20 -133c184 0 294 -117 294 -265c0 -162 -100 -288 -304 -288c-11 0 -22 1 -33 2c-31 -65 -76 -121 -142 -164l-74 44
c63 34 108 82 138 139c-69 27 -127 79 -163 153l47 56c34 -70 80 -119 145 -141c23 69 31 149 31 235c0 54 -3 107 -6 154c-171 -31 -282 -180 -311 -306c-5 -18 -8 -40 -7 -61c1 -22 7 -67 13 -93l-70 -11c-18 62 -32 162 -32 256c0 111 20 249 26 303c1 18 2 33 1 46
l86 -7c-4 -14 -9 -30 -13 -47c-13 -64 -33 -210 -27 -288c56 146 183 249 327 276c-4 32 -9 59 -13 77c-4 21 -10 46 -16 61z" />
    <glyph glyph-name="Identity.577" unicode="&#x3087;" 
d="M467 87c0 15 0 33 -1 54c-23 4 -46 6 -69 6c-79 0 -132 -23 -132 -70c0 -38 44 -67 120 -67c54 0 82 30 82 77zM531 401v-26c0 -47 4 -118 7 -183c107 -29 194 -89 251 -141l-42 -69c-51 52 -123 106 -205 137c0 -22 1 -41 1 -56c0 -64 -41 -122 -150 -122
c-117 0 -199 46 -199 133c0 83 75 137 211 137c20 0 39 -1 58 -4c-3 60 -6 125 -6 173v158c0 29 -3 68 -7 82h87c-3 -15 -6 -55 -6 -81v-70c66 2 175 7 246 15l1 -70c-69 -7 -180 -12 -247 -13z" />
    <glyph glyph-name="Identity.578" unicode="&#x3088;" 
d="M467 136c0 16 -1 37 -1 62c-32 7 -64 10 -97 10c-102 0 -160 -35 -160 -89c0 -55 55 -85 150 -85c73 0 108 34 108 102zM534 510v-7c0 -65 5 -161 10 -247c127 -35 236 -104 308 -169l-48 -74c-63 64 -154 127 -257 163c1 -26 2 -48 2 -66c0 -81 -50 -151 -182 -151
c-136 0 -237 44 -237 157c0 89 78 163 249 163c28 0 56 -2 84 -6c-4 80 -8 171 -8 230c0 57 0 139 -1 181c-1 36 -4 79 -8 98h96c-4 -21 -7 -68 -8 -98c-1 -27 0 -62 0 -101c79 2 204 7 293 19l3 -76c-88 -8 -215 -14 -296 -16z" />
    <glyph glyph-name="Identity.579" unicode="&#x3089;" 
d="M316 705l21 76c85 -27 295 -68 383 -76l-19 -78c-94 13 -309 57 -385 78zM315 601c-13 -68 -30 -212 -39 -276c95 83 202 119 320 119c152 0 253 -91 253 -207c0 -178 -157 -298 -525 -267l-24 82c312 -38 465 52 465 187c0 79 -73 134 -174 134
c-132 0 -236 -48 -306 -131c-14 -17 -23 -34 -30 -50l-75 18c20 90 44 298 50 402z" />
    <glyph glyph-name="Identity.580" unicode="&#x308a;" 
d="M253 789l88 -3c-21 -73 -40 -206 -46 -275c39 102 143 225 268 225c132 0 227 -132 227 -340c0 -275 -173 -396 -419 -441l-47 72c215 33 383 119 383 368c0 156 -52 268 -157 268c-123 0 -237 -179 -249 -309c-5 -38 -5 -72 2 -121l-78 -6c-5 37 -10 93 -10 157
c0 94 18 240 30 320c4 31 7 61 8 85z" />
    <glyph glyph-name="Identity.581" unicode="&#x308b;" 
d="M499 33c28 0 55 2 79 6c-9 78 -56 132 -131 132c-45 0 -79 -27 -79 -61c0 -49 57 -77 131 -77zM703 752l46 -58c-18 -12 -40 -27 -55 -38c-49 -37 -182 -154 -258 -218c45 15 90 21 134 21c165 0 284 -100 284 -234c0 -160 -133 -264 -342 -264c-135 0 -218 60 -218 142
c0 68 61 130 153 130c124 0 191 -83 204 -175c78 30 123 87 123 168c0 97 -98 168 -223 168c-163 0 -253 -69 -379 -197l-58 59c82 68 209 174 267 222c55 46 178 150 227 194c-52 -2 -247 -11 -298 -14c-23 -1 -46 -2 -67 -6l-2 83c22 -3 50 -3 70 -3c51 0 286 7 338 12
c29 3 43 5 54 8z" />
    <glyph glyph-name="Identity.582" unicode="&#x308c;" 
d="M956 166l13 -86c-52 -53 -114 -83 -182 -83c-65 0 -110 44 -110 126c0 110 37 273 37 369c0 57 -29 81 -79 81c-80 0 -200 -93 -291 -191c-2 -42 -3 -81 -3 -116c0 -90 0 -150 4 -239c1 -17 3 -42 5 -60h-87c1 14 3 43 3 59c1 95 1 144 3 254c0 10 1 23 1 38
c-48 -73 -113 -168 -161 -234l-50 69c55 69 169 223 219 301c2 32 4 64 6 95c-45 -5 -131 -17 -193 -25l-8 83c22 -1 41 -1 65 1c32 2 90 8 141 16c3 47 5 82 5 93c0 23 1 49 -4 74l95 -3c-5 -24 -13 -80 -20 -149l5 2l29 -35c-12 -18 -29 -45 -44 -69c-2 -18 -3 -37 -5 -56
c77 71 204 166 303 166c93 0 140 -52 140 -133c0 -99 -37 -270 -37 -370c0 -34 16 -60 51 -60c50 0 103 32 149 82z" />
    <glyph glyph-name="Identity.583" unicode="&#x308d;" 
d="M241 729c18 -2 40 -3 67 -3c52 0 259 5 322 9c17 1 40 4 55 9l47 -59c-13 -6 -33 -21 -43 -28c-74 -57 -193 -152 -266 -216c55 22 103 28 149 28c160 0 277 -93 277 -229c0 -193 -192 -299 -496 -275l-24 81c255 -31 437 44 437 195c0 94 -82 160 -209 160
c-180 0 -281 -100 -386 -211l-58 62c138 129 388 338 473 414c-61 -3 -225 -10 -274 -13c-22 -2 -48 -4 -68 -7z" />
    <glyph glyph-name="Identity.584" unicode="&#x308e;" 
d="M409 513l28 -30c-9 -14 -24 -36 -38 -57l-3 -39c83 68 175 100 247 100c126 0 223 -85 223 -209c0 -165 -111 -259 -302 -293l-35 70c155 20 264 89 264 225c0 62 -48 141 -159 141c-87 0 -173 -49 -243 -112c-1 -23 -2 -45 -2 -66c0 -73 1 -151 5 -227
c1 -14 3 -34 4 -48h-79c1 11 3 34 3 46c0 57 -1 154 2 243c-40 -61 -94 -146 -132 -199l-45 61c43 52 139 185 182 249c2 22 3 46 5 70c-39 -6 -115 -18 -162 -27l-7 70c19 0 32 0 49 1c26 2 79 9 125 16c3 36 6 68 7 86c1 17 0 49 -1 59l84 -1c-5 -22 -13 -70 -20 -129z
" />
    <glyph glyph-name="Identity.585" unicode="&#x308f;" 
d="M370 641l29 -35c-12 -18 -29 -45 -44 -69c-2 -20 -3 -42 -5 -63c109 89 220 123 314 123c138 0 260 -96 261 -250c1 -199 -145 -305 -361 -346l-36 75c167 25 317 102 316 273c0 76 -60 175 -191 175c-114 0 -219 -57 -309 -142c-2 -41 -3 -81 -3 -116
c0 -90 0 -150 4 -239c1 -17 3 -42 5 -60h-87c1 14 3 43 3 59c1 95 1 144 3 254c0 10 1 23 1 38c-48 -73 -113 -168 -161 -234l-50 69c55 69 169 223 219 301c2 32 4 64 6 95c-45 -5 -131 -17 -193 -25l-8 83c22 -1 41 -1 65 1c32 2 90 8 141 16c3 47 5 82 5 93
c0 23 1 49 -4 74l95 -3c-5 -24 -13 -80 -20 -149z" />
    <glyph glyph-name="Identity.586" unicode="&#x3090;" 
d="M590 32c37 0 69 7 97 19c-18 69 -59 109 -118 109c-43 0 -77 -23 -77 -60c0 -42 42 -68 98 -68zM392 367c12 32 24 66 35 100c-162 -59 -262 -214 -262 -315c0 -40 21 -61 44 -61c19 0 38 5 59 27c45 53 94 168 124 249zM565 674l-36 -116c13 1 26 2 39 2
c196 0 318 -131 318 -303c0 -151 -86 -294 -290 -294c-102 0 -170 50 -170 131c0 73 63 126 141 126c97 0 154 -59 178 -130c41 41 63 101 63 168c0 130 -87 234 -242 234c-20 0 -40 -2 -59 -4c-17 -53 -36 -110 -56 -165c-39 -111 -90 -218 -137 -269
c-30 -33 -63 -48 -113 -48c-55 0 -108 43 -108 129c0 176 155 358 359 410c16 54 30 104 38 140c-56 -3 -196 -11 -274 -19l-4 81c20 -2 45 -4 64 -3c38 0 146 3 205 8c22 2 41 6 57 12l52 -39c-9 -14 -19 -32 -25 -51z" />
    <glyph glyph-name="Identity.587" unicode="&#x3091;" 
d="M440 414c-35 0 -77 -14 -77 -48c0 -28 24 -50 91 -58c37 17 60 39 60 62c0 29 -33 44 -74 44zM672 772l45 -57c-49 -17 -165 -79 -240 -122c34 7 68 10 101 10c127 -1 231 -65 231 -168c0 -130 -140 -194 -295 -194c-28 0 -54 2 -78 6c-35 -25 -75 -57 -103 -80
c75 10 127 -31 157 -100c39 69 114 124 193 124c110 0 192 -86 243 -203l-80 -32c-40 113 -100 167 -169 167c-59 0 -116 -48 -142 -116c-5 -12 -7 -31 -9 -42l-80 1c-1 13 -3 29 -7 42c-21 69 -62 104 -117 104c-70 0 -133 -76 -190 -154l-70 41c84 90 206 206 295 273
c-38 21 -59 51 -59 88c0 65 74 104 148 104c82 0 137 -37 137 -94c0 -24 -12 -45 -31 -63c98 9 179 56 179 126c0 72 -81 117 -177 117c-56 0 -127 -10 -179 -33c-55 -24 -120 -68 -199 -130l-49 58c102 70 306 190 418 254c-38 -1 -232 -7 -297 -13l-3 70
c17 -1 46 -3 68 -3c27 0 244 5 293 8c28 2 55 7 66 11z" />
    <glyph glyph-name="Identity.588" unicode="&#x3092;" 
d="M592 135h-77c3 38 4 102 4 154c-92 -50 -156 -101 -156 -166c0 -78 77 -89 179 -89c77 0 183 9 270 24l-2 -81c-75 -9 -185 -16 -271 -16c-142 0 -256 30 -256 151c0 117 118 191 233 251c-10 41 -46 61 -89 61c-65 0 -125 -32 -171 -73c-28 -27 -56 -64 -90 -104l-68 51
c126 122 191 224 228 302h-41c-42 0 -109 2 -163 6v75c53 -6 122 -10 167 -10c21 0 42 0 65 1c14 44 23 89 25 123l82 -7c-7 -28 -16 -69 -30 -114c101 5 209 14 303 30l-1 -74c-98 -15 -220 -24 -328 -28c-22 -51 -53 -106 -89 -152c36 23 93 37 137 37
c64 0 116 -31 131 -90c68 32 128 56 180 80c30 13 54 25 82 39l32 -75c-25 -7 -61 -21 -87 -31c-56 -22 -127 -51 -202 -86c1 -57 2 -141 3 -189z" />
    <glyph glyph-name="Identity.589" unicode="&#x3093;" 
d="M554 752c-9 -11 -21 -29 -32 -48c-44 -68 -140 -243 -191 -339c48 43 98 60 145 60c66 0 114 -43 117 -121c2 -59 0 -135 4 -183c3 -49 36 -70 79 -70c110 0 175 136 201 241l66 -53c-52 -160 -136 -271 -280 -271c-105 0 -140 68 -143 126c-4 58 -2 135 -5 188
c-2 44 -27 69 -72 69c-80 0 -153 -80 -192 -158c-30 -59 -72 -176 -85 -225l-87 29c73 200 296 619 350 714c11 24 24 48 36 77z" />
    <glyph glyph-name="Identity.590" unicode="&#x3094;" 
d="M761 690c26 -36 62 -97 83 -138l-54 -24c-20 41 -55 101 -82 139zM872 730c27 -37 65 -99 84 -136l-54 -25c-22 44 -55 101 -83 138zM689 337c0 84 -67 142 -169 142c-114 0 -211 -33 -270 -50c-30 -9 -59 -20 -83 -29l-25 92c27 2 61 8 90 15c70 16 183 47 296 47
c141 0 246 -79 246 -220c0 -215 -191 -336 -448 -375l-47 76c240 31 410 125 410 302zM274 783c109 -24 324 -44 421 -46l-12 -77c-110 7 -310 27 -422 47z" />
    <glyph glyph-name="Identity.591" unicode="&#x3095;" 
d="M384 617l85 -8c-3 -17 -7 -30 -8 -42c-3 -21 -13 -70 -22 -115c35 3 66 5 84 5c78 0 137 -35 137 -139c0 -94 -15 -228 -47 -291c-24 -50 -60 -73 -112 -73c-37 0 -81 7 -110 12l-12 77c37 -11 80 -17 106 -17c23 0 46 6 63 36c24 45 39 165 39 244c0 71 -29 83 -83 83
c-19 0 -48 -2 -80 -4c-29 -115 -92 -307 -173 -433l-77 30c85 117 146 290 174 396c-45 -5 -87 -9 -109 -12c-21 -3 -46 -6 -64 -9l-9 78c25 -1 48 -1 72 0c26 1 75 6 126 10c11 58 19 119 20 172zM680 510l65 29c52 -63 135 -225 159 -300l-71 -34c-22 86 -97 239 -153 305
z" />
    <glyph glyph-name="Identity.592" unicode="&#x3096;" 
d="M226 593l84 -8c-5 -15 -11 -36 -14 -52c-26 -115 -49 -285 -27 -413c10 33 28 78 42 117l40 -23c-18 -55 -45 -147 -53 -187c-3 -11 -4 -26 -4 -34c0 -9 2 -24 3 -32l-62 -7c-17 48 -44 156 -44 257c0 130 20 258 31 330c3 19 4 39 4 52zM859 460v-77
c-39 -4 -83 -9 -134 -13v-6c0 -186 0 -347 -180 -449l-65 53c26 11 57 30 78 48c89 75 96 185 96 348v1c-32 -1 -66 -2 -103 -2c-45 0 -92 3 -130 6l-1 73c26 -5 83 -12 133 -12c34 0 68 1 101 3c0 41 -1 83 -4 111c0 14 -4 45 -6 54h83c-2 -18 -2 -36 -3 -52
c-1 -18 0 -64 0 -107c51 5 97 12 135 21z" />
    <glyph glyph-name="Identity.593" unicode="&#x309b;" 
d="M70 791c25 -36 75 -121 97 -161l-58 -25c-22 43 -69 127 -95 163zM196 840c25 -36 75 -120 98 -161l-58 -24c-23 43 -69 125 -97 161z" />
    <glyph glyph-name="Identity.594" unicode="&#x309c;" 
d="M26 707c0 63 50 115 114 115s114 -51 114 -115c0 -63 -50 -114 -114 -114s-114 51 -114 114zM69 707c0 -36 33 -70 71 -70s70 33 70 70c0 38 -32 70 -70 70s-71 -32 -71 -70z" />
    <glyph glyph-name="Identity.595" unicode="&#x309d;" 
d="M729 183c-81 -28 -237 -90 -304 -117l-39 75c62 24 203 79 258 101c-57 85 -214 252 -319 347l68 51c128 -117 292 -302 358 -393z" />
    <glyph glyph-name="Identity.596" unicode="&#x309e;" 
d="M583 701c25 -35 70 -112 92 -151l-59 -26c-22 42 -64 117 -90 153zM713 743c25 -35 70 -110 92 -150l-58 -26c-23 43 -64 116 -91 152zM690 163c-82 -27 -237 -90 -304 -117l-39 75c62 24 202 79 257 101c-56 85 -213 252 -318 348l68 50c128 -117 291 -302 357 -393z
" />
    <glyph glyph-name="Identity.597" unicode="&#x30a1;" 
d="M442 402h87c-2 -213 -22 -364 -233 -481l-71 56c22 8 46 18 69 34c135 91 154 201 154 332c0 19 -3 39 -6 59zM820 547l45 -42c-6 -7 -15 -19 -20 -27c-29 -47 -113 -172 -203 -234l-65 45c71 43 143 131 172 180l-478 1c-30 0 -63 -1 -94 -4v83c28 -4 64 -7 94 -7h494
c15 0 42 2 55 5z" />
    <glyph glyph-name="Identity.598" unicode="&#x30a2;" 
d="M442 544h90c0 -271 -24 -454 -279 -581l-73 60c27 9 61 25 89 44c155 95 177 238 177 405c0 24 -1 46 -4 72zM882 723l49 -47c-7 -10 -20 -25 -27 -36c-40 -68 -135 -197 -249 -276l-66 53c92 54 186 162 218 224h-569c-37 0 -74 -2 -114 -6v90c35 -4 77 -8 114 -8h574
c19 0 55 3 70 6z" />
    <glyph glyph-name="Identity.599" unicode="&#x30a3;" 
d="M721 603l62 -59c-47 -51 -136 -124 -227 -181v-354c0 -30 1 -71 5 -86h-92c2 15 4 56 4 86v306c-85 -45 -205 -97 -314 -128l-43 73c128 28 264 89 347 137c100 58 207 142 258 206z" />
    <glyph glyph-name="Identity.600" unicode="&#x30a4;" 
d="M795 781l66 -60c-69 -70 -165 -152 -268 -217v-428c0 -38 2 -87 6 -107h-98c3 19 6 69 6 107v378c-107 -59 -245 -117 -376 -156l-46 78c167 39 337 115 447 184c102 63 207 150 263 221z" />
    <glyph glyph-name="Identity.601" unicode="&#x30a5;" 
d="M778 496l53 -30c-4 -12 -9 -35 -11 -51c-9 -60 -36 -173 -80 -250c-58 -104 -175 -195 -345 -239l-63 70c30 4 73 16 95 24c88 32 174 79 231 169c42 66 68 157 75 229h-465v-143c0 -14 1 -36 3 -48h-82c1 14 3 36 3 52v145c0 18 -2 52 -4 70c23 -2 56 -3 84 -3h183v71
c0 15 -1 35 -5 59h89c-4 -24 -5 -44 -5 -59v-71h188c30 0 46 2 56 5z" />
    <glyph glyph-name="Identity.602" unicode="&#x30a6;" 
d="M828 641l54 -34c-5 -15 -11 -41 -15 -60c-13 -80 -42 -205 -98 -300c-75 -132 -213 -234 -396 -284l-65 75c34 5 72 16 104 28c100 32 210 106 271 201c54 85 86 206 95 292h-559v-179c0 -18 1 -44 4 -59h-87c2 17 3 44 3 63v176c0 21 0 55 -3 77c29 -3 58 -4 93 -4h221
v93c0 21 -1 44 -5 75h96c-5 -31 -6 -54 -6 -75v-93h224c37 0 56 3 69 8z" />
    <glyph glyph-name="Identity.603" unicode="&#x30a7;" 
d="M538 72h242c24 0 47 2 67 5v-84c-20 2 -51 3 -67 3h-553c-22 0 -48 -1 -72 -3v84c23 -3 50 -5 72 -5h230v368h-184c-16 0 -48 -1 -69 -3v80c21 -3 53 -4 69 -4h460c25 0 50 2 71 4v-80c-22 2 -48 3 -71 3h-195v-368z" />
    <glyph glyph-name="Identity.604" unicode="&#x30a8;" 
d="M539 125h294c30 0 57 3 83 6v-91c-27 4 -63 4 -83 4h-661c-27 0 -57 -1 -88 -4v91c30 -4 61 -6 88 -6h282v460h-225c-19 0 -59 -1 -84 -4v88c26 -4 64 -6 84 -6h550c30 0 61 3 85 6v-88c-25 3 -57 4 -85 4h-240v-460z" />
    <glyph glyph-name="Identity.605" unicode="&#x30a9;" 
d="M649 463h144c20 0 53 2 67 4v-79c-18 1 -46 3 -65 3h-145c2 -126 5 -290 6 -384c1 -43 -31 -69 -75 -69c-40 0 -105 4 -145 6l-4 73c40 -6 92 -9 122 -9c18 0 27 11 27 29c0 63 -1 175 -3 281c-68 -96 -212 -223 -348 -295l-56 62c150 72 302 204 370 306h-267
c-27 0 -52 -1 -76 -3v79c23 -3 50 -4 74 -4h301c-1 34 -2 62 -3 81c0 20 -3 45 -7 67h85c-3 -21 -4 -44 -4 -67z" />
    <glyph glyph-name="Identity.606" unicode="&#x30aa;" 
d="M656 602h157c26 0 65 3 85 6v-84c-23 1 -58 2 -82 2h-159c3 -150 6 -349 7 -474c0 -52 -31 -80 -91 -80c-51 0 -111 2 -160 6l-7 82c48 -8 104 -12 141 -12c29 0 37 13 37 40c0 80 -1 229 -3 363c-83 -118 -258 -280 -437 -375l-57 65c202 99 380 265 459 385h-330
c-33 0 -62 -1 -93 -3v85c29 -4 61 -6 92 -6h364c-1 40 -2 74 -3 97c-2 24 -3 55 -9 84h93c-4 -28 -6 -56 -6 -84z" />
    <glyph glyph-name="Identity.607" unicode="&#x30ab;" 
d="M799 607l56 -28c-3 -17 -5 -36 -5 -49c-4 -96 -16 -387 -61 -483c-20 -42 -52 -60 -107 -60c-51 0 -109 3 -161 6l-10 83c54 -7 107 -11 149 -11c29 0 47 8 58 33c38 76 51 322 51 429h-280c-36 -287 -140 -439 -307 -554l-72 59c31 17 72 45 102 74
c99 90 171 215 198 421h-168c-40 0 -80 0 -115 -4v85c35 -4 76 -6 114 -6h176c2 32 4 66 4 102c0 22 -3 59 -7 83h94c-3 -23 -5 -58 -6 -82c-1 -36 -3 -70 -5 -103h238c27 0 47 2 64 5z" />
    <glyph glyph-name="Identity.608" unicode="&#x30ac;" 
d="M477 591h238c27 0 47 2 64 5l56 -28c-3 -17 -5 -36 -5 -49c-4 -96 -16 -387 -61 -483c-20 -43 -52 -61 -107 -61c-51 0 -109 3 -161 7l-10 83c54 -7 107 -11 149 -11c29 0 47 8 58 32c38 77 51 323 51 430h-280c-36 -288 -140 -439 -307 -554l-72 59c31 17 72 45 102 74
c99 89 171 215 198 421h-168c-40 0 -80 0 -115 -4v84c35 -3 76 -5 114 -5h176c2 32 4 66 4 101c0 23 -3 60 -7 83h94c-3 -22 -5 -57 -6 -81c-1 -36 -3 -70 -5 -103zM700 761l53 23c25 -36 61 -97 82 -137l-54 -24c-20 40 -54 100 -81 138zM810 801l53 23
c26 -37 65 -99 83 -136l-53 -24c-22 43 -55 100 -83 137z" />
    <glyph glyph-name="Identity.609" unicode="&#x30ad;" 
d="M881 400l17 -84c-21 -2 -53 -7 -90 -13c-55 -9 -148 -24 -246 -39c20 -98 36 -178 41 -201c7 -29 15 -63 24 -91l-91 -17c-5 34 -8 64 -15 94c-4 22 -20 103 -39 202c-113 -19 -220 -37 -269 -46c-39 -6 -66 -12 -88 -18l-18 87c23 1 62 5 88 9c50 7 159 24 273 42
l-40 201c-95 -15 -182 -29 -220 -36c-32 -5 -59 -11 -81 -17l-17 90c25 1 51 3 83 7c39 4 126 17 220 32c-11 54 -18 93 -21 105c-5 26 -12 48 -19 68l90 16c1 -19 6 -47 9 -69c2 -11 9 -52 21 -108c97 16 189 31 231 39c29 5 54 12 71 17l17 -84c-15 -2 -46 -6 -72 -10
c-46 -7 -137 -22 -233 -37l40 -201c102 17 197 33 247 42c38 8 66 14 87 20z" />
    <glyph glyph-name="Identity.610" unicode="&#x30ae;" 
d="M833 675l-54 -24c-20 40 -54 101 -81 138l53 23c25 -36 61 -96 82 -137zM489 521l39 -200c101 17 197 33 247 42c38 7 67 14 88 20l17 -84c-21 -2 -53 -7 -90 -14c-55 -8 -148 -23 -247 -39c20 -97 36 -178 41 -200c7 -29 15 -63 25 -92l-92 -17c-5 34 -8 65 -15 94
c-4 22 -19 103 -38 202c-114 -18 -221 -36 -270 -45c-38 -7 -66 -13 -88 -19l-18 88c24 1 62 5 88 9c50 7 159 24 273 42l-39 201c-95 -15 -182 -29 -221 -36c-32 -6 -58 -12 -80 -17l-18 89c25 2 52 4 83 7c39 4 127 17 221 32c-11 54 -19 94 -22 106c-5 25 -11 47 -18 68
l89 15c2 -18 6 -47 10 -69c1 -11 9 -51 20 -108c97 16 189 32 231 40c29 5 55 11 72 16l16 -84c-15 -1 -45 -6 -72 -10zM808 830l53 22c26 -36 65 -99 84 -136l-54 -24c-22 44 -55 100 -83 138z" />
    <glyph glyph-name="Identity.611" unicode="&#x30af;" 
d="M805 665l67 -40c-8 -14 -18 -37 -24 -53c-27 -100 -88 -236 -177 -344c-91 -111 -210 -203 -398 -272l-72 65c183 54 308 145 399 251c78 92 139 221 159 312h-338c-60 -84 -144 -173 -253 -246l-69 52c173 103 271 248 314 338c11 17 25 53 31 79l93 -31
c-17 -26 -35 -59 -45 -78c-7 -14 -15 -28 -24 -42h272c27 0 49 3 65 9z" />
    <glyph glyph-name="Identity.612" unicode="&#x30b0;" 
d="M429 632h271c27 0 49 3 65 9l66 -40c-8 -14 -18 -37 -23 -53c-27 -101 -88 -236 -177 -345c-91 -111 -211 -202 -398 -272l-73 66c184 54 309 144 400 251c78 91 139 221 159 312h-337c-61 -85 -144 -174 -254 -246l-69 51c172 103 270 249 314 338c10 18 25 54 31 80
l92 -31c-16 -26 -34 -60 -44 -78c-7 -14 -15 -28 -23 -42zM712 777l53 23c25 -36 61 -96 82 -137l-54 -24c-20 40 -54 101 -81 138zM822 817l53 23c26 -37 65 -99 83 -136l-53 -24c-22 43 -55 100 -83 137z" />
    <glyph glyph-name="Identity.613" unicode="&#x30b1;" 
d="M349 602h472c25 0 65 1 94 5v-86c-32 2 -71 3 -94 3h-169c-16 -286 -128 -453 -300 -563l-85 58c28 11 59 28 81 46c98 74 206 205 220 459h-256c-41 -75 -108 -166 -167 -214l-79 47c72 52 144 154 178 215c28 50 46 102 57 140c7 24 13 51 15 80l96 -19
c-9 -23 -18 -49 -25 -70c-10 -29 -23 -65 -38 -101z" />
    <glyph glyph-name="Identity.614" unicode="&#x30b2;" 
d="M842 653l-54 -24c-20 40 -54 100 -81 138l53 23c25 -36 61 -97 82 -137zM334 582h472c25 0 65 1 94 5v-86c-31 2 -71 3 -94 3h-169c-16 -286 -128 -453 -300 -563l-85 58c29 11 59 28 81 46c98 74 206 205 221 459h-257c-40 -75 -108 -166 -166 -214l-79 47
c72 52 143 154 178 215c27 50 45 102 56 140c7 24 13 51 15 80l97 -19c-9 -23 -19 -49 -26 -70c-10 -29 -22 -65 -38 -101zM817 807l53 23c26 -37 65 -99 84 -136l-54 -24c-22 43 -54 100 -83 137z" />
    <glyph glyph-name="Identity.615" unicode="&#x30b3;" 
d="M849 -9h-90c1 11 1 32 2 56h-489c-41 0 -86 -2 -113 -4v90c26 -2 69 -5 111 -5h491v472h-479c-37 0 -86 -2 -110 -3v89c33 -4 77 -6 109 -6h493c24 0 54 1 74 2c-1 -23 -3 -54 -3 -78v-516c0 -36 3 -81 4 -97z" />
    <glyph glyph-name="Identity.616" unicode="&#x30b4;" 
d="M815 692l-55 -25c-20 42 -55 100 -80 135l55 23c23 -34 60 -95 80 -133zM826 574v-516c0 -36 3 -81 4 -97h-90c0 11 1 32 2 56h-489c-41 0 -86 -2 -113 -4v91c26 -3 69 -6 111 -6h491v472h-479c-37 0 -87 -2 -110 -3v89c33 -4 77 -6 109 -6h492c25 0 55 1 74 2
c-1 -23 -2 -54 -2 -78zM806 831l55 23c24 -34 61 -94 82 -132l-56 -25c-22 41 -54 99 -81 134z" />
    <glyph glyph-name="Identity.617" unicode="&#x30b5;" 
d="M720 571h110c44 0 78 3 91 5v-84c-10 1 -47 3 -91 3h-110v-35c0 -267 -57 -404 -286 -506l-67 63c182 70 273 156 273 436v42h-285v-162c0 -37 3 -81 4 -91h-88c1 10 4 53 4 91v162h-107c-44 0 -89 -3 -101 -4v87c9 -2 58 -7 101 -7h107v128c0 32 -3 63 -4 73h89
c-1 -10 -5 -38 -5 -73v-128h285v125c0 39 -3 72 -5 82h90c-1 -10 -5 -43 -5 -82v-125z" />
    <glyph glyph-name="Identity.618" unicode="&#x30b6;" 
d="M855 624l-49 -17c-15 43 -38 103 -57 141l48 15c18 -36 45 -98 58 -139zM702 553h109c45 0 78 3 92 6v-85c-11 1 -47 3 -91 3h-110v-35c0 -266 -58 -403 -286 -506l-67 64c182 69 272 155 272 435v42h-284v-162c0 -37 3 -81 4 -90h-89c1 9 5 52 5 90v162h-108
c-44 0 -89 -3 -100 -3v86c9 -2 58 -7 100 -7h108v128c0 33 -3 64 -5 73h89c-1 -9 -4 -38 -4 -72v-129h284v125c0 39 -3 72 -4 82h90c-1 -10 -5 -43 -5 -82v-125zM848 778l48 15c19 -36 46 -97 60 -138l-49 -16c-16 44 -39 102 -59 139z" />
    <glyph glyph-name="Identity.619" unicode="&#x30b7;" 
d="M301 768c59 -33 174 -109 217 -141l-47 -68c-48 36 -156 108 -215 142zM151 54c110 19 234 58 335 116c166 95 298 225 379 366l48 -82c-87 -135 -225 -264 -384 -358c-101 -58 -239 -105 -332 -124zM150 543c60 -32 176 -103 220 -135l-46 -70c-49 36 -158 106 -218 137
z" />
    <glyph glyph-name="Identity.620" unicode="&#x30b8;" 
d="M716 746c25 -36 70 -108 93 -155l-57 -26c-25 53 -58 112 -91 157zM847 794c27 -35 71 -107 96 -153l-57 -26c-27 53 -62 110 -95 155zM289 761c59 -33 174 -110 217 -141l-47 -69c-48 37 -157 109 -215 143zM139 46c110 19 234 59 335 116c166 95 298 226 379 367
l48 -83c-87 -134 -225 -263 -385 -357c-100 -59 -238 -105 -331 -124zM138 536c59 -32 176 -104 220 -135l-46 -70c-50 36 -158 106 -219 137z" />
    <glyph glyph-name="Identity.621" unicode="&#x30b9;" 
d="M749 708l51 -39c-6 -8 -19 -30 -25 -44c-34 -86 -97 -203 -168 -293c105 -90 227 -220 292 -298l-70 -61c-67 88 -173 206 -275 297c-107 -115 -242 -225 -390 -292l-64 67c161 63 309 182 412 297c68 77 141 196 166 278h-390c-35 0 -90 -4 -101 -5v91
c14 -2 71 -7 101 -7h386c33 0 59 4 75 9z" />
    <glyph glyph-name="Identity.622" unicode="&#x30ba;" 
d="M838 677l-54 -24c-20 40 -53 99 -80 138l53 23c25 -37 62 -98 81 -137zM729 690l51 -39c-6 -8 -19 -30 -25 -43c-34 -87 -97 -204 -168 -294c105 -90 227 -220 292 -298l-70 -61c-67 89 -173 206 -275 298c-107 -116 -242 -225 -390 -292l-64 66c161 63 309 182 412 297
c68 77 141 196 166 279h-390c-35 0 -90 -4 -101 -5v90c14 -2 71 -6 101 -6h386c33 0 59 3 75 8zM818 826l52 23c27 -37 65 -99 84 -136l-54 -24c-22 43 -55 100 -82 137z" />
    <glyph glyph-name="Identity.623" unicode="&#x30bb;" 
d="M657 244l-70 42c75 68 148 178 178 238c-17 -4 -201 -41 -378 -77v-297c0 -69 25 -91 145 -91c116 0 212 10 312 29l-4 -86c-89 -12 -189 -20 -314 -20c-186 0 -220 48 -220 147v302c-101 -20 -190 -39 -230 -48l-16 84c45 6 140 23 246 43v171c0 30 -2 63 -7 92h95
c-5 -29 -7 -63 -7 -92v-156c170 33 345 69 387 78c22 5 41 11 53 18l59 -46c-7 -10 -18 -27 -25 -40c-46 -83 -124 -208 -204 -291z" />
    <glyph glyph-name="Identity.624" unicode="&#x30bc;" 
d="M844 659l-54 -24c-20 40 -54 100 -81 138l53 23c25 -36 61 -97 82 -137zM373 663v-156c170 33 346 69 388 79c22 5 41 10 53 18l59 -46c-7 -11 -18 -28 -25 -40c-46 -83 -124 -209 -205 -291l-69 41c75 69 148 179 178 238c-17 -3 -202 -40 -379 -76v-298
c0 -69 26 -91 146 -91c116 0 212 10 311 30l-3 -86c-89 -13 -189 -21 -314 -21c-186 0 -221 49 -221 147v302c-101 -20 -189 -38 -230 -47l-15 84c45 5 139 22 245 42v171c0 30 -1 63 -6 92h94c-4 -29 -7 -63 -7 -92zM819 813l53 23c26 -37 65 -99 84 -136l-54 -24
c-22 43 -54 100 -83 137z" />
    <glyph glyph-name="Identity.625" unicode="&#x30bd;" 
d="M264 36c166 68 279 176 353 287c77 114 109 233 125 326c5 26 9 64 8 82l100 -14c-8 -26 -16 -61 -20 -79c-24 -119 -64 -244 -137 -357c-78 -120 -191 -233 -354 -308zM124 678l79 41c44 -65 132 -219 168 -284l-80 -45c-37 75 -119 222 -167 288z" />
    <glyph glyph-name="Identity.626" unicode="&#x30be;" 
d="M249 14c345 146 435 417 466 568c6 26 11 62 11 80l97 -19c-8 -25 -17 -59 -20 -72c-48 -201 -148 -459 -480 -621zM108 656l78 40c45 -65 133 -218 169 -284l-80 -45c-37 76 -119 223 -167 289zM738 825c24 -34 61 -95 81 -133l-56 -25c-19 42 -54 100 -79 135zM865 854
c24 -34 61 -94 82 -132l-56 -25c-22 41 -54 99 -81 134z" />
    <glyph glyph-name="Identity.627" unicode="&#x30bf;" 
d="M807 681l65 -40c-8 -14 -17 -38 -23 -54c-25 -88 -76 -199 -146 -297c38 -24 72 -47 97 -65l-55 -72c-24 19 -57 43 -95 69c-90 -103 -216 -201 -392 -266l-72 62c174 53 304 149 395 249c-79 51 -163 101 -219 132l51 59c58 -30 142 -78 220 -125c61 85 110 188 129 267
h-340c-64 -89 -153 -187 -265 -263l-67 52c172 106 276 256 321 347c10 18 25 54 32 80l90 -29c-16 -26 -34 -60 -44 -79c-6 -12 -13 -24 -21 -37h273c27 0 49 3 66 10z" />
    <glyph glyph-name="Identity.628" unicode="&#x30c0;" 
d="M712 783l53 23c25 -36 61 -96 82 -137l-53 -24l47 -28c-8 -14 -18 -37 -23 -53c-26 -88 -77 -200 -147 -298c38 -24 72 -47 97 -65l-55 -71c-24 19 -57 43 -95 69c-90 -104 -216 -201 -392 -267l-72 63c174 53 306 149 396 249c-79 51 -164 101 -220 132l52 59
c58 -30 142 -78 220 -126c61 86 109 188 128 267h-341c-63 -89 -152 -186 -264 -262l-67 52c173 106 276 256 321 347c10 18 26 54 32 79l90 -29c-16 -26 -34 -59 -44 -78c-6 -12 -13 -24 -21 -37h273c27 0 50 3 66 9l17 -10c-20 40 -53 99 -80 136zM822 823l53 23
c26 -37 65 -99 83 -136l-53 -24c-22 44 -55 100 -83 137z" />
    <glyph glyph-name="Identity.629" unicode="&#x30c1;" 
d="M558 453h276c22 0 58 2 79 4v-83c-22 2 -52 4 -77 4h-279c-11 -187 -84 -319 -256 -419l-78 55c157 73 240 185 252 364h-297c-32 0 -66 -2 -89 -4v83c22 -2 57 -4 87 -4h301v182c-101 -10 -214 -13 -291 -14l-20 74c76 -3 228 1 336 15c91 13 209 37 258 58l53 -69
l-57 -15c-49 -13 -126 -28 -198 -39v-192z" />
    <glyph glyph-name="Identity.630" unicode="&#x30c2;" 
d="M531 440h277c21 0 58 2 79 4v-82c-22 2 -53 3 -78 3h-279c-11 -186 -83 -319 -256 -418l-78 54c157 74 241 185 253 364h-298c-32 0 -65 -1 -89 -3v83c22 -3 57 -5 88 -5h301v182c-101 -10 -215 -12 -292 -14l-19 74c75 -3 227 1 336 16c90 12 208 36 257 57l53 -69
l-56 -15c-50 -12 -127 -28 -199 -39v-192zM836 503l-52 -24c-22 48 -45 88 -75 130l51 22c23 -33 54 -84 76 -128zM815 647l49 23c25 -32 58 -83 81 -127l-52 -24c-24 48 -47 87 -78 128z" />
    <glyph glyph-name="Identity.631" unicode="&#x30c3;" 
d="M483 576c17 -40 66 -172 79 -216l-74 -26c-11 45 -57 172 -78 217zM759 547l86 -27c-7 -21 -11 -37 -15 -50c-27 -110 -70 -217 -142 -307c-92 -117 -214 -195 -326 -238l-66 68c116 33 243 109 325 212c71 87 123 214 138 342zM251 526c20 -43 72 -174 91 -226l-76 -28
c-15 52 -69 190 -89 225z" />
    <glyph glyph-name="Identity.632" unicode="&#x30c4;" 
d="M456 752c22 -48 82 -207 99 -263l-78 -27c-16 57 -73 212 -98 264zM808 714l92 -26c-7 -17 -14 -41 -18 -57c-30 -124 -84 -267 -166 -375c-103 -136 -251 -239 -392 -289l-69 70c143 42 292 138 393 266c82 104 141 268 160 411zM177 692c26 -56 89 -209 112 -275
l-79 -28c-19 62 -88 231 -112 274z" />
    <glyph glyph-name="Identity.633" unicode="&#x30c5;" 
d="M438 727c22 -47 82 -206 99 -262l-78 -28c-16 58 -73 212 -98 264zM780 638l91 -22c-7 -17 -13 -41 -18 -57c-30 -107 -73 -219 -155 -328c-103 -135 -251 -238 -393 -288l-68 69c143 42 292 138 392 266c82 105 132 240 151 360zM159 667c26 -56 89 -208 112 -274
l-79 -29c-19 62 -88 231 -112 275zM748 825c23 -33 60 -95 80 -133l-55 -24c-20 41 -55 100 -80 135zM874 854c25 -34 61 -94 82 -132l-55 -24c-22 41 -55 99 -82 133z" />
    <glyph glyph-name="Identity.634" unicode="&#x30c6;" 
d="M710 660h-404c-33 0 -66 -1 -91 -3v83c28 -3 58 -6 90 -6h405c28 0 64 2 93 6v-83c-29 2 -64 3 -93 3zM183 484h654c21 0 54 1 78 5v-83c-22 1 -54 2 -78 2h-272c-3 -108 -19 -199 -59 -273c-36 -67 -112 -139 -197 -182l-74 54c78 32 150 90 189 153
c44 70 55 154 58 248h-299c-31 0 -60 0 -87 -2v83c27 -3 56 -5 87 -5z" />
    <glyph glyph-name="Identity.635" unicode="&#x30c7;" 
d="M867 675l-54 -24c-20 41 -54 101 -81 138l53 23c25 -36 61 -96 82 -137zM640 651h-345c-33 0 -66 -1 -92 -3v83c29 -3 59 -6 91 -6h346c28 0 64 2 93 6v-83c-29 2 -64 3 -93 3zM172 475h654c21 0 54 1 78 4v-82c-22 1 -54 2 -78 2h-272c-3 -108 -19 -199 -59 -273
c-36 -67 -112 -139 -197 -183l-74 55c78 32 150 90 189 153c44 70 55 154 58 248h-299c-31 0 -60 0 -87 -2v82c27 -2 56 -4 87 -4zM842 830l53 22c26 -36 65 -99 84 -136l-54 -24c-22 44 -54 100 -83 138z" />
    <glyph glyph-name="Identity.636" unicode="&#x30c8;" 
d="M847 342l-34 -85c-109 59 -282 126 -393 161l1 -330c0 -32 2 -85 6 -118h-96c4 32 6 81 6 118v582c0 28 -2 73 -8 104h98c-3 -31 -7 -74 -7 -104v-163c132 -40 321 -112 427 -165z" />
    <glyph glyph-name="Identity.637" unicode="&#x30c9;" 
d="M871 622l-56 -28c-27 52 -59 105 -93 150l55 26c26 -35 70 -102 94 -148zM747 569l-57 -26c-25 52 -56 107 -89 152l55 25c26 -37 68 -104 91 -151zM389 657v-164c132 -40 321 -111 427 -164l-35 -85c-108 59 -281 125 -392 160v-329c0 -32 2 -86 6 -118h-96
c4 32 6 81 6 118v582c0 28 -2 73 -8 104h98c-3 -31 -6 -74 -6 -104z" />
    <glyph glyph-name="Identity.638" unicode="&#x30ca;" 
d="M569 540h266c33 0 71 2 87 4v-85c-16 2 -57 3 -88 3h-265c0 -220 -75 -382 -277 -500l-78 58c188 89 270 236 271 442h-293c-38 0 -74 -1 -94 -3v86c20 -2 56 -5 92 -5h295v135c0 30 -4 79 -9 99h99c-3 -20 -6 -70 -6 -100v-134z" />
    <glyph glyph-name="Identity.639" unicode="&#x30cb;" 
d="M92 60v96c34 -3 69 -5 105 -5h599c30 0 62 1 91 5v-96c-30 3 -64 5 -91 5h-599c-36 0 -71 -3 -105 -5zM178 561v90c32 -3 66 -5 98 -5h429c36 0 71 2 99 5v-90c-28 2 -66 3 -99 3h-428c-35 0 -68 -1 -99 -3z" />
    <glyph glyph-name="Identity.640" unicode="&#x30cc;" 
d="M825 111l-59 -68c-51 48 -118 105 -192 161c-104 -115 -242 -201 -373 -250l-70 70c147 43 280 131 375 231c-90 65 -185 126 -270 171l51 61c86 -46 182 -106 273 -170c69 92 121 206 144 303h-412c-36 0 -79 -2 -107 -3v85c28 -2 69 -5 107 -5h412c21 0 41 4 56 10
l58 -45c-9 -13 -18 -33 -26 -54c-38 -129 -99 -250 -165 -339c76 -56 146 -111 198 -158z" />
    <glyph glyph-name="Identity.641" unicode="&#x30cd;" 
d="M775 655l52 -50c-18 -19 -40 -42 -56 -60c-50 -60 -134 -144 -226 -208c0 -82 -1 -202 -1 -269c0 -35 3 -79 5 -110h-91c4 29 6 75 6 110c0 58 1 150 1 218c-93 -54 -203 -98 -338 -139l-48 74c189 45 314 111 405 170c89 58 169 136 203 183h-415c-35 0 -92 -2 -122 -4
v84c31 -4 87 -5 121 -5h196v64c0 28 -2 66 -6 88h92c-4 -22 -6 -60 -6 -88v-64h165c23 0 46 1 63 6zM633 288l52 59c94 -51 148 -82 241 -145l-52 -68c-87 64 -147 104 -241 154z" />
    <glyph glyph-name="Identity.642" unicode="&#x30ce;" 
d="M802 719c-12 -27 -24 -62 -32 -87c-39 -109 -99 -256 -183 -364c-91 -115 -234 -225 -377 -285l-70 73c149 52 287 152 378 265c93 116 160 280 188 424z" />
    <glyph glyph-name="Identity.643" unicode="&#x30cf;" 
d="M229 317c44 104 85 256 99 371l89 -18c-7 -23 -14 -52 -19 -73c-13 -62 -48 -210 -90 -313c-37 -92 -92 -194 -148 -275l-85 36c64 84 120 189 154 272zM722 355c-40 103 -102 242 -145 317l81 27c39 -73 103 -211 146 -317c40 -98 93 -252 120 -342l-89 -29
c-25 102 -72 238 -113 344z" />
    <glyph glyph-name="Identity.644" unicode="&#x30d0;" 
d="M765 779c25 -35 62 -96 82 -137l-54 -24c-20 41 -54 101 -81 139zM875 819c27 -36 65 -99 84 -136l-54 -24c-22 44 -54 100 -83 138zM218 301c43 103 85 255 98 370l89 -18c-6 -22 -14 -51 -18 -73c-14 -62 -49 -210 -91 -312c-37 -92 -91 -195 -147 -275l-85 36
c63 83 119 188 154 272zM710 339c-40 103 -101 242 -145 316l81 27c40 -72 104 -210 146 -316c41 -99 94 -252 120 -342l-89 -29c-25 102 -71 237 -113 344z" />
    <glyph glyph-name="Identity.645" unicode="&#x30d1;" 
d="M783 697c0 -36 29 -66 65 -66c37 0 67 30 67 66s-30 67 -67 67c-36 0 -65 -31 -65 -67zM737 697c0 62 50 113 111 113c62 0 113 -51 113 -113s-51 -112 -113 -112c-61 0 -111 50 -111 112zM218 301c43 103 85 255 98 370l89 -18c-6 -22 -14 -51 -18 -73
c-14 -62 -49 -210 -91 -312c-37 -92 -91 -195 -147 -275l-85 36c63 83 119 188 154 272zM710 339c-40 103 -101 242 -145 316l81 27c40 -72 104 -210 146 -316c41 -99 94 -252 120 -342l-89 -29c-25 102 -71 237 -113 344z" />
    <glyph glyph-name="Identity.646" unicode="&#x30d2;" 
d="M313 380v-220c0 -51 22 -64 70 -74c32 -5 83 -8 132 -8c106 0 259 10 343 32v-91c-87 -13 -237 -21 -346 -21c-60 0 -119 3 -161 10c-76 14 -119 49 -119 130v550c0 24 -2 58 -6 81h93c-3 -23 -6 -53 -6 -81v-226c121 29 288 81 392 126c30 13 59 28 88 46l35 -81
c-29 -12 -65 -28 -95 -39c-113 -45 -295 -102 -420 -134z" />
    <glyph glyph-name="Identity.647" unicode="&#x30d3;" 
d="M810 647l-54 -25c-20 41 -54 101 -81 139l53 22c25 -35 61 -96 82 -136zM274 361v-220c0 -51 21 -64 70 -74c31 -5 83 -8 132 -8c106 0 259 10 342 32v-91c-87 -13 -237 -21 -346 -21c-59 0 -119 3 -160 10c-77 14 -120 49 -120 130v550c0 24 -1 58 -6 81h93
c-3 -23 -5 -53 -5 -81v-226c118 29 276 77 380 122c31 13 60 28 88 45l35 -80c-28 -12 -64 -28 -94 -39c-112 -45 -285 -98 -409 -130zM785 801l53 23c26 -37 65 -99 84 -136l-54 -25c-22 44 -55 100 -83 138z" />
    <glyph glyph-name="Identity.648" unicode="&#x30d4;" 
d="M274 361v-220c0 -51 21 -64 70 -74c31 -5 83 -8 132 -8c106 0 259 10 342 32v-91c-87 -13 -237 -21 -346 -21c-59 0 -119 3 -160 10c-77 14 -120 49 -120 130v550c0 24 -1 58 -6 81h93c-3 -23 -5 -53 -5 -81v-226c118 29 276 77 380 122c31 13 60 28 88 45l35 -80
c-28 -12 -64 -28 -94 -39c-112 -45 -285 -98 -409 -130zM825 632c36 0 66 29 66 66c0 36 -30 66 -66 66c-37 0 -66 -30 -66 -66c0 -37 29 -66 66 -66zM825 810c61 0 112 -51 112 -112c0 -62 -51 -112 -112 -112c-62 0 -112 50 -112 112c0 61 50 112 112 112z" />
    <glyph glyph-name="Identity.649" unicode="&#x30d5;" 
d="M800 704l61 -39c-7 -14 -11 -31 -15 -50c-22 -105 -70 -266 -149 -369c-91 -117 -210 -210 -394 -268l-68 75c194 49 306 134 390 241c71 91 118 230 131 326h-511c-40 0 -74 -2 -100 -3v88c28 -3 67 -6 100 -6h502c15 0 34 0 53 5z" />
    <glyph glyph-name="Identity.650" unicode="&#x30d6;" 
d="M835 699l-38 -17l49 -31c-7 -14 -11 -30 -15 -50c-22 -105 -70 -266 -149 -369c-92 -117 -211 -210 -394 -267l-68 75c194 48 306 133 390 240c71 91 117 230 131 326h-512c-39 0 -74 -2 -99 -3v88c27 -3 67 -6 100 -6h501c13 0 27 0 43 3c-21 38 -51 88 -73 120l54 23
c24 -34 60 -94 80 -132zM829 834l55 23c25 -34 61 -94 82 -132l-55 -24c-22 41 -55 98 -82 133z" />
    <glyph glyph-name="Identity.651" unicode="&#x30d7;" 
d="M871 652c36 0 66 30 66 66s-30 67 -66 67c-37 0 -66 -31 -66 -67s29 -66 66 -66zM230 685h501c10 0 21 0 33 1c-3 10 -5 21 -5 32c0 62 50 113 112 113s112 -51 112 -113s-50 -112 -112 -112c-13 0 -26 2 -38 6l-2 -11c-22 -105 -70 -266 -149 -369
c-92 -117 -211 -210 -394 -267l-68 75c194 48 306 133 390 240c71 91 117 230 131 326h-512c-39 0 -74 -2 -99 -3v88c27 -3 67 -6 100 -6z" />
    <glyph glyph-name="Identity.652" unicode="&#x30d8;" 
d="M62 282c26 22 44 40 71 66c47 48 134 159 197 234c53 63 95 70 167 10c61 -50 143 -138 207 -207c67 -72 169 -181 241 -267l-65 -71c-69 90 -160 190 -225 263c-68 78 -151 168 -195 204c-41 34 -55 34 -89 -8c-48 -58 -132 -168 -177 -223c-20 -26 -42 -57 -57 -77z
" />
    <glyph glyph-name="Identity.653" unicode="&#x30d9;" 
d="M691 678c25 -36 71 -111 94 -158l-58 -27c-25 53 -60 115 -93 160zM819 729c26 -35 74 -110 98 -156l-58 -28c-26 53 -62 113 -96 158zM54 263c25 22 44 40 70 66c48 49 135 160 198 234c53 63 94 70 166 10c61 -50 143 -138 207 -207c67 -72 169 -181 242 -267l-65 -71
c-70 90 -161 193 -225 266c-69 77 -152 167 -195 203c-42 35 -56 34 -90 -8c-48 -58 -132 -168 -177 -223c-21 -26 -43 -57 -58 -77z" />
    <glyph glyph-name="Identity.654" unicode="&#x30da;" 
d="M704 600c0 -40 33 -73 74 -73c40 0 73 33 73 73c0 41 -33 73 -73 73c-41 0 -74 -32 -74 -73zM656 600c0 67 54 122 122 122c67 0 121 -55 121 -122s-54 -121 -121 -121c-68 0 -122 54 -122 121zM54 263c25 22 44 40 70 66c48 49 135 160 198 234c53 63 94 70 166 10
c61 -50 143 -138 207 -207c67 -72 169 -181 242 -267l-65 -71c-70 90 -161 193 -225 266c-69 77 -152 167 -195 203c-42 35 -56 34 -90 -8c-48 -58 -132 -168 -177 -223c-21 -26 -43 -57 -58 -77z" />
    <glyph glyph-name="Identity.655" unicode="&#x30db;" 
d="M272 414l70 -34c-42 -85 -135 -213 -192 -274l-69 47c67 61 152 180 191 261zM821 535h-265v-485c0 -52 -25 -79 -86 -79c-42 0 -101 2 -142 7l-7 79c44 -8 89 -11 115 -11c27 0 39 11 39 38c1 54 1 396 1 443v8h-278c-31 0 -59 -1 -86 -4v85c28 -4 54 -6 85 -6h279v103
c0 22 -4 56 -8 71h94c-3 -14 -6 -50 -6 -71v-103h264c24 0 57 2 82 5v-83c-27 2 -57 3 -81 3zM692 377l68 37c54 -64 133 -190 173 -262l-74 -41c-39 79 -114 203 -167 266z" />
    <glyph glyph-name="Identity.656" unicode="&#x30dc;" 
d="M952 686l-54 -24c-22 43 -53 97 -81 134l53 23c26 -37 63 -96 82 -133zM832 656l-54 -24c-20 41 -53 98 -80 136l54 22c25 -36 59 -93 80 -134zM252 401l70 -34c-42 -86 -136 -213 -192 -275l-69 47c66 62 152 181 191 262zM801 521h-265v-484c0 -53 -26 -80 -86 -80
c-42 0 -102 3 -142 7l-8 80c44 -8 90 -12 116 -12c27 0 39 12 39 38v451h-278c-30 0 -58 -1 -85 -3v84c28 -3 53 -5 85 -5h278v103c0 22 -3 56 -7 71h94c-3 -14 -6 -50 -6 -72v-102h264c24 0 57 1 82 5v-83c-27 2 -57 2 -81 2zM672 364l68 36c53 -64 133 -189 173 -261
l-74 -41c-39 78 -114 203 -167 266z" />
    <glyph glyph-name="Identity.657" unicode="&#x30dd;" 
d="M818 803c-35 0 -63 -29 -63 -64c0 -36 28 -64 63 -64c36 0 64 28 64 64c0 35 -28 64 -64 64zM818 630c-60 0 -109 48 -109 109c0 60 49 110 109 110c61 0 110 -50 110 -110c0 -61 -49 -109 -110 -109zM252 401l70 -34c-42 -86 -136 -213 -192 -275l-69 47
c66 62 152 181 191 262zM801 521h-265v-484c0 -53 -26 -80 -86 -80c-42 0 -102 3 -142 7l-8 80c44 -8 90 -12 116 -12c27 0 39 12 39 38v451h-278c-30 0 -58 -1 -85 -3v84c28 -3 53 -5 85 -5h278v103c0 22 -3 56 -7 71h94c-3 -14 -6 -50 -6 -72v-102h264c24 0 57 1 82 5v-83
c-27 2 -57 2 -81 2zM672 364l68 36c53 -64 133 -189 173 -261l-74 -41c-39 78 -114 203 -167 266z" />
    <glyph glyph-name="Identity.658" unicode="&#x30de;" 
d="M865 685l64 -51c-10 -11 -19 -22 -25 -31c-72 -117 -199 -280 -364 -406c60 -60 131 -135 171 -184l-73 -58c-37 51 -117 139 -180 204c-60 60 -176 160 -229 197l65 52c37 -27 119 -93 187 -154c147 110 262 257 312 347h-588c-39 0 -82 -4 -102 -6v90
c28 -4 67 -8 102 -8h596c28 0 50 3 64 8z" />
    <glyph glyph-name="Identity.659" unicode="&#x30df;" 
d="M287 757c130 -17 399 -72 525 -116l-32 -77c-122 44 -384 101 -522 119zM242 493c137 -23 379 -74 504 -120l-32 -77c-116 46 -360 101 -502 122zM187 202c168 -26 458 -95 595 -150l-34 -77c-133 58 -430 125 -592 151z" />
    <glyph glyph-name="Identity.660" unicode="&#x30e0;" 
d="M933 4l-83 -38c-13 36 -33 82 -55 131c-155 -20 -489 -57 -623 -69c-25 -2 -54 -7 -83 -11l-15 93c30 -1 64 0 93 1c15 1 32 2 50 3c56 138 158 458 186 556c12 46 16 70 20 96l99 -20c-10 -25 -21 -51 -34 -93c-30 -94 -128 -401 -178 -531c147 14 339 36 448 50
c-40 79 -84 157 -121 205l75 34c71 -103 180 -304 221 -407z" />
    <glyph glyph-name="Identity.661" unicode="&#x30e1;" 
d="M717 760l94 -32c-10 -19 -25 -52 -33 -73c-32 -88 -83 -198 -150 -295c89 -74 175 -152 246 -228l-63 -70c-74 85 -150 156 -236 230c-93 -114 -217 -233 -391 -323l-71 63c175 83 299 193 397 314c-74 61 -185 143 -281 202l53 63c85 -54 201 -136 280 -197
c64 93 105 187 135 272c7 20 16 52 20 74z" />
    <glyph glyph-name="Identity.662" unicode="&#x30e2;" 
d="M826 346h-339v-201c0 -50 35 -80 127 -80c95 0 177 4 263 14l-5 -84c-78 -6 -174 -10 -270 -10c-151 0 -198 53 -198 135v226h-194c-26 0 -67 -2 -95 -4v84c27 -2 68 -5 95 -5h194v212h-133c-34 0 -63 -1 -90 -3v80c27 -2 56 -4 90 -4h476c32 0 60 2 82 4v-80
c-24 1 -47 3 -82 3h-260v-212h337c21 0 60 2 83 4v-82c-23 3 -59 3 -81 3z" />
    <glyph glyph-name="Identity.663" unicode="&#x30e3;" 
d="M815 510l50 -35c-42 -85 -145 -225 -213 -292l-71 35c62 54 138 146 172 206c-23 -4 -165 -32 -303 -60c40 -144 89 -321 102 -364c6 -19 16 -50 22 -68l-85 -22c-3 22 -8 48 -15 72c-13 45 -61 223 -100 366c-94 -19 -176 -35 -203 -41l-20 76c28 2 53 6 83 11
c14 2 61 11 122 22c-15 53 -27 96 -33 115c-7 25 -15 45 -23 60l85 21c3 -17 8 -39 14 -64l32 -118c142 27 312 60 346 68c12 3 28 7 38 12z" />
    <glyph glyph-name="Identity.664" unicode="&#x30e4;" 
d="M860 671l56 -41c-47 -98 -171 -262 -253 -343l-81 38c82 66 178 189 215 253c-30 -5 -210 -41 -382 -76c49 -179 107 -390 124 -446c6 -21 18 -55 26 -78l-93 -22c-4 22 -10 55 -18 82c-15 52 -74 274 -122 448c-114 -24 -213 -44 -245 -52l-23 86c35 3 64 7 100 12
l148 28c-18 65 -32 116 -38 137c-10 32 -17 55 -28 75l92 22c2 -21 8 -46 17 -77l39 -142c172 33 382 73 421 82c15 3 33 8 45 14z" />
    <glyph glyph-name="Identity.665" unicode="&#x30e5;" 
d="M679 87h98c22 0 58 1 79 3v-81c-18 1 -55 2 -76 2h-548c-31 0 -54 -1 -83 -3v83c24 -2 52 -4 83 -4h362c15 84 44 279 47 336h-318c-29 0 -55 -2 -80 -3v84c24 -3 54 -6 79 -6h304c16 0 41 3 50 7l61 -29c-3 -10 -6 -23 -7 -31c-8 -68 -37 -266 -51 -358z" />
    <glyph glyph-name="Identity.666" unicode="&#x30e6;" 
d="M706 142h136c30 0 58 3 83 6v-91c-27 3 -63 4 -83 4h-675c-28 0 -57 -1 -88 -4v91c30 -4 60 -6 88 -6h451c18 107 60 375 63 445h-394c-37 0 -64 -2 -95 -4v89c29 -4 61 -6 94 -6h369c20 0 50 4 62 8l67 -31c-4 -10 -7 -25 -8 -33c-11 -94 -53 -361 -70 -468z" />
    <glyph glyph-name="Identity.667" unicode="&#x30e7;" 
d="M774 -56h-79c1 9 1 25 1 41h-403c-31 0 -66 -2 -82 -3v80c16 -2 48 -4 82 -4h403v178h-361c-35 0 -70 -1 -90 -2v77c19 -1 55 -4 89 -4h362v167h-371c-26 0 -84 -2 -102 -3v78c19 -2 76 -4 102 -4h387c22 0 48 1 61 2c-1 -11 -1 -32 -1 -51v-498c0 -16 1 -40 2 -54z" />
    <glyph glyph-name="Identity.668" unicode="&#x30e8;" 
d="M831 -25h-85c0 12 1 31 1 51h-493c-40 0 -81 -2 -101 -4v85c20 -2 57 -4 100 -4h494v228h-441c-43 0 -86 -1 -110 -1v82c25 -3 67 -5 108 -5h443v214h-454c-32 0 -103 -2 -125 -3v84c23 -3 93 -5 125 -5h467c28 0 54 1 70 2c-1 -14 -1 -35 -1 -60v-604c0 -21 1 -43 2 -60
z" />
    <glyph glyph-name="Identity.669" unicode="&#x30e9;" 
d="M821 517l57 -36c-5 -9 -11 -22 -13 -29c-27 -99 -72 -203 -146 -284c-105 -115 -231 -174 -358 -209l-62 71c142 29 267 94 352 183c61 64 101 149 119 221h-531c-24 0 -62 -1 -97 -3v84c36 -4 70 -6 97 -6h527c23 0 44 2 55 8zM231 662v83c26 -4 58 -5 90 -5h393
c32 0 67 1 91 5v-83c-24 2 -58 3 -92 3h-392c-31 0 -63 -1 -90 -3z" />
    <glyph glyph-name="Identity.670" unicode="&#x30ea;" 
d="M221 751h92c-2 -19 -3 -48 -3 -72v-334c0 -25 1 -58 3 -76h-92c1 15 4 47 4 77v333c0 18 -2 53 -4 72zM684 758h92c-2 -24 -4 -53 -4 -86v-162c0 -240 -32 -319 -104 -405c-65 -78 -165 -121 -238 -146l-65 69c92 23 178 63 240 133c72 83 84 164 84 353v158
c0 33 -3 62 -5 86z" />
    <glyph glyph-name="Identity.671" unicode="&#x30eb;" 
d="M141 -24l-75 50c84 60 144 149 174 246c29 92 30 291 30 402c0 30 -3 52 -7 73h92c-1 -12 -5 -42 -5 -72c0 -111 -4 -325 -31 -425c-30 -107 -94 -205 -178 -274zM577 -23l-53 44c4 16 7 36 7 56v599c0 38 -5 66 -6 74h92c-1 -8 -4 -36 -4 -74v-577
c92 42 215 133 291 246l48 -68c-86 -117 -225 -219 -341 -277c-15 -8 -24 -15 -34 -23z" />
    <glyph glyph-name="Identity.672" unicode="&#x30ec;" 
d="M280 -18l-58 50c7 16 10 29 10 49v572c0 27 -5 71 -8 91h98c-4 -25 -7 -62 -7 -91v-567c191 48 423 180 547 341l45 -70c-130 -161 -336 -284 -585 -357c-11 -3 -27 -8 -42 -18z" />
    <glyph glyph-name="Identity.673" unicode="&#x30ed;" 
d="M776 604h-547v-475h547v475zM858 607v-493c0 -32 1 -109 2 -120h-86c0 7 1 30 1 57h-546c1 -26 1 -50 2 -57h-86c1 12 3 86 3 121v492c0 23 0 54 -2 78c39 -1 66 -2 89 -2h537c22 0 58 0 88 2c-2 -25 -2 -53 -2 -78z" />
    <glyph glyph-name="Identity.674" unicode="&#x30ee;" 
d="M770 540l56 -36c-4 -7 -10 -31 -12 -39c-17 -112 -45 -242 -109 -327c-73 -97 -172 -171 -307 -218l-66 67c118 29 224 93 296 186c54 69 85 163 98 289h-455v-154c0 -11 0 -36 1 -56h-84c2 20 3 41 3 56v172c0 19 -2 40 -3 57c22 -2 55 -2 90 -2h440c17 0 36 0 52 5z
" />
    <glyph glyph-name="Identity.675" unicode="&#x30ef;" 
d="M815 706l61 -39c-4 -10 -11 -37 -13 -46c-18 -119 -39 -261 -111 -374c-81 -128 -218 -230 -379 -282l-68 69c147 39 290 126 372 254c57 89 85 217 95 335h-552v-200c0 -15 1 -40 3 -64h-91c3 24 4 45 4 64v213c0 23 -1 45 -4 67c27 -2 64 -3 107 -3h513c22 0 46 2 63 6
z" />
    <glyph glyph-name="Identity.676" unicode="&#x30f0;" 
d="M379 251h241v289h-241v-289zM700 251h135c30 0 57 3 83 6v-85c-27 3 -64 3 -83 3h-135v-114c0 -10 0 -46 4 -95h-88c4 49 4 83 4 93v116h-442c-27 0 -57 0 -88 -3v85c30 -4 60 -6 88 -6h123v289h-86c-28 0 -58 -1 -89 -3v82c29 -3 61 -5 89 -5h405v84c0 14 0 37 -4 70h87
c-2 -32 -3 -58 -3 -70v-84h110c31 0 57 2 83 5v-82c-27 3 -63 3 -83 3h-110v-289z" />
    <glyph glyph-name="Identity.677" unicode="&#x30f1;" 
d="M782 607h-537c-37 0 -107 -4 -107 -4v86c31 -2 68 -5 102 -5h551c22 0 45 3 60 8l53 -38c-9 -12 -17 -21 -23 -33c-44 -81 -130 -190 -212 -258l-70 47c76 54 145 133 183 197zM525 120h317c31 0 58 3 85 6v-92c-28 3 -65 4 -85 4h-669c-28 0 -59 -1 -90 -4v92
c30 -4 61 -6 90 -6h269v328c0 23 -1 52 -4 79h92c-3 -28 -5 -53 -5 -79v-328z" />
    <glyph glyph-name="Identity.678" unicode="&#x30f2;" 
d="M816 717l64 -40c-4 -9 -10 -21 -13 -36c-23 -125 -59 -284 -117 -375c-94 -144 -220 -242 -417 -308l-65 70c173 41 314 132 405 266c16 24 30 53 42 85h-435c-34 0 -61 -2 -92 -4v82c27 -3 58 -5 89 -5h463c17 61 29 126 37 183h-512c-40 0 -80 -3 -103 -4v87
c22 -2 62 -7 103 -7h490c22 0 44 2 61 6z" />
    <glyph glyph-name="Identity.679" unicode="&#x30f3;" 
d="M227 733c71 -47 199 -151 255 -207l-63 -63c-50 52 -175 159 -249 209zM141 63c175 26 305 87 400 146c154 97 276 245 334 368l48 -85c-69 -125 -185 -261 -336 -355c-100 -64 -226 -125 -393 -156z" />
    <glyph glyph-name="Identity.680" unicode="&#x30f4;" 
d="M827 679l-54 -24c-20 40 -54 100 -81 138l53 23c25 -36 62 -96 82 -137zM513 621h224c38 0 56 4 69 8l54 -34c-5 -14 -11 -41 -15 -60c-13 -80 -42 -205 -98 -300c-75 -132 -212 -234 -395 -283l-65 74c33 5 71 16 103 28c100 32 210 107 271 202c55 84 86 205 95 291
h-558v-179c0 -18 1 -44 3 -59h-87c2 17 4 44 4 64v175c0 21 -1 55 -4 77c29 -3 58 -4 93 -4h222v93c0 21 -1 44 -6 75h96c-4 -31 -6 -54 -6 -75v-93zM809 824l53 23c26 -37 65 -99 84 -136l-54 -24c-22 43 -55 100 -83 137z" />
    <glyph glyph-name="Identity.681" unicode="&#x30f5;" 
d="M750 468l49 -26c-2 -13 -4 -29 -4 -40c-2 -76 -14 -320 -52 -401c-16 -33 -45 -50 -93 -50c-37 0 -99 3 -138 6l-8 76c42 -6 97 -10 127 -10c24 0 38 7 48 26c29 61 40 253 40 344h-232c-28 -224 -104 -351 -253 -454l-68 55c27 13 62 38 83 56c90 75 145 182 165 343
h-143c-31 0 -63 -1 -92 -3v79c29 -3 61 -5 92 -5h150c1 27 2 55 2 85c0 19 -2 46 -5 64h85c-2 -19 -3 -42 -4 -61c-1 -31 -2 -60 -5 -88h205c21 0 37 2 51 4z" />
    <glyph glyph-name="Identity.682" unicode="&#x30f6;" 
d="M375 453h401c21 0 54 1 78 5v-79c-26 2 -58 3 -78 3h-147c-16 -231 -106 -373 -254 -463l-79 52c22 9 59 31 78 46c79 63 164 166 178 365h-214c-38 -63 -97 -138 -140 -174l-73 43c62 46 118 121 151 174c26 43 44 89 54 128c5 18 9 40 11 59l89 -19
c-8 -19 -14 -35 -19 -52c-9 -25 -22 -58 -36 -88z" />
    <glyph glyph-name="Identity.683" unicode="&#x30f7;" 
d="M793 679l60 -39c-4 -10 -11 -36 -13 -46c-18 -119 -39 -261 -111 -374c-81 -128 -218 -230 -378 -282l-69 69c148 39 290 127 372 255c57 88 85 216 95 334h-552v-200c0 -15 1 -39 3 -64h-90c2 24 3 45 3 64v214c0 22 -1 45 -3 66c26 -2 63 -3 106 -3h514c21 0 45 2 63 6
zM809 841l59 18c24 -34 52 -82 71 -121l-61 -20c-19 42 -45 87 -69 123zM681 815l59 18c22 -34 50 -83 68 -120l-61 -20c-17 40 -43 86 -66 122z" />
    <glyph glyph-name="Identity.684" unicode="&#x30f8;" 
d="M954 692l-49 -17c-16 45 -39 100 -59 137l48 16c19 -37 46 -95 60 -136zM853 661l-49 -17c-15 42 -38 100 -58 138l48 15c19 -36 45 -96 59 -136zM368 247h242v289h-242v-289zM690 247h134c31 0 58 3 83 6v-85c-27 3 -63 3 -83 3h-134v-114c0 -10 0 -46 3 -95h-87
c4 49 4 83 4 93v116h-443c-27 0 -56 0 -88 -3v85c30 -4 61 -6 88 -6h123v289h-86c-28 0 -58 -1 -89 -3v82c30 -3 61 -5 89 -5h406v84c0 14 -1 37 -4 70h87c-3 -32 -3 -58 -3 -70v-84h109c31 0 58 2 84 5v-82c-27 3 -64 3 -84 3h-109v-289z" />
    <glyph glyph-name="Identity.685" unicode="&#x30f9;" 
d="M936 728l-59 -19c-19 42 -45 87 -69 122l57 18c24 -33 52 -81 71 -121zM809 699l-59 -20c-18 40 -44 87 -67 123l57 18c22 -34 51 -83 69 -121zM770 583h-537c-36 0 -106 -4 -106 -4v87c31 -3 68 -6 102 -6h551c21 0 44 3 59 8l53 -37c-8 -12 -16 -22 -23 -34
c-43 -80 -129 -189 -211 -258l-70 48c76 53 145 132 182 196zM514 96h316c31 0 59 3 85 6v-92c-27 4 -65 4 -85 4h-668c-28 0 -59 -1 -91 -4v92c31 -4 62 -6 91 -6h268v328c0 24 0 52 -3 80h92c-4 -28 -5 -54 -5 -80v-328z" />
    <glyph glyph-name="Identity.686" unicode="&#x30fa;" 
d="M808 714l-61 -19c-18 40 -43 85 -67 120l59 19c22 -34 50 -82 69 -120zM230 682h489c23 0 45 2 61 7l64 -41c-4 -9 -9 -20 -12 -36c-23 -125 -59 -284 -117 -375c-95 -143 -220 -241 -417 -308l-65 70c173 41 313 133 404 266c16 24 30 53 42 85h-435
c-34 0 -61 -2 -91 -4v82c27 -3 57 -5 89 -5h462c17 61 30 126 38 183h-512c-41 0 -80 -2 -103 -4v88c21 -3 62 -8 103 -8zM809 841l59 18c24 -34 52 -82 71 -121l-61 -20c-19 42 -45 87 -69 123z" />
    <glyph glyph-name="Identity.687" unicode="&#x30fc;" 
d="M102 335v98c30 -2 83 -5 139 -5h548c50 0 86 3 108 5v-98c-20 1 -62 5 -107 5h-549c-55 0 -108 -2 -139 -5z" />
    <glyph glyph-name="Identity.688" unicode="&#x30fd;" 
d="M363 581c114 -100 293 -292 382 -417l-75 -59c-86 132 -252 316 -378 421z" />
    <glyph glyph-name="Identity.689" unicode="&#x30fe;" 
d="M582 685c25 -36 70 -112 92 -151l-59 -26c-22 42 -64 117 -90 153zM712 727c25 -36 70 -111 92 -151l-58 -25c-23 43 -64 116 -91 151zM338 576c114 -99 293 -291 382 -416l-75 -59c-86 131 -252 315 -378 421z" />
    </font>
</defs>
</svg>
